<?xml version="1.0" encoding="utf-8"?>
<!-- Generator: Adobe Illustrator 23.0.1, SVG Export Plug-In . SVG Version: 6.00 Build 0)  -->
<svg version="1.1" id="Слой_1" xmlns="http://www.w3.org/2000/svg" xmlns:xlink="http://www.w3.org/1999/xlink" x="0px" y="0px"
	 viewBox="0 0 16 16" style="enable-background:new 0 0 16 16;" xml:space="preserve">
<style type="text/css">
	.st0{fill-rule:evenodd;clip-rule:evenodd;fill:#5D7CB5;}
	.st1{fill-rule:evenodd;clip-rule:evenodd;fill:#FFFFFF;}
</style>
<path class="st0" d="M5.55,0h4.91C14.93,0,16,1.07,16,5.55v4.91c0,4.48-1.07,5.55-5.55,5.55H5.55C1.07,16,0,14.93,0,10.45V5.55
	C0,1.07,1.07,0,5.55,0"/>
<path class="st1" d="M13.1,5.51c0.07-0.25,0-0.43-0.35-0.43h-1.17c-0.3,0-0.43,0.16-0.51,0.33c0,0-0.59,1.45-1.43,2.39
	C9.37,8.07,9.25,8.16,9.1,8.16c-0.07,0-0.18-0.09-0.18-0.33V5.51c0-0.3-0.09-0.43-0.33-0.43H6.75c-0.19,0-0.3,0.14-0.3,0.27
	c0,0.28,0.42,0.35,0.46,1.14v1.72c0,0.38-0.07,0.45-0.22,0.45c-0.4,0-1.36-1.45-1.93-3.11C4.66,5.21,4.55,5.08,4.25,5.08H3.08
	c-0.33,0-0.4,0.16-0.4,0.33c0,0.31,0.4,1.84,1.84,3.87c0.96,1.38,2.32,2.13,3.56,2.13c0.74,0,0.83-0.17,0.83-0.45V9.92
	c0-0.33,0.07-0.4,0.31-0.4c0.17,0,0.47,0.09,1.16,0.75c0.79,0.79,0.92,1.15,1.37,1.15h1.17c0.33,0,0.5-0.17,0.4-0.5
	c-0.11-0.33-0.48-0.8-0.98-1.37c-0.27-0.32-0.68-0.67-0.8-0.84c-0.17-0.22-0.12-0.32,0-0.52C11.53,8.19,12.96,6.19,13.1,5.51"/>
</svg>
