<svg width="68" height="90" viewBox="0 0 68 90" fill="none" xmlns="http://www.w3.org/2000/svg">
<path d="M28.4381 11.2814L25.5948 6.04614L6.46443 16.4357L9.30767 21.671L11.4577 20.5033L40.872 74.664L40.9473 74.816C43.1734 78.9149 48.2965 80.4272 52.3953 78.2012C56.4941 75.9751 58.0149 70.8546 55.7888 66.7557C55.7888 66.7557 56.0554 67.1177 55.7676 66.7432L26.3057 12.4638L28.4381 11.2814Z" fill="#F1F1FC"/>
<path d="M25.1217 13.0825L22.2785 7.84723L6.46443 16.4357L9.30767 21.671L11.0869 20.7047L40.5012 74.8653L40.5747 75.0184C42.8007 79.1173 47.3481 80.9423 50.7371 79.1017C54.1261 77.2612 55.0712 72.4533 52.8451 68.3544C52.8451 68.3544 53.1005 68.7225 52.8239 68.3419L23.362 14.0625L25.1217 13.0825Z" fill="#FBFAB7"/>
<path d="M25.5104 12.8707L22.6671 7.63542L12.815 12.986L15.6583 18.2213L16.7668 17.6192L46.1811 71.7799L46.2564 71.932C48.4825 76.0308 51.9939 78.4184 54.1067 77.271C56.2176 76.1246 56.1287 71.8782 53.9026 67.7794C53.9026 67.7794 54.1412 68.1565 53.8851 67.7649L24.4176 13.4884L25.5104 12.8707Z" fill="#A7B4E4"/>
<path d="M49.117 75.6707C46.9331 76.068 44.6428 75.0414 43.5302 72.9927L43.4856 72.8975L24.5213 36.711L27.3419 36.711L46.1784 71.7695L46.253 71.9201C47.075 73.4336 48.0813 74.7274 49.117 75.6707Z" fill="#F46970"/>
<path d="M50.7278 75.128C50.2129 75.4076 49.6681 75.5841 49.1146 75.6696C48.0808 74.7253 47.0846 73.4499 46.2526 71.918L46.1861 71.7867L27.3376 36.7102L36.1345 37.1408L52.8447 67.9315C52.8585 67.9479 52.8603 67.947 52.874 67.9634C54.2452 70.5409 53.2877 73.7377 50.7278 75.128ZM52.9252 68.0313C52.9252 68.0313 52.9115 68.0148 52.874 67.9634C52.864 67.945 52.864 67.9449 52.854 67.9265C52.854 67.9265 52.9289 68.0293 52.9252 68.0313Z" fill="#CA657D"/>
<path d="M38.6408 47.6195L34.1529 50.0568C33.507 50.4076 33.2724 51.2261 33.6222 51.8701C33.972 52.5141 34.7861 52.7628 35.432 52.4121L39.9199 49.9747C40.5676 49.6229 40.8022 48.8046 40.4525 48.1606C40.1027 47.5166 39.2885 47.2677 38.6408 47.6195Z" fill="#7880C8"/>
<path d="M41.6857 53.3154L37.1989 55.7521C36.5524 56.1032 36.3065 56.9028 36.6656 57.5639C37.0147 58.2067 37.8192 58.4357 38.4657 58.0846L42.9524 55.6479C43.5989 55.2968 43.8449 54.4973 43.4958 53.8545C43.1367 53.1933 42.3322 52.9643 41.6857 53.3154Z" fill="#7880C8"/>
<path d="M44.7538 58.9725L40.2682 61.4086C39.6193 61.761 39.3838 62.5774 39.7322 63.219C40.0806 63.8605 40.8836 64.0891 41.5325 63.7366L46.0181 61.3005C46.6652 60.9491 46.9108 60.1511 46.5624 59.5096C46.2139 58.868 45.4009 58.621 44.7538 58.9725Z" fill="#7880C8"/>
<path d="M47.8296 64.6267L43.3433 67.0632C42.6956 67.4149 42.4587 68.2308 42.8065 68.8711C43.1642 69.5298 43.9675 69.7568 44.6152 69.4051L49.1014 66.9686C49.7491 66.6168 49.9943 65.8205 49.6365 65.1618C49.2888 64.5214 48.4773 64.275 47.8296 64.6267Z" fill="#7880C8"/>
<path d="M55.8193 66.8064C57.9963 70.8904 56.47 75.9711 52.3902 78.1869C48.2916 80.4128 43.1657 78.8965 40.9469 74.811L40.8733 74.6578L12.424 22.2739L19.9476 18.1879C20.595 17.8363 20.8254 17.0107 20.4809 16.3764C20.1263 15.7235 19.3184 15.4859 18.6711 15.8374L8.99656 21.0916L6.46368 16.4278L25.5946 6.03796L28.1984 10.8324L24.0103 13.1069C23.3629 13.4585 23.1224 14.2655 23.477 14.9184C23.8215 15.5527 24.6294 15.7904 25.2767 15.4388L27.3213 14.3284L55.7657 66.7388L55.8193 66.8064L55.789 66.7504L55.8924 66.8875L55.8193 66.8064ZM23.467 2.12038L4.33607 12.5102C2.17953 13.6814 1.38205 16.3853 2.5573 18.5493L5.39412 23.7728C6.2249 25.3025 7.8191 26.1518 9.44972 26.1118L36.9061 76.6673L37.0405 76.9326C40.4244 83.1634 48.272 85.4965 54.5178 82.1045C60.5117 78.8492 62.9013 71.4396 60.0497 65.3303C59.9084 64.9723 59.7297 64.6343 59.4897 64.2815L32.0889 13.7925C33.0148 12.4683 33.1667 10.6706 32.3359 9.14089L29.4991 3.91745C28.3238 1.75345 25.6235 0.949175 23.467 2.12038Z" fill="#7880C8"/>
</svg>
