<svg width="45" height="80" viewBox="0 0 45 80" fill="none" xmlns="http://www.w3.org/2000/svg">
<path d="M40.5774 26.606L32.9712 18.8105L12.1987 18.8105L4.59082 26.606L4.59082 72.1283L7.54841 75.02L37.6198 75.02L40.5774 72.1283L40.5774 26.606Z" fill="#F1F1FC"/>
<path d="M33.797 4.76278L11.1748 4.76278L11.1748 14.6716L33.797 14.6716L33.797 4.76278Z" fill="#FFFFF7"/>
<path d="M27.9399 19.6535L27.9399 4.76477L8.43661 4.76477L8.43661 19.8575L2.7666 26.6051L2.7666 72.1214L5.31606 75.0107L31.2389 75.0107L33.7918 72.1214L33.7918 26.6051L27.9399 19.6535Z" fill="#FBFAB7"/>
<path d="M31.7992 19.655L31.7992 4.76623L17.8825 4.76623L17.8825 19.859L13.834 26.6066L13.834 72.1228L15.6526 75.0122L34.1532 75.0122L35.9735 72.1228L35.9735 26.6066L31.7992 19.655Z" fill="#A7B4E4"/>
<path d="M13.842 71.9873L7.96387 71.9873L8.03776 47.2273L13.842 45.4436L13.842 71.9873Z" fill="#F46970"/>
<path d="M35.9801 71.9873L13.8408 71.9873L13.8408 45.4436L35.8768 38.6719L35.9801 71.9873Z" fill="#E0738E"/>
<path d="M7.55032 74.9983L5.73583 73.2281L27.8486 73.2281C28.5278 73.2281 29.0793 72.6834 29.0793 72.0025C29.0793 71.3217 28.5278 70.76 27.8486 70.76L4.59369 70.76C4.59369 63.8822 4.59369 50.2484 4.59369 27.8314L27.8486 27.8314C28.5278 27.8314 29.0793 27.2697 29.0793 26.6058C29.0793 25.9079 28.5278 25.3633 27.8486 25.3633L5.79542 25.3633L12.2006 18.81L32.9738 18.81L39.3791 25.3633L34.4786 25.3633C33.7977 25.3633 33.2479 25.9079 33.2479 26.6058C33.2479 27.2697 33.7977 27.8314 34.4786 27.8314L40.5791 27.8314L40.5791 70.76L34.4786 70.76C33.7977 70.76 33.2479 71.3217 33.2479 72.0025C33.2479 72.6834 33.7977 73.2281 34.4786 73.2281L39.4369 73.2281L37.6207 74.9983L7.55032 74.9983ZM11.1725 4.75001L33.7943 4.75001L33.7943 14.6566L11.1725 14.6566L11.1725 4.75001ZM43.5153 23.7291L37.0607 17.1078C37.5765 16.4269 37.8931 15.5928 37.8931 14.6566L37.8931 4.75001C37.8931 2.48613 36.0599 0.647864 33.7943 0.647864L11.1725 0.647864C8.90865 0.647864 7.07375 2.48613 7.07375 4.75001L7.07375 14.6566C7.07375 15.6439 7.43119 16.5291 8.00142 17.227L1.65746 23.7291C0.91191 24.4951 0.493164 25.5335 0.493164 26.6058L0.493164 72.1046C0.493164 73.211 0.939129 74.2663 1.72553 75.0493L4.68561 77.926C5.45158 78.675 6.47966 79.1006 7.55032 79.1006L37.6207 79.1006C38.6931 79.1006 39.7229 78.675 40.4889 77.926L43.4489 75.0493C44.237 74.2663 44.6813 73.211 44.6813 72.1046L44.6813 26.6058C44.6813 25.5335 44.2626 24.4951 43.5153 23.7291Z" fill="#7880C8"/>
</svg>
