<svg width="63" height="74" viewBox="0 0 63 74" fill="none" xmlns="http://www.w3.org/2000/svg">
<path d="M41.4903 39.0657C37.0216 43.5277 31.3809 46.818 31.3809 46.818C31.3809 46.818 24.9471 42.7389 21.276 39.0657C13.1768 41.6122 6.39585 47.1108 2.21777 54.3447C8.04319 64.418 18.9165 71.1787 31.3809 71.1787C43.8475 71.1787 54.7209 64.418 60.5464 54.3447C56.3683 47.1108 49.5873 41.6122 41.4903 39.0657Z" fill="white"/>
<path d="M44.4172 15.5703C44.4172 8.37826 38.5816 2.52909 31.3782 2.52909C24.1793 2.52909 18.3438 8.37826 18.3438 15.5703V22.9901C18.3438 30.2049 24.1793 36.054 31.3782 36.054C38.5816 36.054 44.4172 30.2049 44.4172 22.9901V15.5703Z" fill="white"/>
<path d="M33.7521 2.52909C25.24 2.52909 18.3438 8.37826 18.3438 15.5703V22.9901C18.3438 30.2049 25.24 36.054 33.7521 36.054V2.52909Z" fill="#FBFAB7"/>
<path d="M39.8643 15.8902C39.8643 9.68033 36.789 4.63056 32.9925 4.63056C29.1984 4.63056 26.123 9.68033 26.123 15.8902V22.6915C26.123 28.9014 29.1984 33.9512 32.9925 33.9512C36.789 33.9512 39.8643 28.9014 39.8643 22.6915V15.8902Z" fill="#A7B4E4"/>
<path d="M31.3809 46.818C31.3809 46.818 24.9471 42.7389 21.276 39.0657C13.1768 41.6122 6.39585 47.1108 2.21777 54.3447C8.04319 64.418 18.9165 71.1787 31.3809 71.1787V46.818Z" fill="#FBFAB7"/>
<path d="M41.2329 39.9507C37.761 43.8935 32.6197 47.7911 32.6197 47.7911C32.6197 47.7911 26.6019 43.195 23.7428 39.9507C17.4502 42.1812 12.6851 46.9575 9.43848 53.311C13.4015 62.5483 22.9295 69.2622 32.6197 69.2622C42.3098 69.2622 50.7653 63.2918 55.2916 54.4375C52.045 48.0615 47.5278 42.1812 41.2329 39.9507Z" fill="#A7B4E4"/>
<path d="M40.2455 62.4585C39.6208 62.4585 39.113 61.9642 39.113 61.335V59.0207H36.8121C36.1875 59.0207 35.6797 58.5264 35.6797 57.8973V54.4145C35.6797 53.7854 36.1875 53.2911 36.8121 53.2911H39.113V50.9768C39.113 50.6847 39.2321 50.3926 39.4433 50.1904C39.6568 49.9657 39.9444 49.8533 40.2455 49.8533H43.7304C44.3551 49.8533 44.8607 50.3701 44.8607 50.9768V53.2911H47.1615C47.7839 53.2911 48.2917 53.7854 48.2917 54.4145V57.8973C48.2917 58.5264 47.7839 59.0207 47.1615 59.0207H44.8607V61.335C44.8607 61.9642 44.3551 62.4585 43.7304 62.4585H40.2455Z" fill="#F3658C"/>
<path d="M15.8467 11.9333C15.8467 15.9594 19.054 19.2351 23.0074 19.2351C26.9631 19.2351 30.1726 15.9594 30.1726 11.9333C30.1726 7.90711 26.9631 4.63167 23.0074 4.63167C19.054 4.63167 15.8467 7.90711 15.8467 11.9333Z" fill="#F3658C"/>
<path d="M56.8521 56.4913C56.4553 55.5894 56.0381 54.7099 55.6029 53.8756C53.9682 50.6964 52.0878 47.9007 50.0314 45.488C53.3166 47.8556 56.1509 50.8544 58.3403 54.3493C57.8758 55.0934 57.373 55.7923 56.8521 56.4913ZM32.5095 69.276V56.7844C32.5095 56.1531 32.0044 55.6346 31.3776 55.6346C30.753 55.6346 30.2457 56.1531 30.2457 56.7844V69.276C21.4723 68.9603 13.2537 64.9693 7.52201 58.4755C8.07894 57.1452 8.66973 55.8599 9.31009 54.6424C12.4239 48.6672 16.3765 44.1126 20.832 41.2716C24.3855 44.541 29.3844 47.7878 30.2457 48.329V51.7336C30.2457 52.3649 30.753 52.861 31.3776 52.861C32.0044 52.861 32.5095 52.3649 32.5095 51.7336V48.329C33.4543 47.7878 37.93 45.037 41.9345 41.2716C46.4576 44.1577 50.4553 48.8025 53.5894 54.913C54.1757 56.0629 54.7214 57.2579 55.2377 58.4755C49.5061 64.9693 41.2829 68.9603 32.5095 69.276ZM5.90761 56.4913C5.38675 55.7923 4.88166 55.0934 4.41717 54.3493C6.60656 50.8544 9.4431 47.8554 12.7261 45.4654C10.7306 47.8103 8.90194 50.5161 7.30105 53.5826C6.81176 54.5296 6.3518 55.4992 5.90761 56.4913ZM62.1757 53.4022C57.7044 45.6683 50.559 39.9412 42.0517 37.2805C41.3821 37.0551 40.6492 37.2354 40.1509 37.7315C39.9999 37.8893 39.8421 38.0246 39.6865 38.1825L39.567 38.2952C36.5366 41.1813 33.0664 43.5264 31.4091 44.5861C29.6346 43.4136 25.8353 40.7755 23.1792 38.2727L23.08 38.1825C22.9222 38.0472 22.7531 37.8893 22.6065 37.7315C22.1082 37.2354 21.3754 37.0551 20.7057 37.2805C12.1962 39.9412 5.05076 45.6683 0.581788 53.4022C0.243571 53.9885 0.243571 54.7101 0.581788 55.2963C6.929 66.2546 18.7283 73.064 31.3776 73.064C44.0292 73.064 55.8285 66.2546 62.1757 55.2963C62.5139 54.7101 62.5139 53.9885 62.1757 53.4022Z" fill="#7880C8"/>
<path d="M47.1602 57.8984H43.7281V61.3372H40.2443V57.8984H36.8121V54.4146H40.2443V50.9982H43.7281V54.4146H47.1602V57.8984ZM47.1602 52.167H45.9937V50.9982C45.9937 49.7395 44.98 48.7281 43.7303 48.7281H40.2443C39.6441 48.7281 39.0665 48.9755 38.6417 49.38C38.2169 49.8071 37.9786 50.3913 37.9786 50.9982V52.167H36.8121C35.5625 52.167 34.5488 53.1784 34.5488 54.4146V57.8984C34.5488 59.157 35.5625 60.1686 36.8121 60.1686H37.9786V61.3372C37.9786 62.5959 38.9946 63.6074 40.2443 63.6074H43.7281C44.98 63.6074 45.9937 62.5959 45.9937 61.3372V60.1686H47.1602C48.4099 60.1686 49.4236 59.157 49.4236 57.8984V54.4146C49.4236 53.1784 48.4099 52.167 47.1602 52.167Z" fill="#5C2D56"/>
<path d="M23.0101 5.7714C26.337 5.7714 29.0399 8.52671 29.0399 11.9196C29.0399 15.3125 26.337 18.0905 23.0101 18.0905C19.6855 18.0905 16.9803 15.3125 16.9803 11.9196C16.9803 8.52671 19.6855 5.7714 23.0101 5.7714ZM31.3808 4.42781C36.5544 4.42781 40.9014 7.95747 42.156 12.7622H31.2646C31.2874 12.4889 31.3033 12.2156 31.3033 11.9196C31.3033 11.6464 31.2874 11.3732 31.2646 11.0999H37.6565C38.2827 11.0999 38.7905 10.599 38.7905 9.96138C38.7905 9.34656 38.2827 8.82282 37.6565 8.82282H30.7181C30.1169 7.29715 29.0854 5.97629 27.7692 5.04268C28.9032 4.6328 30.1147 4.42781 31.3808 4.42781ZM42.5295 15.563V23.0092C42.5295 29.1574 37.529 34.1671 31.3808 34.1671C25.2326 34.1671 20.2297 29.1574 20.2297 23.0092V19.8668C21.1019 20.1856 22.0332 20.3676 23.0101 20.3676C26.51 20.3676 29.4998 18.136 30.7181 15.0164H42.5044C42.5113 15.1986 42.5295 15.3808 42.5295 15.563ZM16.4565 23.0092C16.4565 31.2524 23.1513 37.9243 31.3808 37.9243C39.6103 37.9243 46.3049 31.2524 46.3049 23.0092V15.563C46.3049 7.34261 39.6103 0.647887 31.3808 0.647887C28.1063 0.647887 25.0846 1.71804 22.6207 3.51696C18.2282 3.7219 14.7168 7.41092 14.7168 11.9196C14.7168 13.8552 15.3704 15.654 16.4565 17.0658V23.0092Z" fill="#7880C8"/>
<path d="M23.0091 14.1333C24.2131 14.1333 25.1876 13.1338 25.1876 11.9298C25.1876 10.7032 24.2131 9.70376 23.0091 9.70376C21.8097 9.70376 20.833 10.7032 20.833 11.9298C20.833 13.1338 21.8097 14.1333 23.0091 14.1333Z" fill="#5C2D56"/>
</svg>
