<svg width="62" height="74" viewBox="0 0 62 74" fill="none" xmlns="http://www.w3.org/2000/svg">
<path d="M41.1148 39.4887C36.661 43.9244 31.0395 47.2058 31.0395 47.2058C31.0395 47.2058 24.6236 43.155 20.9642 39.4887C12.8917 42.0234 6.13187 47.5001 1.96777 54.7193C7.77488 64.7449 18.6128 71.489 31.0395 71.489C43.4639 71.489 54.3042 64.7449 60.1113 54.7193C55.9449 47.5001 49.185 42.0234 41.1148 39.4887Z" fill="white"/>
<path d="M18.0537 4.91721C18.0537 8.46091 18.0537 12.0274 18.0537 15.5711V23.4814C18.0537 30.6603 23.8722 36.4675 31.0488 36.4675C38.2276 36.4675 44.0462 30.6603 44.0462 23.4814V15.5711C44.0462 12.0274 44.0462 8.46091 44.0462 4.91721C35.6693 1.73932 26.4305 1.73932 18.0537 4.91721Z" fill="white"/>
<path d="M33.286 3.51908C13.9307 3.51908 18.0485 6.53545 18.0485 23.4685C18.0485 30.6439 24.8697 36.4712 33.286 36.4712V3.51908Z" fill="#FBFAB7"/>
<path d="M25.8008 3.52025V23.4697C25.8008 29.6625 28.8675 34.667 32.6494 34.667C36.4314 34.667 39.4981 29.6625 39.4981 23.4697V3.52025H25.8008Z" fill="#A7B4E4"/>
<path d="M31.0395 47.2058C31.0395 47.2058 24.6236 43.155 20.9642 39.4887C12.8917 42.0234 6.13187 47.5001 1.96777 54.7193C7.77488 64.7449 18.6128 71.489 31.0395 71.489V47.2058Z" fill="#FBFAB7"/>
<path d="M40.8735 40.3786C37.4095 44.2928 32.2871 48.207 32.2871 48.207C32.2871 48.207 26.2846 43.6141 23.4383 40.3786C17.1665 42.6186 12.4151 47.3474 9.17969 53.7051C13.1278 62.9137 22.6283 69.6108 32.2871 69.6108C41.946 69.6108 50.3717 63.6602 54.8855 54.8137C51.65 48.4785 47.1475 42.6186 40.8735 40.3786Z" fill="#A7B4E4"/>
<path d="M47.4607 60.2864H36.5967V53.6583H47.4607V60.2864Z" fill="#F3658C"/>
<path d="M46.3289 59.1703H37.727V54.7939H40.9011V55.0647C40.9011 55.6738 41.4042 56.1926 42.0268 56.1926C42.6517 56.1926 43.157 55.6738 43.157 55.0647V54.7939H46.3289V59.1703ZM47.4569 52.538H43.157V52.2672C43.157 51.6581 42.6517 51.1392 42.0268 51.1392C41.4042 51.1392 40.9011 51.6581 40.9011 52.2672V52.538H36.5945C35.9741 52.538 35.4688 53.0343 35.4688 53.6659V60.2983C35.4688 60.93 35.9741 61.4263 36.5945 61.4263H47.4569C48.0818 61.4263 48.5871 60.93 48.5871 60.2983V53.6659C48.5871 53.0343 48.0818 52.538 47.4569 52.538Z" fill="#5C2D56"/>
<path d="M42.0287 50.2654C42.3267 50.2654 42.6135 50.1525 42.8302 49.9267C43.0425 49.7235 43.1554 49.4299 43.1554 49.1364C43.1554 48.8429 43.0425 48.5494 42.8235 48.3461C42.4035 47.9171 41.6606 47.9171 41.2294 48.3461C41.0194 48.5494 40.8975 48.8429 40.8975 49.1364C40.8975 49.4299 41.0194 49.7235 41.2294 49.9267C41.4394 50.1525 41.7329 50.2654 42.0287 50.2654Z" fill="#5C2D56"/>
<path d="M56.4399 56.8537C56.0436 55.948 55.6292 55.065 55.1945 54.2272C53.5642 51.0571 51.6916 48.2719 49.6423 45.8717C52.9143 48.2493 55.7402 51.2156 57.923 54.7026C57.4611 55.4499 56.9584 56.1518 56.4399 56.8537ZM32.1752 69.5794V57.1255C32.1752 56.5141 31.6703 55.9933 31.0476 55.9933C30.4249 55.9933 29.92 56.5141 29.92 57.1255V69.5794C21.1728 69.2623 12.9782 65.2998 7.26529 58.8238C7.82232 57.5104 8.41105 56.2199 9.04732 54.9972C12.154 49.042 16.094 44.4906 20.5321 41.6601C24.078 44.9208 29.0641 48.1587 29.92 48.7021V52.0986C29.92 52.71 30.4249 53.2308 31.0476 53.2308C31.6703 53.2308 32.1752 52.71 32.1752 52.0986V48.7249C33.1172 48.1588 37.5757 45.4189 41.5677 41.6601C46.076 44.5359 50.0635 49.1777 53.186 55.2687C53.7725 56.4009 54.3159 57.601 54.8299 58.8238C49.1147 65.2998 40.9224 69.2623 32.1752 69.5794ZM5.65535 56.8537C5.13682 56.1518 4.63642 55.4499 4.17223 54.7026C6.35279 51.2156 9.18093 48.2493 12.4529 45.8717C10.4648 48.204 8.64202 50.8986 7.04793 53.9554C6.55883 54.8838 6.10143 55.8574 5.65535 56.8537ZM61.7475 53.7743C57.289 46.053 50.1654 40.3468 41.6854 37.6976C41.0175 37.4711 40.2884 37.6523 39.7925 38.1504C39.6408 38.3089 39.4845 38.4449 39.3306 38.5807L39.206 38.7165C36.1854 41.5922 32.7277 43.9244 31.077 44.966C29.3086 43.8112 25.5226 41.1847 22.8734 38.694L22.7737 38.6033C22.6175 38.4448 22.4499 38.3089 22.3005 38.1504C21.8069 37.6523 21.0732 37.4711 20.4075 37.6976C11.9298 40.3468 4.80398 46.053 0.347766 53.7743C0.0103801 54.3404 0.0103801 55.065 0.347766 55.6537C6.67432 66.5904 18.4375 73.3608 31.0476 73.3608C43.6577 73.3608 55.4209 66.5904 61.7475 55.6537C62.0849 55.065 62.0849 54.3404 61.7475 53.7743Z" fill="#7880C8"/>
<path d="M19.93 18.0508H42.1589V23.4709C42.1589 29.6227 37.1734 34.5855 31.0444 34.5855C24.9155 34.5855 19.93 29.6227 19.93 23.4709V18.0508ZM19.93 6.22758C27.1018 3.82631 34.9871 3.82631 42.1589 6.22758V15.7869H19.93V6.22758ZM31.0444 38.3589C39.2453 38.3589 45.9209 31.6809 45.9209 23.4709V4.90098C45.9209 4.12343 45.4361 3.41466 44.7042 3.14023C40.3225 1.49364 35.7281 0.647389 31.0444 0.647389C26.3608 0.647389 21.7664 1.49364 17.3823 3.14023C16.6528 3.41466 16.168 4.12343 16.168 4.90098V23.4709C16.168 31.6809 22.8412 38.3589 31.0444 38.3589Z" fill="#7880C8"/>
<path d="M33.7553 9.05074H32.1729V7.45233C32.1729 6.8358 31.6682 6.33336 31.0449 6.33336C30.4238 6.33336 29.9168 6.8358 29.9168 7.45233V9.05074H28.3321C27.711 9.05074 27.2041 9.55296 27.2041 10.1695C27.2041 10.8088 27.711 11.2885 28.3321 11.2885H29.9168V12.8869C29.9168 13.5034 30.4238 14.0056 31.0449 14.0056C31.6682 14.0056 32.1729 13.5034 32.1729 12.8869V11.2885H33.7553C34.3787 11.2885 34.8856 10.8088 34.8856 10.1695C34.8856 9.55296 34.3787 9.05074 33.7553 9.05074Z" fill="#7880C8"/>
</svg>
