<svg width="63" height="74" viewBox="0 0 63 74" fill="none" xmlns="http://www.w3.org/2000/svg">
<path d="M41.6556 39.2215C37.1685 43.7018 31.5052 47.0056 31.5052 47.0056C31.5052 47.0056 25.044 42.9099 21.3575 39.2215C13.225 41.7785 6.41509 47.2996 2.22168 54.5632C8.06942 64.6779 18.9899 71.4663 31.5052 71.4663C44.0225 71.4663 54.9405 64.6779 60.7898 54.5632C56.5946 47.2996 49.7858 41.7785 41.6556 39.2215Z" fill="white"/>
<path d="M44.5927 15.631C44.5927 8.40948 38.7312 2.53631 31.5014 2.53631C24.2721 2.53631 18.4121 8.40948 18.4121 15.631V23.0812C18.4121 30.3256 24.2721 36.1987 31.5014 36.1987C38.7312 36.1987 44.5927 30.3256 44.5927 23.0812V15.631Z" fill="white"/>
<path d="M33.8836 2.53631C25.3366 2.53631 18.4121 8.40948 18.4121 15.631V23.0812C18.4121 30.3256 25.3366 36.1987 33.8836 36.1987V2.53631Z" fill="#FBFAB7"/>
<path d="M40.0222 15.954C40.0222 9.71869 36.9356 4.6482 33.1249 4.6482C29.3145 4.6482 26.2266 9.71869 26.2266 15.954V22.7833C26.2266 29.0186 29.3145 34.0891 33.1249 34.0891C36.9356 34.0891 40.0222 29.0186 40.0222 22.7833V15.954Z" fill="#A7B4E4"/>
<path d="M31.5052 47.0056C31.5052 47.0056 25.044 42.9099 21.3575 39.2215C13.225 41.7785 6.41509 47.2996 2.22168 54.5632C8.06942 64.6779 18.9899 71.4663 31.5052 71.4663V47.0056Z" fill="#FBFAB7"/>
<path d="M41.4029 40.111C37.9145 44.0699 32.7521 47.9835 32.7521 47.9835C32.7521 47.9835 26.7094 43.3686 23.8406 40.111C17.5215 42.3506 12.7362 47.1465 9.47559 53.526C13.4556 62.8013 23.0215 69.5427 32.7521 69.5427C42.482 69.5427 50.9723 63.5478 55.5194 54.6572C52.2572 48.255 47.7236 42.3506 41.4029 40.111Z" fill="#A7B4E4"/>
<path d="M40.4171 62.7104C39.7877 62.7104 39.28 62.2141 39.28 61.5824V59.2586H36.9709C36.343 59.2586 35.834 58.7622 35.834 58.1305V54.6335C35.834 54.0018 36.343 53.5054 36.9709 53.5054H39.28V51.1816C39.28 50.8883 39.3996 50.595 39.6117 50.392C39.826 50.1664 40.1125 50.0535 40.4171 50.0535H43.9164C44.5436 50.0535 45.0513 50.5725 45.0513 51.1816V53.5054H47.3593C47.9888 53.5054 48.4964 54.0018 48.4964 54.6335V58.1305C48.4964 58.7622 47.9888 59.2586 47.3593 59.2586H45.0513V61.5824C45.0513 62.2141 44.5436 62.7104 43.9164 62.7104H40.4171Z" fill="#F3658C"/>
<path d="M57.0877 56.7202C56.6847 55.8146 56.2681 54.9315 55.8312 54.0938C54.1897 50.9015 52.3016 48.0943 50.2368 45.6718C53.5354 48.049 56.3813 51.0601 58.5797 54.5694C58.1133 55.3165 57.6084 56.0183 57.0877 56.7202ZM32.6439 69.5573V57.0145C32.6439 56.3806 32.1349 55.8599 31.5069 55.8599C30.8786 55.8599 30.3694 56.3806 30.3694 57.0145V69.5573C21.5603 69.2403 13.3074 65.2329 7.55205 58.7125C8.11194 57.3767 8.7049 56.0862 9.3472 54.8636C12.4736 48.864 16.4429 44.2907 20.9171 41.438C24.4856 44.7208 29.505 47.981 30.3694 48.5244V51.943C30.3694 52.5769 30.8786 53.075 31.5069 53.075C32.1349 53.075 32.6439 52.5769 32.6439 51.943V48.5244C33.5914 47.981 38.0834 45.2189 42.1044 41.438C46.646 44.3359 50.6624 48.9998 53.8094 55.1354C54.4003 56.29 54.9459 57.4899 55.4644 58.7125C49.7092 65.2329 41.4523 69.2403 32.6439 69.5573ZM5.93077 56.7202C5.408 56.0183 4.90131 55.3165 4.43447 54.5694C6.63284 51.0601 9.48122 48.0489 12.779 45.649C10.7753 48.0036 8.93922 50.7204 7.33153 53.7995C6.83978 54.7504 6.37724 55.724 5.93077 56.7202ZM62.4308 53.6184C57.9413 45.8528 50.7643 40.1022 42.2243 37.4306C41.5519 37.2042 40.8161 37.3853 40.3158 37.8834C40.1641 38.0419 40.0056 38.1777 39.8494 38.3362L39.7294 38.4494C36.6863 41.3474 33.2017 43.7021 31.5374 44.7662C29.7536 43.5889 25.9423 40.9399 23.2746 38.4269L23.1734 38.3362C23.0167 38.2004 22.8463 38.0419 22.6973 37.8834C22.1997 37.3853 21.4627 37.2042 20.7899 37.4306C12.2472 40.1022 5.07157 45.8528 0.583126 53.6184C0.244427 54.2071 0.244427 54.9317 0.583126 55.5203C6.95638 66.5235 18.8061 73.3608 31.5069 73.3608C44.2099 73.3608 56.0576 66.5235 62.4308 55.5203C62.7704 54.9317 62.7704 54.2071 62.4308 53.6184Z" fill="#7880C8"/>
<path d="M20.3141 15.6243C20.3141 9.47375 25.337 4.44345 31.5097 4.44345C37.6841 4.44345 42.7047 9.47375 42.7047 15.6243V23.1011C42.7047 29.2745 37.6841 34.3047 31.5097 34.3047C25.337 34.3047 20.3141 29.2745 20.3141 23.1011V15.6243ZM31.5097 38.0774C39.7734 38.0774 46.4956 31.3781 46.4956 23.1011V15.6243C46.4956 7.37021 39.7734 0.648016 31.5097 0.648016C23.2476 0.648016 16.5254 7.37021 16.5254 15.6243V23.1011C16.5254 31.3781 23.2476 38.0774 31.5097 38.0774Z" fill="#7880C8"/>
<path d="M47.3483 58.133H43.9043V61.5859H40.4063V58.133H36.9596V54.6349H40.4063V51.2045H43.9043V54.6349H47.3483V58.133ZM47.3483 52.3781H46.177V51.2045C46.177 49.9406 45.1614 48.9251 43.9066 48.9251H40.4063C39.8037 48.9251 39.2237 49.1735 38.7971 49.5797C38.371 50.0085 38.1314 50.5951 38.1314 51.2045V52.3781H36.9596C35.7032 52.3781 34.6865 53.3936 34.6865 54.6349V58.133C34.6865 59.3968 35.7032 60.4126 36.9596 60.4126H38.1314V61.5859C38.1314 62.8498 39.1492 63.8655 40.4063 63.8655H43.9043C45.1592 63.8655 46.177 62.8498 46.177 61.5859V60.4126H47.3483C48.6053 60.4126 49.6209 59.3968 49.6209 58.133V54.6349C49.6209 53.3936 48.6053 52.3781 47.3483 52.3781Z" fill="#5C2D56"/>
</svg>
