<svg width="45" height="82" viewBox="0 0 45 82" fill="none" xmlns="http://www.w3.org/2000/svg">
<path d="M36.1619 36.3356C35.0618 40.5675 30.8815 43.8952 26.4977 43.8952L24.805 43.8952L24.805 45.0254L24.771 45.0254C24.771 46.9969 23.1725 48.6042 21.1997 48.6042C19.2282 48.6042 17.6284 46.9969 17.6284 45.0254L17.5945 45.0254L17.5945 43.8952L15.9018 43.8952C11.518 43.8952 7.33761 40.5675 6.23633 36.3356L36.1619 36.3356Z" fill="#FFFFF7"/>
<path d="M20.9888 36.3359L6.23633 36.3359C7.33761 40.5677 11.518 43.8955 15.9018 43.8955L17.5945 43.8955L17.5945 45.0256L17.6284 45.0256C17.6284 46.9344 19.1177 48.4663 20.9888 48.5793L20.9888 36.3359Z" fill="#FBFAB7"/>
<path d="M29.8164 36.3356C29.2626 40.5675 27.1592 43.8952 24.9529 43.8952L24.1015 43.8952L24.1015 45.0254L24.0839 45.0254C24.0839 46.9969 23.2803 48.6042 22.2882 48.6042C21.2949 48.6042 19.1652 46.9969 19.1652 45.0254L19.1489 43.8952L19.621 43.8952C17.4147 43.8952 15.3113 40.5675 14.7588 36.3356L29.8164 36.3356Z" fill="#B8C2E9"/>
<path d="M36.3338 37.5913L36.163 37.5913C35.4711 37.5913 34.9072 37.0262 34.9072 36.3356C34.9072 35.6324 35.4711 35.0798 36.163 35.0798L36.3338 35.0798C37.0269 35.0798 37.5895 35.6324 37.5895 36.3356C37.5895 37.0262 37.0269 37.5913 36.3338 37.5913Z" fill="#5C2D56"/>
<path d="M6.23586 37.5918L5.64441 37.5918C4.95124 37.5918 4.38867 37.0267 4.38867 36.3361C4.38867 35.6328 4.95124 35.0803 5.64441 35.0803L6.23586 35.0803C6.93028 35.0803 7.4916 35.6328 7.4916 36.3361C7.4916 37.0267 6.93028 37.5918 6.23586 37.5918Z" fill="#5C2D56"/>
<path d="M21.2006 46.5065C20.3856 46.5065 19.7226 45.8409 19.7226 45.0247C19.7226 44.9117 19.71 44.7861 19.6874 44.6605L19.6874 44.2461L22.7137 44.2461L22.7137 44.648C22.6911 44.7736 22.6798 44.8991 22.6798 45.0247C22.6798 45.8409 22.0155 46.5065 21.2006 46.5065ZM14.9558 41.7346C12.8398 41.4333 10.8344 40.1775 9.53222 38.4194L32.8676 38.4194C31.5679 40.1775 29.5625 41.4333 27.4466 41.7346L14.9558 41.7346ZM32.2209 55.8994L25.6898 55.8994C24.9967 55.8994 24.4341 56.4644 24.4341 57.1551C24.4341 57.8583 24.9967 58.4108 25.6898 58.4108L32.2209 58.4108C37.6194 58.4108 42.0107 63.032 42.0107 68.7205C42.0107 74.1077 37.6194 78.5027 32.2209 78.5027L32.2197 78.5027C26.8225 78.5027 22.4312 74.1077 22.4312 68.7205L22.4312 50.55C24.6564 50.0477 26.3981 48.2519 26.7848 45.979C31.9899 45.8534 36.8609 41.9732 38.1895 36.8498L38.1932 36.8373C38.2761 36.5233 38.3477 36.1969 38.3992 35.8829L42.1802 12.8401C42.6461 10.0021 41.9391 7.31486 40.1911 5.24288C38.4444 3.19603 35.899 2.06577 33.0233 2.06577C31.8681 2.06577 30.9313 2.99509 30.9313 4.15037C30.9313 5.30565 31.8681 6.24748 33.0233 6.24748C34.6495 6.24748 36.0623 6.85018 37.0015 7.95524C37.9408 9.07285 38.3138 10.5672 38.0501 12.162L34.4273 34.2378L7.9751 34.2378L4.35104 12.162C4.08733 10.5672 4.45904 9.0728 5.39959 7.96775C6.33763 6.85013 7.75033 6.24748 9.37777 6.24748C10.533 6.24748 11.4698 5.30565 11.4698 4.15037C11.4698 2.99509 10.533 2.06577 9.37777 2.06577C6.50212 2.06577 3.95674 3.19598 2.20875 5.25539C0.462019 7.31481 -0.244973 10.0021 0.220907 12.8526L4.00321 35.8829C4.05344 36.1969 4.12751 36.5234 4.20788 36.8247L4.21165 36.8498C5.54274 41.9732 10.4138 45.8534 15.6175 45.979C15.9993 48.2393 17.7184 50.0225 19.9197 50.5248L19.9197 68.7205C19.9197 75.5015 25.4374 81.0142 32.2197 81.0142L32.2209 81.0142C39.0032 81.0142 44.5222 75.5015 44.5222 68.7205C44.5222 61.6507 39.0032 55.8994 32.2209 55.8994Z" fill="#7880C8"/>
<path d="M15.4083 56.9043H3.7998" stroke="#7880C8" stroke-width="1.4" stroke-linecap="round"/>
<path d="M15.1428 7.66797C16.2994 7.66797 17.2362 6.72614 17.2362 5.57086L17.2362 2.74544C17.2362 1.59016 16.2994 0.648333 15.1428 0.648333C13.9876 0.648333 13.0508 1.59016 13.0508 2.74544L13.0508 5.57086C13.0508 6.72614 13.9876 7.66797 15.1428 7.66797Z" fill="#7880C8"/>
<path d="M27.3804 7.66748C28.537 7.66748 29.4737 6.72565 29.4737 5.57037L29.4737 2.74496C29.4737 1.58967 28.537 0.647845 27.3804 0.647845C26.2239 0.647845 25.2871 1.58967 25.2871 2.74496L25.2871 5.57037C25.2871 6.72565 26.2239 7.66748 27.3804 7.66748Z" fill="#7880C8"/>
<path d="M2.38561 60.5667C3.65887 60.5667 4.69019 59.536 4.69019 58.2717L4.69019 55.1797C4.69019 53.9154 3.65887 52.8848 2.38561 52.8848C1.11236 52.8848 0.0810548 53.9154 0.0810548 55.1797L0.0810547 58.2717C0.0810547 59.536 1.11236 60.5667 2.38561 60.5667Z" fill="#7880C8"/>
</svg>
