<svg width="75" height="76" viewBox="0 0 75 76" fill="none" xmlns="http://www.w3.org/2000/svg">
<path d="M12.8722 4.50634L3.87988 13.5037L48.8955 58.5155L55.8089 58.503L68.6822 71.385L70.7511 69.3174L57.8778 56.4479L57.8903 49.5307L12.8722 4.50634Z" fill="#F1F1FC"/>
<path d="M69.7158 70.3522L8.37489 9.01017L3.87988 13.5114L48.895 58.524L55.8095 58.5115L68.6818 71.3901L69.7158 70.3522Z" fill="#FBFAB7"/>
<path d="M11.4101 5.98913L6.57031 10.8226L51.5846 55.8393L56.8989 57.4296L69.7716 70.3022L70.8835 69.1879L58.0109 56.3152L56.4243 51.0058L11.4101 5.98913Z" fill="#A7B4E4"/>
<path d="M28.8083 34.6543L7.91797 13.7641L8.71541 12.9654L29.6069 33.8557L28.8083 34.6543Z" fill="#F46970"/>
<path d="M29.6087 33.8547L8.71777 12.97L13.051 8.63046L33.9395 29.5276L29.6087 33.8547Z" fill="#E0738E"/>
<path d="M68.6798 71.3942L64.066 66.7741L66.135 64.715L70.7489 69.3352L68.6798 71.3942ZM55.8074 58.5255L48.8922 58.538L3.8782 13.5166L12.8725 4.51475L16.5259 8.18078L15.509 9.19767C15.0532 9.64964 15.0532 10.3905 15.509 10.8424C15.7349 11.0559 16.0338 11.1814 16.3326 11.1814C16.6289 11.1814 16.9252 11.0559 17.1537 10.8424L18.1718 9.82541L22.7129 14.3578L21.6947 15.3873C21.2402 15.8267 21.2402 16.5674 21.6947 17.0319C21.922 17.2579 22.2183 17.3709 22.5171 17.3709C22.8146 17.3709 23.1134 17.2579 23.3394 17.0319L24.3576 16.0024L28.8987 20.5473L27.8805 21.5641C27.4273 22.0161 27.4273 22.7569 27.8805 23.2089C28.1077 23.4474 28.4065 23.5479 28.7053 23.5479C29.0016 23.5479 29.2992 23.4474 29.5277 23.2089L30.5446 22.1919L35.0857 26.7368L34.0675 27.7538C33.613 28.2183 33.613 28.9464 34.0675 29.3984C34.2947 29.6244 34.5923 29.7374 34.8911 29.7374C35.1886 29.7374 35.4849 29.6244 35.7134 29.3984L36.7316 28.3815L41.2727 32.9262L40.2545 33.9433C39.8 34.3952 39.8 35.1234 40.2545 35.5879C40.4818 35.8139 40.7806 35.9269 41.0769 35.9269C41.3744 35.9269 41.6732 35.8139 41.8979 35.5879L42.9174 34.571L47.4584 39.1032L46.4403 40.1327C45.987 40.5847 45.987 41.3254 46.4403 41.7774C46.6675 42.0034 46.9663 42.1164 47.2651 42.1164C47.5602 42.1164 47.8589 42.0034 48.0874 41.7774L49.1031 40.7605L53.6455 45.2927L52.6285 46.3097C52.1728 46.7617 52.1728 47.5024 52.6285 47.9544C52.8558 48.1929 53.152 48.3059 53.4509 48.3059C53.7484 48.3059 54.0447 48.1929 54.2732 47.9544L55.2902 46.9375L57.889 49.5363L57.8764 56.454L64.4891 63.0704L62.4213 65.1293L55.8074 58.5255ZM73.4921 66.5857L61.7559 54.847L61.7672 49.5363C61.7697 48.5194 61.3604 47.5275 60.631 46.7993L15.6157 1.77783C14.8574 1.02455 13.8643 0.6479 12.8725 0.6479C11.8781 0.6479 10.8863 1.02455 10.1292 1.77783L1.13496 10.767C0.406781 11.5078 0 12.4871 0 13.5166C0 14.5461 0.406781 15.5254 1.13496 16.2661L46.1515 61.2751C46.8797 62.0033 47.8665 62.4175 48.8922 62.4175H48.8997L54.2041 62.405L65.9379 74.1311C66.6648 74.8719 67.6504 75.2737 68.6798 75.2737C69.7093 75.2737 70.6962 74.8719 71.4243 74.1311L73.4921 72.0722C75.0075 70.5531 75.005 68.0923 73.4921 66.5857Z" fill="#7880C8"/>
<path d="M13.675 12.6533C13.2206 12.2039 12.484 12.2039 12.0284 12.6533C11.5752 13.1152 11.5752 13.8518 12.0284 14.3137L50.2491 52.5269C50.4763 52.7516 50.7747 52.864 51.0705 52.864C51.3677 52.864 51.666 52.7516 51.8945 52.5269C52.3477 52.0775 52.3477 51.3409 51.8945 50.879L13.675 12.6533Z" fill="#7880C8"/>
</svg>
