<svg width="66" height="66" viewBox="0 0 66 66" fill="none" xmlns="http://www.w3.org/2000/svg">
<path d="M18.5379 21.9059C16.8156 21.9059 15.4179 20.5081 15.4179 18.7948C15.4179 17.0815 16.8156 15.6839 18.5379 15.6839C20.2602 15.6839 21.6578 17.0815 21.6578 18.7948C21.6578 20.5081 20.2602 21.9059 18.5379 21.9059ZM60.8671 35.0259L41.1441 15.3006C39.4173 13.5648 36.0787 12.2348 33.5584 12.2348C33.4411 12.2348 33.3239 12.2348 33.2089 12.2348L17.7173 13.0463C15.1609 13.1816 12.9607 15.3908 12.8277 17.9382L12.0206 33.4254C11.8876 35.9953 13.2583 39.5572 15.0707 41.3606L34.7915 61.0859C35.6955 61.9876 36.888 62.4385 38.0805 62.4385C39.2731 62.4385 40.4656 61.9876 41.3718 61.0859L60.8671 41.5861C62.6751 39.7826 62.6751 36.8293 60.8671 35.0259Z" fill="#FFFFF7"/>
<path d="M20.7888 21.013C19.579 22.2296 17.6235 22.2296 16.416 21.013C15.2084 19.819 15.2084 17.8589 16.416 16.6424L14.3636 14.5923C13.4782 15.471 12.8947 16.6651 12.8272 17.9492L12.0206 33.4262C11.8877 35.9945 13.2597 39.5542 15.0688 41.379L34.7904 61.0916C35.6938 61.9928 36.8878 62.4434 38.0796 62.4434C39.2713 62.4434 40.4653 61.9928 41.371 61.0916L51.1192 51.3365L20.7888 21.013Z" fill="#FBFAB7"/>
<path d="M20.7888 21.0246C19.5806 22.2193 17.6241 22.2193 16.4159 21.0246C15.2077 19.8075 15.2077 17.8464 16.4182 16.6517C17.6218 15.4345 19.5806 15.4345 20.7888 16.6517C21.9969 17.8464 21.9969 19.8075 20.7888 21.0246ZM59.4388 36.4424L39.7182 16.7195C37.9893 14.9839 34.8156 13.4962 32.4985 13.2933C32.388 13.2933 32.2821 13.2932 32.1761 13.2707L18.005 12.7749C15.6653 12.6848 13.8215 14.533 13.9072 16.8547L14.4188 31.0327C14.5045 33.3769 16.053 36.7579 17.8608 38.5837L37.5836 58.3065C38.4875 59.2082 39.6212 59.7264 40.7167 59.8166C41.8144 59.9067 42.8738 59.5913 43.6312 58.8249L59.9707 42.4831C61.4877 40.9729 61.2488 38.2456 59.4388 36.4424Z" fill="#A7B4E4"/>
<path d="M42.3412 48.0808C42.0696 48.0808 41.8138 47.9686 41.6252 47.7891L37.9038 44.063L34.1846 47.7891C33.9938 47.9686 33.7356 48.0808 33.4663 48.0808C33.1992 48.0808 32.9411 47.9686 32.7503 47.7891L28.2455 43.2774C27.8505 42.8734 27.8505 42.2451 28.2455 41.841L31.9647 38.115L28.2455 34.4115C27.8505 34.0075 27.8505 33.3567 28.2455 32.9751L32.7481 28.4635C32.9456 28.2615 33.2059 28.1717 33.464 28.1717C33.7244 28.1717 33.9848 28.2615 34.1801 28.4635L37.9038 32.1895L41.623 28.4635C41.8205 28.2615 42.0786 28.1717 42.339 28.1717C42.5971 28.1717 42.8575 28.2615 43.055 28.4635L47.5575 32.9751C47.9548 33.3567 47.9548 34.0075 47.5575 34.4115L43.8406 38.115L47.5598 41.841C47.9548 42.2451 47.9548 42.8734 47.5598 43.2774L43.055 47.7891C42.8664 47.9686 42.6106 48.0808 42.3412 48.0808Z" fill="#F3658C"/>
<path d="M33.4654 27.159C32.9468 27.159 32.4282 27.361 32.033 27.7426L27.5292 32.2555C26.7389 33.0414 26.7389 34.321 27.5292 35.1293L30.5333 38.1153L27.5292 41.1239C26.7389 41.9097 26.7389 43.2119 27.5292 43.9977L32.0353 48.488C32.4147 48.8697 32.9311 49.0942 33.4677 49.0942C34.0043 49.0942 34.5207 48.8697 34.9001 48.488L37.9041 45.502L40.9081 48.488C41.2876 48.8697 41.804 49.0942 42.3406 49.0942C42.8771 49.0942 43.3913 48.8697 43.773 48.488L48.2745 43.9977C49.067 43.2119 49.067 41.9097 48.2745 41.1239L45.2727 38.1153L48.2745 35.1293C49.067 34.321 49.067 33.0414 48.2745 32.2555L43.7707 27.7426C43.3756 27.361 42.8569 27.159 42.3383 27.159C41.8197 27.159 41.301 27.361 40.9081 27.7426L37.9041 30.7512L34.8978 27.7426C34.5005 27.361 33.9841 27.159 33.4654 27.159ZM42.3383 29.1796L46.8421 33.6923L42.4079 38.1153L46.8443 42.5607L42.3406 47.0736L37.9041 42.6282L33.4677 47.0736L28.9617 42.5607L33.3981 38.1153L28.9617 33.6923L33.4654 29.1796L37.9041 33.625L42.3383 29.1796Z" fill="#7880C8"/>
<path d="M18.2025 19.757C18.3314 19.8249 18.4671 19.8476 18.6005 19.8476C18.994 19.8476 19.3671 19.6214 19.5322 19.2369C19.7538 18.7168 19.5164 18.1288 19.003 17.9026C18.4806 17.6765 17.9243 17.4277 17.3522 17.1789C17.7118 16.9076 18.1437 16.7494 18.6027 16.7494C19.1591 16.7494 19.6814 16.9756 20.0727 17.36C20.4639 17.7445 20.681 18.2646 20.681 18.8299C20.681 19.3953 20.4639 19.9154 20.0727 20.2999C19.288 21.0914 17.9175 21.0914 17.1306 20.2999C16.7778 19.938 16.5901 19.5082 16.5449 19.0333C17.3612 19.3952 17.9537 19.6666 18.2025 19.757ZM60.8642 41.6023L41.3708 61.0958C40.4662 62.0004 39.2722 62.4527 38.0781 62.4527C36.8864 62.4527 35.6946 62.0004 34.79 61.0958L15.0681 41.3761C13.259 39.567 11.8886 35.9941 12.0197 33.4386L12.8271 17.9479C12.8361 17.767 12.8791 17.586 12.9108 17.4051C13.4874 17.6538 14.0437 17.9254 14.5638 18.1515C14.3535 19.4179 14.7289 20.7521 15.6991 21.7245C16.4748 22.516 17.506 22.9455 18.6027 22.9455C19.6995 22.9455 20.7285 22.516 21.5042 21.7245C23.1075 20.1415 23.1053 17.5181 21.5042 15.9351C20.7285 15.1436 19.6995 14.7366 18.6027 14.7366C17.506 14.7366 16.4748 15.1436 15.6991 15.9351C15.5838 16.0482 15.4933 16.184 15.3938 16.2971C14.8171 16.0483 14.2314 15.777 13.6457 15.5056C14.5345 14.1261 16.0406 13.1312 17.7163 13.0633L33.207 12.2491C33.3224 12.2491 33.4399 12.2491 33.5575 12.2491C36.079 12.2491 39.4146 13.5607 41.1446 15.302L60.8642 35.0216C62.6756 36.8308 62.6756 39.7932 60.8642 41.6023ZM3.73615 10.1913C2.90621 9.35453 2.44715 8.24648 2.44715 7.07054C2.44715 5.8946 2.90395 4.80907 3.73615 3.97234C4.56836 3.13562 5.6742 2.68329 6.8524 2.68329C8.02834 2.68329 9.13418 3.13562 9.96639 3.97234C10.378 4.3794 11.4114 5.82662 13.8108 10.7791C12.4585 11.548 11.3278 12.6788 10.5543 14.0357C7.30921 12.4753 4.51408 10.9828 3.73615 10.1913ZM63.2523 32.6246L43.5327 12.905C41.1853 10.5531 36.9926 8.85693 33.5575 8.85693C33.3857 8.85693 33.2183 8.85706 33.0532 8.87968L17.5399 9.6937C16.9022 9.71632 16.2825 9.82947 15.6833 10.0104C12.7095 3.85931 11.7348 2.86416 11.4001 2.52494C10.1857 1.32639 8.57108 0.648009 6.8524 0.648009C5.13598 0.648009 3.51906 1.32639 2.30242 2.52494C1.08803 3.74611 0.420898 5.35185 0.420898 7.07054C0.420898 8.78922 1.08804 10.4173 2.30468 11.6384C3.3178 12.6335 6.50415 14.3296 9.77191 15.9126C9.6023 16.5006 9.48696 17.1338 9.4553 17.767L8.64796 33.2578C8.46478 36.763 10.1993 41.2857 12.6801 43.7506L32.402 63.4703C33.9148 64.9855 35.932 65.8223 38.0781 65.8223C40.2287 65.8223 42.2437 64.9855 43.7566 63.4703L63.2546 43.9768C64.7652 42.4616 65.5997 40.4491 65.5997 38.3007C65.5997 36.1524 64.7652 34.1398 63.2523 32.6246Z" fill="#7880C8"/>
</svg>
