<svg width="74" height="45" viewBox="0 0 74 45" fill="none" xmlns="http://www.w3.org/2000/svg">
<path opacity="0.8" d="M1 24.8279H10.8655C11.0171 24.8279 11.1595 24.7605 11.2575 24.6448C11.9774 23.7953 15.1107 20.2832 17.6316 20.3755C20.0105 20.4626 22.8944 23.7982 23.5837 24.6377C23.6816 24.757 23.8271 24.8279 23.9815 24.8279H30.3621C30.5582 24.8279 30.7363 24.9427 30.8174 25.1213L32.4888 28.8034C32.6965 29.2611 33.3738 29.1606 33.4397 28.6624L36.9787 1.93166C37.0578 1.33385 37.9318 1.36136 37.9732 1.96295L40.8143 43.2428C40.8563 43.8527 41.7468 43.8685 41.8104 43.2604L43.69 25.276C43.7166 25.0213 43.9313 24.8279 44.1873 24.8279H50.1813C50.3619 24.8279 50.5278 24.7321 50.6214 24.5776C51.2689 23.5095 53.9501 19.3817 56.7895 19.2624C59.7551 19.1378 62.6905 23.4954 63.3765 24.5841C63.4711 24.7342 63.6353 24.8279 63.8127 24.8279H73" stroke="#9299D2" stroke-width="2" stroke-linecap="round"/>
</svg>
