<svg width="71" height="71" viewBox="0 0 71 71" fill="none" xmlns="http://www.w3.org/2000/svg">
<path d="M46.0584 40.0925L39.7725 46.3772L60.8255 67.4354C61.6187 68.1992 62.7241 68.6575 63.9178 68.6575C66.352 68.6575 68.3247 66.6826 68.3247 64.2494C68.3247 63.0492 67.8829 61.9363 67.1114 61.1398L46.0584 40.0925Z" fill="#FBFAB7"/>
<path d="M47.6029 40.0925L42.6133 43.5404L63.6664 64.5989C64.4607 65.3627 65.5649 65.8101 66.7586 65.8101C69.1928 65.8101 68.644 65.4609 68.644 63.0277C68.644 61.8275 68.7695 61.2601 68.7695 61.2601L47.6029 40.0925Z" fill="#A7B4E4"/>
<path d="M9.15186 43.4096C18.5169 52.7713 33.7019 52.7713 43.0648 43.4096C52.4287 34.0478 52.4287 18.8595 43.0648 9.49772C33.7019 0.135953 18.5169 0.135953 9.15186 9.49772C-0.21208 18.8595 -0.21208 34.0478 9.15186 43.4096Z" fill="#FFFFF7"/>
<path d="M26.0485 7.79645C21.2738 7.81828 16.5056 9.65132 12.8722 13.3065C5.6076 20.6169 5.64469 32.4215 12.9497 39.6893C16.6082 43.3227 21.3851 45.1339 26.1609 45.1121L26.0485 7.79645Z" fill="#FBFAB7"/>
<path d="M37.6392 13.2294C32.1596 5.96151 23.3107 5.9844 17.8758 13.2938C12.4388 20.5944 12.4748 32.4112 17.9544 39.678C23.434 46.9448 32.2818 46.923 37.7199 39.6125C43.1537 32.313 43.1188 20.4962 37.6392 13.2294Z" fill="#A7B4E4"/>
<path d="M17.2815 38.7178C16.6312 38.2486 16.0092 37.7249 15.4233 37.1357C9.52688 31.2327 9.52688 21.6745 15.4233 15.7716C15.9896 15.2031 16.5897 14.7023 17.216 14.244C12.666 21.2599 12.6955 31.7237 17.2815 38.7178Z" fill="#F46970"/>
<path d="M26.105 41.5659C23.0062 41.5659 19.9075 40.6166 17.2801 38.7181C12.6941 31.7241 12.6647 21.2602 17.2146 14.2444C19.8562 12.3131 22.9801 11.3529 26.105 11.3529C29.9708 11.3529 33.8367 12.8259 36.7859 15.7719C42.6845 21.6749 42.6845 31.2331 36.7859 37.136C33.8367 40.082 29.9708 41.5659 26.105 41.5659Z" fill="#CA657D"/>
<path d="M63.9189 66.8356C63.2238 66.8356 62.5582 66.5737 62.1142 66.1373L42.4206 46.4535C43.0884 45.897 43.7321 45.3187 44.3508 44.6957C44.9793 44.0749 45.5706 43.4093 46.126 42.7328L65.8065 62.4166C66.2495 62.8639 66.5026 63.5404 66.5026 64.2497C66.5026 65.679 65.3439 66.8356 63.9189 66.8356ZM10.4378 42.1217C1.79946 33.479 1.79946 19.4265 10.4378 10.7848C14.6233 6.60581 20.1869 4.30356 26.1062 4.30356C32.0244 4.30356 37.5891 6.60581 41.7747 10.7848C45.9591 14.9747 48.2635 20.5394 48.2635 26.4533C48.2635 32.3781 45.9591 37.9427 41.7747 42.1217C37.5891 46.3116 32.0244 48.6139 26.1062 48.6139C20.1869 48.6139 14.6222 46.3116 10.4378 42.1217ZM68.4011 59.8524L48.2548 39.7104C50.6367 35.7496 51.9079 31.1997 51.9079 26.4533C51.9079 19.5672 49.2248 13.0871 44.3508 8.20975C39.4779 3.33244 32.9988 0.648311 26.1062 0.648311C19.2148 0.648311 12.7336 3.33244 7.86065 8.20975C-2.19834 18.2699 -2.19834 34.6367 7.86065 44.6957C12.7336 49.573 19.2148 52.2583 26.1062 52.2583C30.8657 52.2583 35.4266 50.9816 39.3993 48.5812L59.5555 68.7342C60.7088 69.858 62.2582 70.48 63.9189 70.48C67.3537 70.48 70.1469 67.6867 70.1469 64.2497C70.1469 62.5912 69.5173 60.9981 68.4011 59.8524Z" fill="#7880C8"/>
<path d="M38.5249 38.8807C35.2069 42.1977 30.7966 44.0199 26.1048 44.0199C21.4119 44.0199 17.0005 42.1977 13.6824 38.8807C6.83679 32.0284 6.83679 20.888 13.6824 14.0358C17.0005 10.7188 21.4119 8.8857 26.1048 8.8857C30.7966 8.8857 35.2069 10.7188 38.5249 14.0358C45.3728 20.888 45.3728 32.0284 38.5249 38.8807ZM40.071 12.4864C36.3405 8.75477 31.3803 6.70345 26.1048 6.70345C20.8292 6.70345 15.8691 8.75477 12.1375 12.4864C4.43856 20.1897 4.43856 32.7159 12.1375 40.4192C15.8691 44.1497 20.8292 46.2021 26.1048 46.2021C31.3803 46.2021 36.3405 44.1497 40.071 40.4192C47.7721 32.7268 47.7721 20.1897 40.071 12.4864Z" fill="#7880C8"/>
<path d="M33.0206 16.3169L22.1891 27.1404C21.7625 27.5768 21.7625 28.2642 22.1891 28.6898C22.4041 28.908 22.6834 29.0171 22.9627 29.0171C23.2432 29.0171 23.5225 28.908 23.7353 28.6898L34.5667 17.8554C34.9944 17.4298 34.9944 16.7425 34.5667 16.3169C34.1401 15.8914 33.4472 15.8914 33.0206 16.3169Z" fill="#7880C8"/>
<path d="M30.0179 26.2135L22.1891 34.0368C21.7625 34.4624 21.7625 35.1486 22.1891 35.5862C22.4041 35.7935 22.6834 35.9026 22.9627 35.9026C23.2432 35.9026 23.5225 35.7935 23.7353 35.5862L31.564 27.7509C31.9917 27.3264 31.9917 26.639 31.564 26.2135C31.1374 25.7771 30.4445 25.7771 30.0179 26.2135Z" fill="#7880C8"/>
<path d="M18.803 30.5348L16.5444 32.7934C16.1167 33.2189 16.1167 33.9063 16.5444 34.3308C16.7572 34.5501 17.0365 34.6592 17.3169 34.6592C17.5963 34.6592 17.8767 34.5501 18.0905 34.3308L20.3491 32.0733C20.7758 31.6477 20.7758 30.9603 20.3491 30.5348C19.9214 30.0983 19.2286 30.0983 18.803 30.5348Z" fill="#7880C8"/>
</svg>
