<svg width="78" height="66" viewBox="0 0 78 66" fill="none" xmlns="http://www.w3.org/2000/svg">
<path d="M73.8225 54.8583C73.8225 58.3979 70.9301 61.2678 67.3905 61.2678H10.5804C7.04077 61.2678 4.14844 58.3979 4.14844 54.8583V20.8328C4.14844 17.2931 7.04077 14.3912 10.5804 14.3912H67.3905C70.9301 14.3912 73.8225 17.2931 73.8225 20.8328V54.8583Z" fill="#F1F1FC"/>
<path d="M62.8399 14.3912C66.1213 14.3912 68.8063 17.2931 68.8063 20.8328V54.8583C68.8063 58.3979 66.1213 61.2678 62.8399 61.2678H10.1149C6.83351 61.2678 4.14844 58.3979 4.14844 54.8583V20.8328C4.14844 17.2931 6.83351 14.3912 10.1149 14.3912H62.8399Z" fill="#FBFAB7"/>
<path d="M65.4833 14.3912C68.5638 14.3912 71.083 17.2931 71.083 20.8328V54.8583C71.083 58.3979 68.5638 61.2678 65.4833 61.2678H15.9886C12.9049 61.2678 10.3857 58.3979 10.3857 54.8583V20.8328C10.3857 17.2931 12.9049 14.3912 15.9886 14.3912H65.4833Z" fill="#A7B4E4"/>
<path d="M10.3834 22.1309C9.71732 22.1309 9.17871 21.5891 9.17871 20.9199V18.689C9.17871 18.0197 9.71732 17.478 10.3834 17.478H17.6179C18.2839 17.478 18.8226 18.0197 18.8226 18.689V20.9199C18.8226 21.5891 18.2839 22.1309 17.6179 22.1309H10.3834Z" fill="#F1F1FC"/>
<path d="M60.3544 22.1309C59.6883 22.1309 59.1465 21.5891 59.1465 20.9199V18.689C59.1465 18.0197 59.6883 17.478 60.3544 17.478H67.5856C68.2517 17.478 68.7935 18.0197 68.7935 18.689V20.9199C68.7935 21.5891 68.2517 22.1309 67.5856 22.1309H60.3544Z" fill="#F1F1FC"/>
<path d="M35.3106 53.2285C34.646 53.2285 34.1054 52.688 34.1054 52.0202V45.9783H28.0763C27.4117 45.9783 26.8711 45.4375 26.8711 44.7697V37.4242C26.8711 36.7564 27.4117 36.2476 28.0763 36.2476H34.1054V30.2057C34.1054 29.5379 34.646 28.9974 35.3106 28.9974H42.6562C43.324 28.9974 43.8615 29.5379 43.8615 30.2057V36.2476H49.8906C50.5552 36.2476 51.0958 36.7564 51.0958 37.4242V44.7697C51.0958 45.4375 50.5552 45.9783 49.8906 45.9783H43.8615V52.0202C43.8615 52.688 43.324 53.2285 42.6562 53.2285H35.3106Z" fill="#E0738E"/>
<path d="M49.8919 44.7755H42.6591V52.0273H35.3117V44.7755H28.0789V37.428H35.3117V30.2078H42.6591V37.428H49.8919V44.7755ZM49.8919 35.0108H45.0669V30.2078C45.0669 28.8719 43.9886 27.7906 42.6591 27.7906H35.3117C33.9822 27.7906 32.904 28.8719 32.904 30.2078V35.0108H28.0789C26.7494 35.0108 25.668 36.0921 25.668 37.428V44.7755C25.668 46.1114 26.7494 47.1927 28.0789 47.1927H32.904V52.0273C32.904 53.3314 33.9822 54.4128 35.3117 54.4128H42.6591C43.9886 54.4128 45.0669 53.3314 45.0669 52.0273V47.1927H49.8919C51.2215 47.1927 52.3029 46.1114 52.3029 44.7755V37.428C52.3029 36.0921 51.2215 35.0108 49.8919 35.0108Z" fill="#7880C8"/>
<path d="M73.8214 54.8641C73.8214 58.3811 70.9279 61.2908 67.3917 61.2908H10.5795C7.04013 61.2908 4.1466 58.3811 4.1466 54.8641V25.769C4.1466 23.4669 5.80279 21.5165 7.98652 21.0689C8.06006 22.3478 9.09917 23.3392 10.3845 23.3392H17.6167C18.9404 23.3392 20.0082 22.2839 20.0242 20.9731H57.9438C57.9598 22.2839 59.0309 23.3392 60.3513 23.3392H67.5835C68.8688 23.3392 69.9112 22.3478 69.9847 21.0689C72.1684 21.5165 73.8214 23.4669 73.8214 25.769V54.8641ZM17.6167 18.671V20.9412H10.3845V18.671H17.6167ZM67.5835 18.671V20.9412H60.3513V18.671H67.5835ZM10.5795 14.3868H24.9192V15.3138C24.9192 16.4329 25.8209 17.3284 26.9303 17.3284C28.0398 17.3284 28.9382 16.4329 28.9382 15.3138V14.3868H49.033V14.8343C49.033 15.9533 49.9315 16.8488 51.0409 16.8488C52.1504 16.8488 53.052 15.9533 53.052 14.8343V14.3868H67.3917C70.7808 14.3868 73.5496 17.0725 73.7767 20.3976C72.7343 19.4704 71.4363 18.831 69.9911 18.6391C69.9591 17.3283 68.8976 16.273 67.5835 16.273H60.3513C59.066 16.273 58.0237 17.2963 57.9534 18.5433H20.0146C19.9475 17.2963 18.9052 16.273 17.6167 16.273H10.3845C9.07039 16.273 8.0089 17.3283 7.98012 18.6391C6.53176 18.831 5.23688 19.4704 4.19137 20.3976C4.42157 17.0725 7.1904 14.3868 10.5795 14.3868ZM28.9382 7.51271C28.9382 5.97802 30.1788 4.76287 31.7039 4.76287H46.2674C47.7893 4.76287 49.033 5.97802 49.033 7.51271V10.3902H28.9382V7.51271ZM67.3917 10.3902H53.052V7.51271C53.052 3.77191 50.0082 0.734446 46.2674 0.734446H31.7039C27.9631 0.734446 24.9192 3.77191 24.9192 7.51271V10.3902H10.5795C4.81483 10.3902 0.130859 15.0581 0.130859 20.8132V54.8641C0.130859 60.6192 4.81483 65.2874 10.5795 65.2874H67.3917C73.1532 65.2874 77.8404 60.6192 77.8404 54.8641V20.8132C77.8404 15.0581 73.1532 10.3902 67.3917 10.3902Z" fill="#7880C8"/>
</svg>
