<svg width="79" height="71" viewBox="0 0 79 71" fill="none" xmlns="http://www.w3.org/2000/svg">
<path d="M74.1918 51.7461C74.1918 53.9717 72.3622 55.8049 70.128 55.8049H8.16016C5.92603 55.8049 4.09766 53.9717 4.09766 51.7461V8.77567C4.09766 6.53909 5.92603 4.71683 8.16016 4.71683H70.128C72.3622 4.71683 74.1918 6.53909 74.1918 8.77567V51.7461Z" fill="#F1F1FC"/>
<path d="M52.6636 68.8953H25.6279V57.8713H52.6636V68.8953Z" fill="#FFFFF7"/>
<path d="M32.7524 70.5691H26.9385V58.604H32.7524V70.5691Z" fill="#FBFAB7"/>
<path d="M9.91152 57.4802H4.09766V45.5151H9.91152V57.4802Z" fill="#FBFAB7"/>
<path d="M71.0807 57.4802H9.91699V45.5151H71.0807V57.4802Z" fill="#A7B4E4"/>
<path d="M9.91152 8.05444H4.09766V2.07925H9.91152V8.05444Z" fill="#FBFAB7"/>
<path d="M71.0807 8.05444H9.91699V2.07925H71.0807V8.05444Z" fill="#A7B4E4"/>
<path d="M48.4531 68.8953H32.626V56.9302H48.4531V68.8953Z" fill="#A7B4E4"/>
<path d="M36.2763 36.9478C35.6029 36.9478 35.0578 36.41 35.0578 35.7256V31.3001H30.6287C29.9552 31.3001 29.4102 30.7513 29.4102 30.0779V24.3471C29.4102 23.6749 29.9552 23.1249 30.6287 23.1249H35.0578V18.7007C35.0578 18.0285 35.6029 17.4785 36.2763 17.4785H42.0083C42.6818 17.4785 43.2268 18.0285 43.2268 18.7007V23.1249H47.656C48.3282 23.1249 48.8745 23.6749 48.8745 24.3471V30.0779C48.8745 30.7513 48.3294 31.3001 47.656 31.3001H43.2268V35.7256C43.2268 36.41 42.6818 36.9478 42.0083 36.9478H36.2763Z" fill="#F3658C"/>
<path d="M47.6616 30.0774H42.014V35.7251H36.2819V30.0774H30.6343V24.3466H36.2819V18.7002H42.014V24.3466H47.6616V30.0774ZM47.6616 21.9145H44.4522V18.7002C44.4522 17.3558 43.3608 16.2681 42.014 16.2681H36.2819C34.9351 16.2681 33.8449 17.3558 33.8449 18.7002V21.9145H30.6343C29.2874 21.9145 28.1973 23.0022 28.1973 24.3466V30.0774C28.1973 31.4352 29.2874 32.5218 30.6343 32.5218H33.8449V35.7251C33.8449 37.0805 34.9351 38.1694 36.2819 38.1694H42.014C43.3608 38.1694 44.4522 37.0805 44.4522 35.7251V32.5218H47.6628C49.0072 32.5218 50.0986 31.4218 50.0986 30.0774V24.3466C50.0986 23.0022 49.0072 21.9145 47.6616 21.9145Z" fill="#7880C8"/>
<path d="M70.132 55.805H8.16408C5.92994 55.805 4.10157 53.9718 4.10157 51.7462V46.7365H74.1957V51.7462C74.1957 53.9718 72.3661 55.805 70.132 55.805ZM8.16408 4.71694H70.132C71.9652 4.71694 73.5076 5.95253 74.0087 7.62691H4.28731C4.7884 5.95253 6.33081 4.71694 8.16408 4.71694ZM4.10157 10.0591H74.1957V44.2922H4.10157V10.0591ZM27.6614 66.8645V59.8993H50.6346V66.8645H27.6614ZM70.132 0.648311H8.16408C3.68358 0.648311 0.0390625 4.29039 0.0390625 8.77577V51.7462C0.0390625 56.2206 3.68358 59.8627 8.16408 59.8627H23.5989V66.8645H20.9065C19.7845 66.8645 18.8752 67.7701 18.8752 68.8945C18.8752 70.0189 19.7845 70.9233 20.9065 70.9233H25.6302H52.6659H57.3908C58.5115 70.9233 59.4221 70.0189 59.4221 68.8945C59.4221 67.7701 58.5115 66.8645 57.3908 66.8645H54.6971V59.8627H70.132C74.6125 59.8627 78.2582 56.2206 78.2582 51.7462V8.77577C78.2582 4.29039 74.6125 0.648311 70.132 0.648311Z" fill="#7880C8"/>
<path d="M39.1473 52.0769C38.6694 52.0769 38.282 51.687 38.282 51.2104C38.282 50.7337 38.6694 50.3414 39.1473 50.3414C39.6239 50.3414 40.0126 50.7337 40.0126 51.2104C40.0126 51.687 39.6239 52.0769 39.1473 52.0769ZM39.1473 47.9105C37.325 47.9105 35.8438 49.3893 35.8438 51.2104C35.8438 53.0314 37.325 54.5212 39.1473 54.5212C40.9683 54.5212 42.4508 53.0314 42.4508 51.2104C42.4508 49.3893 40.9683 47.9105 39.1473 47.9105Z" fill="#7880C8"/>
</svg>
