<svg width="32" height="16" viewBox="0 0 32 16" fill="none" xmlns="http://www.w3.org/2000/svg">
<path opacity="0.7" d="M31.7326 7.3477L24.7387 0.269916C24.3835 -0.0899719 23.8136 -0.0899719 23.4584 0.269916C23.1031 0.629803 23.1031 1.20712 23.4584 1.56701L28.9055 7.08529H0.910316C0.407052 7.08529 0 7.49766 0 8.0075C0 8.51734 0.407052 8.92971 0.910316 8.92971H28.9055L23.4584 14.433C23.1031 14.7929 23.1031 15.3702 23.4584 15.7301C23.636 15.91 23.8654 16 24.1023 16C24.3391 16 24.5685 15.91 24.7461 15.7301L31.74 8.6448C32.0879 8.29241 32.0879 7.70759 31.7326 7.3477Z" fill="white"/>
</svg>
