<svg width="70" height="70" viewBox="0 0 70 70" fill="none" xmlns="http://www.w3.org/2000/svg">
<path d="M4.00195 50.6653L50.4188 4.24303L65.7006 19.527L19.2827 65.9385L4.00195 50.6653Z" fill="#F1F1FC"/>
<path d="M7.47168 54.1418L53.8896 7.71953L66.6027 19.2147L19.3786 66.0352L7.47168 54.1418Z" fill="#A7B4E4"/>
<path d="M3.98145 50.6546L50.3994 4.23225L53.8889 7.71961L7.47096 54.1418L3.98145 50.6546Z" fill="#FBFAB7"/>
<path d="M50.4193 67.7356C49.9597 67.7356 49.5001 67.5634 49.1493 67.2083L2.73238 20.7967C2.03061 20.0971 2.03061 18.9563 2.73238 18.2566L18.0131 2.9727C18.3639 2.61752 18.8236 2.44526 19.2832 2.44526C19.7428 2.44526 20.2034 2.61752 20.5543 2.9727L66.9701 49.3949C67.6719 50.0946 67.6719 51.2354 66.9701 51.935L51.6905 67.2083C51.3396 67.5634 50.88 67.7356 50.4193 67.7356Z" fill="#F1F1FC"/>
<path d="M53.9112 62.4507L7.49219 16.0392L19.3794 3.87677L66.1999 50.2936L53.9112 62.4507Z" fill="#A7B4E4"/>
<path d="M50.4188 65.9385L4.00195 19.527L7.49142 16.0396L53.9104 62.4511L50.4188 65.9385Z" fill="#FBFAB7"/>
<path d="M50.4187 65.9383L4.00182 19.5268L19.2826 4.24287L65.7005 50.6651L50.4187 65.9383ZM19.2826 65.9383L4.00182 50.6651L17.0287 37.6307L32.3105 52.9147L19.2826 65.9383ZM50.4187 4.24287L65.7005 19.5268L52.6725 32.5504L37.3919 17.2665L50.4187 4.24287ZM55.2127 35.0905L68.2406 22.0669C69.6453 20.6569 69.6453 18.3858 68.2406 16.9866L52.9599 1.70266C52.2592 1.00304 51.339 0.647872 50.4187 0.647872C49.4995 0.647872 48.5792 1.00304 47.8785 1.70266L34.8506 14.7263L21.8238 1.70266C21.1231 1.00304 20.2028 0.647872 19.2826 0.647872C18.3634 0.647872 17.4441 1.00304 16.7413 1.70266L1.46166 16.9866C0.0570494 18.3858 0.0570494 20.6569 1.46166 22.0669L14.4886 35.0905L1.46166 48.1142C0.0570494 49.5242 0.0570494 51.7952 1.46166 53.2052L16.7413 68.4784C17.4151 69.1565 18.3311 69.5332 19.2826 69.5332C20.2362 69.5332 21.151 69.1565 21.8248 68.4784L34.8517 55.4548L47.8785 68.4784C48.5792 69.1888 49.4995 69.5332 50.4187 69.5332C51.339 69.5332 52.2592 69.1888 52.9599 68.4784L68.2406 53.2052C69.6453 51.7952 69.6453 49.5242 68.2406 48.125L55.2127 35.0905Z" fill="#7880C8"/>
<path d="M38.1178 50.8376C38.3933 50.8376 38.6689 50.7301 38.8799 50.5256L50.1921 39.2132C50.614 38.7935 50.614 38.1047 50.1921 37.6849C49.7713 37.2652 49.0889 37.2652 48.667 37.6849L37.3547 48.9972C36.9339 49.4169 36.9339 50.1058 37.3547 50.5256C37.5657 50.7301 37.8412 50.8376 38.1178 50.8376Z" fill="#7880C8"/>
<path d="M19.2188 32.3886C19.4287 32.5931 19.7042 32.7007 19.9808 32.7007C20.2564 32.7007 20.533 32.5931 20.7429 32.3886L32.0573 21.0763C32.477 20.6565 32.477 19.9677 32.0573 19.548C31.6353 19.1282 30.953 19.1282 30.5321 19.548L19.2188 30.8602C18.7969 31.28 18.7969 31.9688 19.2188 32.3886Z" fill="#7880C8"/>
<path d="M26.2257 34.7678L24.043 32.5829C24.3217 32.1308 24.8222 31.8295 25.3916 31.8295C26.2688 31.8295 26.977 32.5398 26.977 33.4224C26.977 33.9929 26.6778 34.488 26.2257 34.7678Z" fill="#E0738E"/>
<path d="M25.3931 35.0042C24.518 35.0042 23.8076 34.2937 23.8076 33.4219C23.8076 33.1098 23.8937 32.83 24.0444 32.5824L26.2272 34.7673C25.985 34.918 25.6987 35.0042 25.3931 35.0042Z" fill="#F46970"/>
<path d="M29.1627 31.2375C28.2865 31.2375 27.5762 30.5272 27.5762 29.6446C27.5762 28.7728 28.2865 28.0624 29.1627 28.0624C30.0377 28.0624 30.7492 28.7728 30.7492 29.6446C30.7492 30.5272 30.0377 31.2375 29.1627 31.2375Z" fill="#E0738E"/>
<path d="M32.9331 27.46C32.058 27.46 31.3477 26.7496 31.3477 25.8777C31.3477 25.0059 32.0559 24.2955 32.9288 24.2955C32.9299 24.2955 32.9309 24.2955 32.9331 24.2955C32.9342 24.2955 32.9363 24.2955 32.9374 24.2955C33.8125 24.2955 34.5207 25.0059 34.5207 25.8777C34.5207 26.7496 33.8092 27.46 32.9331 27.46Z" fill="#E0738E"/>
<path d="M29.8166 38.3625L27.6328 36.1776C27.9127 35.7256 28.411 35.4242 28.9803 35.4242C28.9814 35.4242 28.9814 35.4242 28.9825 35.4242C29.8586 35.4242 30.5712 36.1345 30.569 37.0063C30.569 37.5768 30.2676 38.0827 29.8166 38.3625Z" fill="#E0738E"/>
<path d="M28.983 38.6003C28.1068 38.6003 27.3965 37.8899 27.3965 37.0073C27.3965 36.7059 27.4837 36.4154 27.6333 36.1786L29.8171 38.3635C29.575 38.5142 29.2887 38.6003 28.983 38.6003Z" fill="#F46970"/>
<path d="M32.7534 34.821C31.8783 34.821 31.168 34.1106 31.168 33.2388C31.168 32.367 31.8783 31.6567 32.7534 31.6567C33.6306 31.6567 34.3399 32.367 34.3399 33.2388C34.3399 34.1106 33.6306 34.821 32.7534 34.821Z" fill="#E0738E"/>
<path d="M36.5261 31.0552C35.6489 31.0552 34.9385 30.3448 34.9385 29.4729C34.9385 28.5904 35.6489 27.88 36.5261 27.88C37.4011 27.88 38.1094 28.5904 38.1094 29.4729C38.1094 30.3448 37.4011 31.0552 36.5261 31.0552Z" fill="#E0738E"/>
<path d="M33.4064 41.9475L31.2236 39.7733C31.5024 39.3212 31.9996 39.0199 32.5679 39.0199C32.569 39.0199 32.5701 39.0199 32.5723 39.0199C32.5733 39.0199 32.5755 39.0199 32.5766 39.0199C33.4505 39.0199 34.1598 39.7303 34.1598 40.6021C34.1598 41.1725 33.8585 41.6677 33.4064 41.9475Z" fill="#E0738E"/>
<path d="M32.5737 42.1843C31.6976 42.1843 30.9883 41.4739 30.9883 40.6021C30.9883 40.3007 31.0755 40.0101 31.2251 39.7733L33.4079 41.9475C33.1657 42.0982 32.8794 42.1843 32.5737 42.1843Z" fill="#F46970"/>
<path d="M36.3462 38.4163C35.469 38.4163 34.7607 37.7059 34.7607 36.834C34.7597 35.9514 35.469 35.2411 36.3462 35.2411C37.2212 35.2411 37.9327 35.9514 37.9316 36.834C37.9316 37.7059 37.2212 38.4163 36.3462 38.4163Z" fill="#E0738E"/>
<path d="M40.1149 34.6497C39.2398 34.6497 38.5283 33.9393 38.5283 33.0567C38.5283 32.1849 39.2387 31.4745 40.1149 31.4745C40.9921 31.4745 41.7013 32.1849 41.7013 33.0567C41.7013 33.9393 40.9921 34.6497 40.1149 34.6497Z" fill="#E0738E"/>
<path d="M37.0013 45.542L34.8174 43.357C35.0972 42.9049 35.5966 42.6035 36.1682 42.6035C37.0443 42.6035 37.7525 43.314 37.7525 44.1966C37.7525 44.767 37.4523 45.2621 37.0013 45.542Z" fill="#E0738E"/>
<path d="M36.1666 45.7793C35.2894 45.7793 34.5801 45.069 34.5801 44.1972C34.5801 43.885 34.6662 43.6051 34.8158 43.3575L36.9997 45.5426C36.7575 45.6933 36.4722 45.7793 36.1666 45.7793Z" fill="#F46970"/>
<path d="M39.936 42.0115C39.0599 42.0115 38.3506 41.3011 38.3506 40.4185C38.3506 39.5467 39.0578 38.8363 39.9307 38.8363C39.9328 38.8363 39.9339 38.8363 39.936 38.8363C39.9371 38.8363 39.9382 38.8363 39.9403 38.8363C40.8132 38.8363 41.5215 39.5467 41.5215 40.4185C41.5215 41.3011 40.8111 42.0115 39.936 42.0115Z" fill="#E0738E"/>
<path d="M43.7066 38.2332C42.8305 38.2332 42.1201 37.5228 42.1201 36.6509C42.1201 35.7791 42.8294 35.0687 43.7045 35.0687C43.7045 35.0687 43.7055 35.0687 43.7066 35.0687C44.5827 35.0687 45.2931 35.7791 45.2931 36.6509C45.2931 37.5228 44.5827 38.2332 43.7066 38.2332Z" fill="#E0738E"/>
</svg>
