<svg width="27" height="16" viewBox="0 0 27 16" fill="none" xmlns="http://www.w3.org/2000/svg">
<path opacity="0.3" d="M27 8.00375C27 7.49414 26.5864 7.08197 26.075 7.08197H3.14345L8.67832 1.56628C9.03929 1.20656 9.03929 0.629508 8.67832 0.269789C8.31735 -0.0899297 7.7383 -0.0899297 7.37733 0.269789L0.270728 7.35176C-0.0902425 7.71147 -0.0902425 8.28853 0.270728 8.64824L7.37733 15.7302C7.55781 15.9101 7.79094 16 8.03158 16C8.27223 16 8.50536 15.9101 8.68584 15.7302C9.04681 15.3705 9.04681 14.7934 8.68584 14.4337L3.15097 8.91803H26.0901C26.5864 8.91803 27 8.51335 27 8.00375Z" fill="white"/>
</svg>
