<?xml version="1.0" encoding="UTF-8"?>
<!DOCTYPE svg PUBLIC "-//W3C//DTD SVG 1.1//EN" "http://www.w3.org/Graphics/SVG/1.1/DTD/svg11.dtd">
<!-- Creator: CorelDRAW X8 -->
<svg xmlns="http://www.w3.org/2000/svg" xml:space="preserve" width="110px" height="61px" version="1.1" style="shape-rendering:geometricPrecision; text-rendering:geometricPrecision; image-rendering:optimizeQuality; fill-rule:evenodd; clip-rule:evenodd"
viewBox="0 0 110000 61000"
 xmlns:xlink="http://www.w3.org/1999/xlink">
 <defs>
  <style type="text/css">
   <![CDATA[
    .fil6 {fill:#598855}
    .fil5 {fill:#619858}
    .fil2 {fill:#BABABA}
    .fil1 {fill:#CCCCCC}
    .fil0 {fill:#E2EFF5}
    .fil4 {fill:#EBEBEB}
    .fil3 {fill:white}
   ]]>
  </style>
 </defs>
 <g id="Слой_x0020_1">
  <metadata id="CorelCorpID_0Corel-Layer"/>
  <g id="_1156137549824">
   <ellipse class="fil0" cx="55000" cy="50542" rx="54788" ry="10514"/>
   <path class="fil1" d="M94990 41508c-3967,-4824 -12240,-15605 -15435,-25189 -3564,-10692 -6166,-17040 -9193,-16319 -3026,-721 -5628,5627 -9192,16319 -3195,9584 -11468,20365 -15435,25189 -5856,7121 17532,9094 24627,8714 7096,380 30484,-1593 24628,-8714z"/>
   <path class="fil2" d="M57189 25052c-2226,4142 -4372,7147 -6815,10482 3735,22745 17183,12369 17142,12243 -1196,-3685 -6949,-13038 -8499,-16670 -798,-1871 -1401,-3935 -1828,-6055z"/>
   <path class="fil3" d="M82456 23043c-1160,-2246 -2165,-4517 -2901,-6724 -3564,-10692 -6166,-17040 -9193,-16319 -2875,-685 -5367,5011 -8665,14750 6450,-2184 3186,5231 4549,6359 1826,1510 4081,-4453 4974,-5921 2171,-3570 2872,-289 5684,3317 1291,1654 5552,7318 5552,4538l0 0z"/>
   <path class="fil4" d="M82456 23043c-1160,-2247 -2166,-4517 -2901,-6724 -3564,-10692 -6166,-17040 -9193,-16319 -2875,-685 -5367,5011 -8665,14750 0,0 473,-1491 1590,67 1084,-3402 2796,-8024 3404,-9242 1213,-2425 1814,-3384 3449,-3389 4820,-15 9172,18025 10170,20413 1714,910 2146,444 2146,444l0 0z"/>
   <path class="fil1" d="M20031 42644c3452,-4198 10652,-13580 13432,-21921 3102,-9305 5366,-14829 8000,-14202 2634,-627 4898,4897 8000,14202 2781,8341 9981,17723 13433,21921 5096,6198 -15258,7915 -21433,7584 -6175,331 -26529,-1386 -21432,-7584z"/>
   <path class="fil3" d="M30939 26575c1009,-1955 1884,-3931 2524,-5852 3102,-9305 5366,-14829 8000,-14202 2503,-596 4672,4361 7542,12837 0,0 -2832,-1711 -3405,1153 -573,2864 -573,2864 -2865,573 -2291,-2292 -2864,-1719 -5728,1719 -2865,3437 -6068,3772 -6068,3772l0 0z"/>
   <path class="fil4" d="M30939 26575c1009,-1955 1884,-3931 2524,-5852 3102,-9305 5366,-14829 8000,-14202 2503,-596 4672,4361 7542,12837 0,0 -412,-1298 -1384,58 -944,-2961 -2433,-6983 -2963,-8043 -1055,-2110 -1578,-2946 -3001,-2950 -4195,-13 -7983,15687 -8851,17766 -1492,791 -1867,386 -1867,386l0 0z"/>
   <path class="fil5" d="M31958 55549c-9070,-629 -17521,-2015 -18277,-5071 0,0 -2494,-1385 -2567,-1794 -276,-1521 -456,-3320 1494,-4773 958,-714 2908,-442 3240,-1440 1080,-3241 7204,-2470 8015,-302 213,571 2507,-816 6028,-58 1086,233 2333,1069 3351,2013 1425,-2676 7654,-2789 8921,-949 361,524 2723,-1239 6935,-1102 2369,76 5768,2036 6841,3335 1622,-1792 6148,-1765 7127,-326 303,443 2279,-1048 5803,-933 1987,65 4838,1729 5729,2828 51,62 153,70 297,40 507,-1916 4644,-2066 5446,-888 216,317 1625,-747 4138,-664 1047,34 2432,691 3340,1349 157,-140 262,-284 242,-445 -181,-1473 2740,-2490 3552,-1832 214,173 962,-850 2706,-1314 984,-262 2626,132 3226,540 84,57 278,-100 550,-330 1142,112 2728,397 2013,2536 -216,647 -1066,1293 -2087,1961 -2273,917 -4511,1711 -6244,2091 -82,415 -295,889 -679,1433 -549,778 -1942,1298 -3573,1778 -3948,359 -7765,517 -10289,160 -983,654 -2454,1166 -4095,1650 -7450,677 -14568,843 -17380,-573 -499,164 -1021,324 -1558,480 -7658,690 -15023,931 -19071,-81 -928,291 -2014,500 -3174,681z"/>
   <path class="fil6" d="M31958 55549c-9070,-629 -17521,-2015 -18277,-5071 0,0 -2494,-1385 -2567,-1794 -173,-951 -308,-2013 93,-3029 2852,-648 5980,1059 9326,2131 1659,531 6340,3327 7529,3377 1125,48 2382,741 5194,741 4007,0 5423,-42 9349,-856 5036,-1044 10344,-149 15097,1569 3290,1189 6563,20 9833,-520 3420,-564 2531,-1040 7302,-1040 3631,0 2858,-691 6049,97 2472,610 15495,-3127 17697,-4868 322,-255 963,-710 1702,-1202 -8,253 -63,545 -177,885 -216,647 -670,2833 -1691,3501 -2224,989 -4818,1460 -6906,1301 -83,416 -29,139 -413,683 -549,777 -1942,1298 -3573,1778 -3948,359 -7765,517 -10289,160 -983,654 -2454,1166 -4095,1650 -7450,677 -14568,843 -17380,-573 -499,164 -1021,324 -1558,480 -7658,690 -15023,931 -19071,-81 -928,291 -2014,500 -3174,681z"/>
  </g>
 </g>
</svg>
