<?xml version="1.0" encoding="UTF-8"?>
<!DOCTYPE svg PUBLIC "-//W3C//DTD SVG 1.1//EN" "http://www.w3.org/Graphics/SVG/1.1/DTD/svg11.dtd">
<!-- Creator: CorelDRAW X8 -->
<svg xmlns="http://www.w3.org/2000/svg" xml:space="preserve" width="115px" height="95px" version="1.1" style="shape-rendering:geometricPrecision; text-rendering:geometricPrecision; image-rendering:optimizeQuality; fill-rule:evenodd; clip-rule:evenodd"
viewBox="0 0 115000 95000"
 xmlns:xlink="http://www.w3.org/1999/xlink">
 <defs>
  <style type="text/css">
   <![CDATA[
    .str0 {stroke:#D6D6D6;stroke-width:2999.91}
    .fil11 {fill:#598855}
    .fil10 {fill:#619858}
    .fil9 {fill:#6B4C3B}
    .fil3 {fill:#D6D6D6}
    .fil0 {fill:#E2EFF5}
    .fil2 {fill:#E7E7E7}
    .fil8 {fill:#FF3855}
    .fil1 {fill:#FFD100}
    .fil6 {fill:#8BC0CF;fill-rule:nonzero}
    .fil5 {fill:#A4D1DD;fill-rule:nonzero}
    .fil4 {fill:#FF3855;fill-rule:nonzero}
    .fil7 {fill:white;fill-rule:nonzero}
   ]]>
  </style>
 </defs>
 <g id="Слой_x0020_1">
  <metadata id="CorelCorpID_0Corel-Layer"/>
  <g id="_1156137522496">
   <ellipse class="fil0" cx="57500" cy="85224" rx="57433" ry="9673"/>
   <g>
    <circle class="fil1" cx="59681" cy="48264" r="2463"/>
    <rect class="fil2 str0" x="15405" y="18700" width="17329" height="67177" rx="2309" ry="2088"/>
    <path class="fil3" d="M26384 87269l5281 0 37226 0c1112,0 2022,-910 2022,-2022l0 -34231c0,-818 -492,-1528 -1196,-1845l-22079 -16729 -21915 16663c-790,276 -1361,1030 -1361,1911l0 34231c0,1112 910,2022 2022,2022z"/>
    <path class="fil2" d="M30071 84041l35133 0c919,0 1672,-619 1672,-1376l0 -26899c0,-557 -408,-1039 -990,-1255l-18248 -12828 -18113 12783c-654,187 -1126,702 -1126,1300l0 26899c0,755 753,1376 1672,1376z"/>
    <path class="fil4" d="M20333 51444l26059 -17745c656,-448 1497,-417 2111,16l26035 17729c284,194 404,535 303,863 -102,328 -393,544 -736,544l-3844 0c-162,0 -300,-43 -433,-134l-21959 -14953c-267,-182 -600,-182 -867,0l-21958 14953c-133,91 -272,134 -433,134l-3844 0c-344,0 -635,-216 -736,-544 -101,-328 18,-670 302,-863z"/>
    <path class="fil5" d="M63609 75854l0 11272 -916 0 14 143 -13237 0 -15 -143 -1817 0 0 -11272c0,-4410 3575,-7986 7985,-7986 4411,0 7986,3576 7986,7986z"/>
    <polygon class="fil6" points="63609,84041 63609,87126 62693,87126 62707,87269 49470,87269 49455,87126 47638,87126 47638,84041 "/>
    <path class="fil7" d="M36343 66139l0 -7814c0,-1837 1490,-3327 3327,-3327 1837,0 3327,1490 3327,3327l0 7814 -6654 0z"/>
    <rect class="fil3" x="49997" y="54748" width="7002" height="3899" rx="26985" ry="25121"/>
    <path class="fil8" d="M24934 603l5839 10112 5838 10111c183,318 183,682 0,999 -183,318 -498,499 -865,499l-11676 0 -11676 0c-367,0 -682,-181 -865,-499 -183,-317 -183,-681 0,-999l5838 -10111 5838 -10112c183,-318 498,-500 865,-500 366,0 681,182 864,500z"/>
    <path class="fil7" d="M20743 39276l0 -7814c0,-1837 1490,-3327 3327,-3327 1837,0 3327,1490 3327,3327l0 7814 -6654 0z"/>
    <rect class="fil3" x="33943" y="72770" width="7002" height="3899" rx="26985" ry="25121"/>
   </g>
   <path class="fil9" d="M86464 85073c215,-4909 789,-18495 574,-19171 -9,-28 -21,-60 -36,-94 -377,-843 2,-1836 844,-2214 116,-52 199,-148 240,-297 392,-1420 1177,-12187 1177,-12187 0,0 249,10288 1222,10752 819,387 1185,1360 819,2189 -213,485 -341,916 -341,1257 0,1742 263,15022 358,19805 10,468 -152,874 -479,1208 -327,334 -730,503 -1198,503l-1504 0c-475,0 -883,-174 -1212,-517 -328,-343 -485,-759 -464,-1234z"/>
   <path class="fil10" d="M97777 51390c2245,1297 3756,3724 3756,6503 0,1756 -603,3371 -1614,4649 1029,1285 1644,2914 1644,4688 0,4144 -3360,7505 -7505,7505 -339,0 -674,-23 -1002,-66 -909,383 -1934,599 -3018,599 -1279,0 -2476,-301 -3498,-823 -658,189 -1353,290 -2071,290 -4146,0 -7506,-3361 -7506,-7505 0,-1765 609,-3387 1629,-4669 -1020,-1281 -1629,-2904 -1629,-4668 0,-3906 2984,-7114 6795,-7472 1185,-2586 3796,-4383 6827,-4383 3397,0 6266,2256 7192,5352z"/>
   <path class="fil11" d="M97777 51390c2245,1297 3756,3724 3756,6503 0,1756 -603,3371 -1614,4649 1029,1285 1644,2914 1644,4688 0,4144 -3360,7505 -7505,7505 -339,0 -674,-23 -1002,-66 -909,383 -1934,599 -3018,599 -1279,0 -2476,-301 -3498,-823 -658,189 -1353,290 -2071,290 -4146,0 -7506,-3361 -7506,-7505 0,-1575 486,-3036 1314,-4243l315 -426c9,-12 -36,-853 288,-877 351,-27 1073,771 1085,1012 56,1033 -813,3410 -600,5404 203,1897 1454,3430 2876,3810 3534,945 4029,393 4029,393 0,0 6604,1201 9907,-300 3302,-1501 3002,-7205 2401,-7806 -600,-600 1502,-4503 301,-7505 -1201,-3002 -2402,-4203 -2402,-4203 0,0 -1473,-4764 -6004,-4803 -4532,-39 -5704,4203 -5704,4203 0,0 -3603,900 -4804,3002 -1200,2101 0,7805 0,7805 0,0 -716,-1482 -1931,-939 -680,-1128 -1071,-2450 -1071,-3864 0,-3906 2984,-7114 6795,-7472 1185,-2586 3796,-4383 6827,-4383 3397,0 6266,2256 7192,5352z"/>
   <circle class="fil1" cx="84714" cy="62027" r="1790"/>
   <circle class="fil1" cx="91733" cy="67481" r="1790"/>
   <circle class="fil1" cx="91862" cy="55448" r="1790"/>
  </g>
 </g>
</svg>
