<?xml version="1.0" encoding="UTF-8"?>
<!DOCTYPE svg PUBLIC "-//W3C//DTD SVG 1.1//EN" "http://www.w3.org/Graphics/SVG/1.1/DTD/svg11.dtd">
<!-- Creator: CorelDRAW X8 -->
<svg xmlns="http://www.w3.org/2000/svg" xml:space="preserve" width="118px" height="88px" version="1.1" style="shape-rendering:geometricPrecision; text-rendering:geometricPrecision; image-rendering:optimizeQuality; fill-rule:evenodd; clip-rule:evenodd"
viewBox="0 0 118000 88000"
 xmlns:xlink="http://www.w3.org/1999/xlink">
 <defs>
  <style type="text/css">
   <![CDATA[
    .fil9 {fill:#598855}
    .fil8 {fill:#619858}
    .fil7 {fill:#6B4C3B}
    .fil1 {fill:#D6D6D6}
    .fil0 {fill:#E2EFF5}
    .fil2 {fill:#E7E7E7}
    .fil10 {fill:#FFD100}
    .fil5 {fill:#8BC0CF;fill-rule:nonzero}
    .fil4 {fill:#A4D1DD;fill-rule:nonzero}
    .fil3 {fill:#FF3855;fill-rule:nonzero}
    .fil6 {fill:white;fill-rule:nonzero}
   ]]>
  </style>
 </defs>
 <g id="Слой_x0020_1">
  <metadata id="CorelCorpID_0Corel-Layer"/>
  <g id="_1155980711376">
   <ellipse class="fil0" cx="48864" cy="71177" rx="48684" ry="8199"/>
   <path class="fil1" d="M23718 72911l7028 0 49541 0c1480,0 2692,-1211 2692,-2692l0 -45555c0,-1090 -656,-2033 -1593,-2456l-29384 -22263 -29164 22176c-1052,367 -1812,1371 -1812,2543l0 45555c0,1480 1211,2692 2692,2692z"/>
   <path class="fil2" d="M28625 68615l46755 0c1224,0 2225,-824 2225,-1832l0 -35797c0,-742 -542,-1384 -1316,-1671l-24287 -17072 -24104 17012c-870,250 -1498,934 -1498,1731l0 35797c0,1005 1001,1832 2225,1832z"/>
   <path class="fil3" d="M15665 25234l34679 -23617c874,-595 1993,-554 2810,22l34649 23595c378,257 537,712 402,1148 -135,437 -522,723 -979,723l-5116 0c-214,0 -399,-57 -576,-178l-29224 -19900c-355,-241 -798,-241 -1153,0l-29223 19900c-177,121 -362,178 -577,178l-5115 0c-457,0 -845,-286 -979,-723 -135,-436 24,-891 402,-1148z"/>
   <rect class="fil1" x="27224" y="56764" width="9319" height="5189" rx="35913" ry="33431"/>
   <rect class="fil1" x="65516" y="44888" width="9319" height="5189" rx="35913" ry="33431"/>
   <path class="fil4" d="M62630 57719l0 15001 -1219 0 19 191 -17616 0 -21 -191 -2418 0 0 -15001c0,-5870 4758,-10628 10628,-10628 5869,0 10627,4758 10627,10628z"/>
   <polygon class="fil5" points="62630,68615 62630,72720 61411,72720 61430,72911 43814,72911 43793,72720 41375,72720 41375,68615 "/>
   <path class="fil6" d="M64169 40968l0 -7719c0,-1814 1471,-3286 3286,-3286 1814,0 3286,1472 3286,3286l0 7719 -6572 0z"/>
   <path class="fil6" d="M33511 40968l0 -7719c0,-1814 1472,-3286 3286,-3286 1815,0 3286,1472 3286,3286l0 7719 -6572 0z"/>
   <path class="fil0" d="M116054 83883c0,2305 -4707,4173 -10507,4173 -5804,0 -10507,-1868 -10507,-4173 0,-2306 4703,-4173 10507,-4173 5800,0 10507,1867 10507,4173z"/>
   <path class="fil7" d="M103163 83131c215,-4919 790,-18531 575,-19208 -9,-29 -21,-60 -37,-95 -377,-844 3,-1840 847,-2218 115,-52 199,-148 240,-297 393,-1423 1179,-12210 1179,-12210 0,0 250,10307 1225,10771 820,389 1186,1364 820,2194 -214,486 -341,918 -341,1260 0,1745 263,15050 358,19843 9,468 -152,875 -480,1209 -328,335 -731,505 -1200,505l-1507 0c-476,0 -885,-175 -1214,-519 -329,-343 -486,-760 -465,-1235z"/>
   <path class="fil8" d="M105961 74067c0,0 -7186,-848 -10226,-5267 -3038,-4423 -3520,-13548 0,-17970 3519,-4423 9891,-7809 14750,-4798 4860,3009 9553,14959 6202,20883 -3353,5927 -8213,6868 -10726,7152z"/>
   <path class="fil9" d="M105961 74067c2513,-284 7373,-1225 10726,-7152 3351,-5924 -1342,-17874 -6202,-20883 -2031,-1259 -4329,-1396 -6570,-811 0,0 2873,492 5323,2130 2448,1639 8553,15484 2222,20139 -6327,4658 -15725,1310 -15725,1310 3040,4419 10226,5267 10226,5267z"/>
   <path class="fil8" d="M13394 72911l-6369 -517c0,0 -5637,-2050 -2563,-7174 3075,-5125 5125,-3076 5125,-3076 0,0 -1442,-3453 2050,-6149 3491,-2696 8865,0 8865,0 1564,0 2226,-192 4720,-192 2562,0 5637,3075 5637,6150 4100,512 5267,3574 5267,5637 0,3420 -4569,4954 -7424,5242 -4450,449 -10709,79 -15308,79z"/>
   <path class="fil9" d="M13394 72911l-6369 -517c0,0 -1063,-387 -2014,-1244 752,-560 1503,-1148 2256,-1709 2749,1521 19965,3470 24793,-826l1813 2508c-1557,998 -3618,1552 -5171,1708 -4450,450 -10709,80 -15308,80z"/>
   <path class="fil9" d="M19295 55502c743,260 1207,493 1207,493 1564,0 2226,-192 4720,-192 2562,0 5637,3075 5637,6150 4100,512 5267,3574 5267,5637 0,2063 -1780,3844 -4249,4468l7 144 -143 4c210,-247 -4149,-103 -3879,-215 5043,-2101 4063,-6643 947,-7988 0,0 -865,-2211 -2409,-4237 -1544,-2026 -7840,-2425 -7840,-2425l735 -1839z"/>
   <path class="fil9" d="M13446 72394l-6421 0c0,0 -5637,-2050 -2563,-7174 3075,-5125 5125,-3076 5125,-3076 0,0 -1442,-3453 2050,-6149 3081,-2380 7628,-559 8654,-99l323 1449c-647,844 -1029,1533 -1029,1533 0,0 -1538,-1537 -5125,0 -3587,1537 -3075,5125 -3075,5125 0,0 -2562,512 -3587,4099 -1025,3588 7174,3588 7174,3588l-1526 704z"/>
   <circle class="fil10" cx="10873" cy="67077" r="1794"/>
   <circle class="fil10" cx="25892" cy="64004" r="1794"/>
   <circle class="fil10" cx="17022" cy="61440" r="1794"/>
  </g>
 </g>
</svg>
