<?xml version="1.0" encoding="UTF-8"?>
<!DOCTYPE svg PUBLIC "-//W3C//DTD SVG 1.1//EN" "http://www.w3.org/Graphics/SVG/1.1/DTD/svg11.dtd">
<!-- Creator: CorelDRAW X8 -->
<svg xmlns="http://www.w3.org/2000/svg" xml:space="preserve" width="1426px" height="787px" version="1.1" style="shape-rendering:geometricPrecision; text-rendering:geometricPrecision; image-rendering:optimizeQuality; fill-rule:evenodd; clip-rule:evenodd"
viewBox="0 0 1426000 787000"
 xmlns:xlink="http://www.w3.org/1999/xlink">
 <defs>
  <style type="text/css">
   <![CDATA[
    .fil0 {fill:#DDEFF6}
    .fil1 {fill:#F3F8F9}
   ]]>
  </style>
 </defs>
 <g id="Слой_x0020_1">
  <metadata id="CorelCorpID_0Corel-Layer"/>
  <path class="fil0" d="M714350 0c-3231,0 -6444,1 -9648,4l-438 0 0 0c-171132,120 -305558,6411 -408166,10446 -2720,3124 -8368,9283 -10580,9454 -5035,-336 -4735,-5090 -5478,-9075 -15861,675 -43387,1895 -57679,2609 -4838,6305 -3990,17656 -6318,15759 -5427,-4409 -4799,-9220 -8471,-14093 -118168,6599 -184868,23541 -202533,26926 -4510,864 -5332,1495 -4960,6025 395,4830 1137,12913 2028,23625 12506,5585 33977,16793 30233,16879 -9186,243 -19003,-594 -29013,-1964 1239,15404 2688,34233 4187,55388 5229,2219 11448,4442 14324,5749 2675,1217 1559,2796 -818,3029 -3985,397 -7368,737 -12819,1046 4603,66561 9441,153270 9979,229487 28688,5202 82938,11773 82938,11773 -335,690 -57611,6453 -82900,9100 -185,56688 -2522,123583 -5367,185028 -123,2652 12509,6986 12385,9617 -138,2924 -13034,4146 -13174,7040 -454,9384 -746,15260 -1213,24253 18470,3404 55174,8485 69485,10812 12807,2083 22124,4202 3102,5730 -11418,917 -52233,-308 -73190,739 -3537,66984 -7738,119372 -8660,132832 -115,1688 -147,3280 2271,2863 6859,-1184 29132,-14347 73813,-18341 641,-900 1239,-1743 1813,-2488 4114,-5313 7799,-10836 11331,-16374 923,-1459 8142,7252 14872,16529 57345,-4456 142766,-9282 266184,-12584 6320,-8794 18835,-23196 20349,-21496 6676,7470 15537,12786 20365,20495 11631,-262 23577,-508 35825,-742 2428,-4391 8084,-11412 10895,-9926 5304,2792 8950,6079 12291,9507 29445,-3824 60561,-3053 92101,-1207 45137,-433 93628,-679 145788,-689l900 0 2503 1 0 3 616 -1 0 -2 164 0 0 2 616 1 0 -3 4844 1 186 0 185 0 54 0 6610 6c2842,-5480 5553,-8994 9879,-14976 2082,-2864 16054,9735 19702,15017 1319,-219 2658,-197 4011,13 117009,313 214651,1829 295844,4004 4689,-6161 8472,-12107 13194,-18311 1274,-1674 2617,-4798 5011,-2890 5590,4455 10122,15991 14938,22151 11245,345 22163,702 32724,1070l96 2c0,0 4906,-5456 8652,-8264 3016,-2259 3070,-2187 5284,159 2559,2711 6064,5647 7596,8700 2234,110 4460,261 6679,446 189200,7355 260471,33717 273916,36038 2418,418 2387,-1174 2271,-2862 -447,-6562 -2532,-33471 -3931,-55872 -21993,-10031 -58121,-26591 -58121,-26591 111,-788 37783,1883 56838,5645 -388,-6441 -790,-13234 -1201,-20321 -5417,-36165 -9650,-72402 -12939,-108863 -5983,-2174 -12033,-4305 -17963,-6451 -4888,-1770 10532,-4773 17085,-4048 -435,-5462 -844,-10924 -1207,-16388 -14183,-6927 -28484,-13213 -42262,-19679 -4638,-2183 27925,288 41255,3923 -2972,-54482 -4113,-108885 -3765,-163445 -4630,-1857 -19239,-11025 -15067,-11043 4945,-29 10097,197 15213,502 105,-7558 236,-15016 383,-22384 -18407,-5107 -42968,-8643 -58897,-11120 -18012,-2801 -21055,-5100 777,-6416 16201,-977 41569,-1626 58873,236 1491,-40495 3820,-94017 6645,-134432 -3093,-1240 -6140,-2539 -9182,-3779 -4710,-1920 6344,-5529 9866,-5815 1164,-15521 2422,-30624 3709,-45191 -15160,-7268 -46629,-19264 -46629,-19264 23,-704 33216,-1561 48382,456 2168,-22383 4044,-44814 6980,-67107 692,-5260 -239,-4588 -7496,-6208 -22186,-4954 -71778,-18562 -158803,-23872 -1936,1833 -3667,5966 -4728,7662 -1050,1635 -12273,-5823 -15333,-8843 -9576,-543 -19541,-1082 -29944,-1614 -2625,2630 -5981,8739 -7474,11189 -1439,2342 -15669,-9581 -17974,-12133l-281 -3c-5185,20 -10353,-368 -15510,-1011 -24007,-1059 -49925,-2065 -77825,-2992 -3903,4455 -7847,8923 -12511,13266 -2251,2076 -13763,-7788 -18934,-14250 -89902,-2643 -198008,-7714 -328963,-7810l-118 0c-3450,-2 -6912,-4 -10394,-4l0 4 -163 0 0 -4z"/>
  <path class="fil1" d="M82670 390744c10923,1412 18448,2323 18448,2323 -120,248 -7572,1149 -18246,2324 120,3140 206,6268 248,9380 818,59664 -9191,120587 -8602,168625 327,26684 -83,46022 3239,65110 922,145 1785,283 2577,411 12807,2083 22124,4202 3102,5730 -1179,94 -2676,166 -4428,220 889,4041 1967,8106 3276,12262 16686,52975 60816,63577 108690,58112 16850,-1923 34776,-4827 53174,-6850 1673,-184 3395,-367 5161,-550 107725,-11164 385303,-16856 463116,-17833 77813,977 355391,6669 463116,17833 1766,183 3488,366 5161,550 18398,2023 36324,4927 53174,6850 47874,5465 92004,-5137 108690,-58112 8191,-26004 7334,-48446 7766,-83733 589,-48038 -9420,-108961 -8602,-168625 343,-25054 3485,-51192 4834,-76036 -1809,-278 -3543,-545 -5184,-800 -18012,-2801 -21055,-5100 777,-6416 1510,-91 3100,-179 4756,-263 26,-686 51,-1371 74,-2054 1471,-44378 15402,-90915 14616,-118771 -2423,-85767 -29107,-104407 -163530,-124824 -137482,-20882 -365767,-25564 -462724,-26614l1 -304c0,0 -8293,-3 -22925,98 -14632,-101 -22925,-98 -22925,-98l1 304c-96957,1050 -325242,5732 -462724,26614 -134423,20417 -161107,39057 -163530,124824 -786,27856 13145,74393 14616,118771 766,23088 3653,47601 4807,71542z"/>
 </g>
</svg>
