<?xml version="1.0" encoding="UTF-8"?>
<!DOCTYPE svg PUBLIC "-//W3C//DTD SVG 1.1//EN" "http://www.w3.org/Graphics/SVG/1.1/DTD/svg11.dtd">
<!-- Creator: CorelDRAW X8 -->
<svg xmlns="http://www.w3.org/2000/svg" xml:space="preserve" width="119px" height="160px" version="1.1" style="shape-rendering:geometricPrecision; text-rendering:geometricPrecision; image-rendering:optimizeQuality; fill-rule:evenodd; clip-rule:evenodd"
viewBox="0 0 119000 160000"
 xmlns:xlink="http://www.w3.org/1999/xlink">
 <defs>
  <style type="text/css">
   <![CDATA[
    .str0 {stroke:#619858;stroke-width:1999.85}
    .str1 {stroke:#598855;stroke-width:1999.85}
    .fil0 {fill:none}
    .fil8 {fill:#598855}
    .fil4 {fill:#619858}
    .fil7 {fill:#6B4C3B}
    .fil2 {fill:#755544}
    .fil1 {fill:#967251}
    .fil13 {fill:#999999}
    .fil9 {fill:#A1CED9}
    .fil3 {fill:#ADCB7D}
    .fil5 {fill:#C5E5ED}
    .fil6 {fill:#E2EFF5}
    .fil11 {fill:#E8EEF0}
    .fil12 {fill:#FF3754}
    .fil10 {fill:white}
   ]]>
  </style>
 </defs>
 <g id="Слой_x0020_1">
  <metadata id="CorelCorpID_0Corel-Layer"/>
  <path class="fil0 str0" d="M75959 48833c0,0 632,-24437 4670,-32088"/>
  <line class="fil0 str1" x1="74174" y1="12130" x2="75959" y2= "48833" />
  <path class="fil0 str0" d="M75861 49234c0,0 5191,-21733 10581,-28501"/>
  <rect class="fil1" x="71943" y="15" width="4464" height="14938" rx="10628" ry="14093"/>
  <path class="fil2" d="M74174 14953l0 0c1228,0 2232,-1005 2232,-2232l0 -4035c-1049,2455 -1400,3857 -2802,3857 -667,0 -1662,-2033 -1662,-2677l0 2855c0,1227 1005,2232 2232,2232z"/>
  <rect class="fil1" transform="matrix(0.1004 0.0348526 -0.0462151 0.133132 82692.8 3761.45)" width="42000" height="106000" rx="100000" ry="100000"/>
  <path class="fil2" d="M79902 18605l0 0c1160,403 2438,-217 2841,-1376l1607 -4631c-1257,1529 -3104,3982 -4084,3101 -371,-332 -701,-1753 -644,-3093l-1096 3159c-403,1160 217,2438 1376,2840z"/>
  <rect class="fil1" transform="matrix(0.0921767 0.0528987 -0.0701445 0.122228 90881.4 8359.12)" width="42000" height="106000" rx="100000" ry="100000"/>
  <path class="fil2" d="M85382 22426l0 0c1065,611 2435,240 3046,-825l2048 -3567c-1650,1082 -2737,2234 -3899,2224 -672,-6 -1052,-1403 -1419,-1927l-601 1049c-611,1064 -240,2435 825,3046z"/>
  <path class="fil0 str0" d="M75966 48850c0,0 -8178,-20793 -14461,-26742"/>
  <rect class="fil1" transform="matrix(-0.0838779 0.0652634 0.0865404 0.111223 55379.5 10476.4)" width="42000" height="106000" rx="100000" ry="100000"/>
  <path class="fil2" d="M62791 23637l0 0c-969,754 -2378,577 -3131,-391l-761 -978c1030,444 2346,-161 2082,-1660 -265,-1499 -2104,-4645 -2135,-5677l4336 5574c754,968 578,2378 -391,3132z"/>
  <path class="fil3" d="M77036 51653l-948 0c-137,0 -254,-58 -337,-166 -84,-108 -109,-237 -74,-369l5375 -20058c0,0 646,-2575 4472,-4701 5922,-3290 13625,-6466 3694,114 -2461,1630 -5037,3903 -6032,6688 -1927,5394 -3853,16027 -4197,17971 -33,187 -178,324 -366,348l-1192 149c-138,17 -256,24 -395,24z"/>
  <path class="fil4" d="M77044 49887l874 -368c126,-53 211,-152 246,-284 35,-132 8,-260 -76,-368l-12743 -16397c0,0 -1596,-2121 -5947,-2594 -17125,-1860 -7137,246 -851,2147 2133,644 4214,1649 5647,3213 3871,4222 9776,13272 10848,14930 103,159 290,229 472,178l1156 -326c134,-37 246,-76 374,-131z"/>
  <path class="fil5" d="M15466 78005c-7409,-4894 -10431,-9457 -10658,-13417 -1451,-25387 98369,-25735 98946,-1375 182,7674 -5455,14549 -14534,16699 -22365,5298 -61258,6348 -73754,-1907z"/>
  <path class="fil6" d="M119031 156518c0,1915 -3907,3467 -8732,3467 -4823,0 -8732,-1552 -8732,-3467 0,-1914 3909,-3466 8732,-3466 4825,0 8732,1552 8732,3466z"/>
  <path class="fil7" d="M108380 155916c126,-5229 544,-22985 395,-23681 -22,-107 -78,-263 -159,-454 -290,-683 1,-1472 666,-1803 91,-45 156,-143 187,-308 260,-1401 779,-12016 779,-12016 0,0 166,10262 822,10607 617,323 904,1037 678,1695 -229,664 -373,1257 -373,1697 0,1786 188,19154 244,24281 4,389 -132,725 -405,1002 -274,276 -609,416 -997,416l-435 0c-392,0 -730,-143 -1003,-423 -275,-281 -409,-622 -399,-1013z"/>
  <path class="fil4" d="M110473 146580c0,0 -4745,-1219 -6754,-7586 -2006,-6369 -2326,-22275 0,-28641 2326,-6370 7688,-11247 10900,-6910 3211,4335 5157,24304 2942,32840 -2214,8535 -5427,9890 -7088,10297z"/>
  <path class="fil8" d="M108790 102920c3914,395 5923,9015 6756,15242 831,6230 1488,19962 -3954,21588 -5390,1609 -8124,-1787 -8176,-1853 95,387 198,759 303,1097 2009,6367 6754,7586 6754,7586 1661,-407 4874,-1762 7088,-10297 2215,-8536 269,-28505 -2942,-32840 -1618,-2187 -3783,-2029 -5829,-523z"/>
  <path class="fil6" d="M97542 124600c0,1911 -3909,3464 -8731,3464 -4823,0 -8732,-1553 -8732,-3464 0,-1915 3909,-3467 8732,-3467 4822,0 8731,1552 8731,3467z"/>
  <path class="fil7" d="M86891 123997c127,-5229 544,-22985 396,-23681 -22,-107 -79,-264 -160,-456 -290,-684 1,-1472 665,-1802 92,-46 157,-145 188,-310 260,-1398 779,-12016 779,-12016 0,0 167,10265 822,10610 617,323 904,1036 678,1695 -228,662 -372,1255 -372,1694 0,1788 188,19157 243,24284 5,389 -131,725 -405,1002 -273,276 -608,416 -997,416l-435 0c-392,0 -729,-143 -1003,-423 -274,-281 -408,-621 -399,-1013z"/>
  <path class="fil4" d="M88985 114658c0,0 -4748,-1243 -6755,-7736 -2009,-6495 -2325,-22713 0,-29208 2326,-6493 7688,-11469 10901,-7046 3213,4423 5156,24785 2942,33489 -2214,8707 -5427,10089 -7088,10501z"/>
  <path class="fil8" d="M87301 70134c3916,406 5924,9193 6758,15547 829,6351 1486,20357 -3956,22012 -5390,1644 -8124,-1823 -8178,-1889 97,398 200,773 305,1118 2007,6493 6755,7736 6755,7736 1661,-412 4874,-1794 7088,-10501 2214,-8704 271,-29066 -2942,-33489 -1618,-2229 -3784,-2070 -5830,-534z"/>
  <ellipse class="fil9" cx="47481" cy="74782" rx="12097" ry="3682"/>
  <path class="fil10" d="M38320 51788c863,74 1599,538 2049,1203l0 0 1 2c232,344 388,741 446,1166 424,1460 820,4202 -506,7732 -2011,5357 2374,3571 7964,2838 5591,-733 11160,2851 11160,2851 0,0 656,402 2131,-682 1474,-1084 -44,8634 -11755,10228 -11711,1594 -15482,-6015 -14111,-10790 1318,-4589 2670,-7196 2684,-9065 -173,18 -350,21 -530,6 -1516,-129 -2639,-1463 -2511,-2978 129,-1516 1463,-2640 2978,-2511z"/>
  <path class="fil11" d="M61442 69558c-1238,2719 -4594,6610 -11632,7568 -11711,1594 -15482,-6015 -14111,-10790 87,-303 174,-597 261,-883 -5,30 -1607,9503 11346,9153 7722,-208 11965,-2901 14136,-5048z"/>
  <path class="fil12" d="M29774 57074c0,0 2454,0 3857,-1052 1403,-1051 2104,-1402 2104,-1402 0,0 1922,1552 785,2179 -1136,626 -2889,1327 -4993,1327 -2104,0 -2104,-350 -2104,-701 0,-351 351,-351 351,-351z"/>
  <circle class="fil13" cx="38189" cy="54094" r="497"/>
  <ellipse class="fil5" cx="8209" cy="89333" rx="8240" ry="4734"/>
 </g>
</svg>
