<?xml version="1.0" encoding="UTF-8"?>
<!DOCTYPE svg PUBLIC "-//W3C//DTD SVG 1.1//EN" "http://www.w3.org/Graphics/SVG/1.1/DTD/svg11.dtd">
<!-- Creator: CorelDRAW X8 -->
<svg xmlns="http://www.w3.org/2000/svg" xml:space="preserve" width="579px" height="155px" version="1.1" style="shape-rendering:geometricPrecision; text-rendering:geometricPrecision; image-rendering:optimizeQuality; fill-rule:evenodd; clip-rule:evenodd"
viewBox="0 0 579000 155000"
 xmlns:xlink="http://www.w3.org/1999/xlink">
 <defs>
  <style type="text/css">
   <![CDATA[
    .fil0 {fill:#5D39B8}
    .fil1 {fill:#8560DD}
    .fil2 {fill:#AB88FF}
   ]]>
  </style>
 </defs>
 <g id="Слой_x0020_1">
  <metadata id="CorelCorpID_0Corel-Layer"/>
  <polygon class="fil0" points="152212,57313 152621,126274 70960,126363 "/>
  <path class="fil1" d="M35056 105826c-10559,-9387 -21359,-18622 -32395,-27695 -1123,-924 -1613,-2321 -1319,-3762 294,-1440 1288,-2512 2674,-2883 22443,-6000 45036,-11270 67739,-15811 1991,-399 3940,935 4353,2978 3672,18183 7346,36368 11015,54552 342,1695 1691,2911 3372,3039 19849,1508 39487,3604 58893,6261 1852,253 3222,1851 3233,3768 9,1918 -1345,3516 -3195,3770 -41239,5669 -82199,13907 -122637,24716 -1350,361 -2692,-39 -3649,-1090 -957,-1050 -1256,-2450 -815,-3809 4317,-13290 8911,-26561 13781,-39806 559,-1519 151,-3160 -1050,-4228z"/>
  <polygon class="fil0" points="426788,57313 426378,126274 508039,126363 "/>
  <path class="fil1" d="M543943 105827c10559,-9388 21359,-18623 32396,-27696 1122,-923 1612,-2321 1319,-3761 -295,-1441 -1288,-2512 -2675,-2883 -22443,-6001 -45036,-11271 -67739,-15812 -1991,-399 -3940,935 -4353,2978 -3672,18184 -7346,36369 -11015,54552 -342,1696 -1691,2911 -3371,3039 -19849,1509 -39488,3604 -58893,6261 -1853,253 -3223,1851 -3233,3769 -9,1917 1345,3515 3195,3769 41238,5669 82198,13907 122637,24717 1350,360 2691,-40 3648,-1090 957,-1050 1256,-2451 815,-3810 -4317,-13289 -8911,-26561 -13780,-39806 -559,-1519 -152,-3159 1049,-4227z"/>
  <path class="fil2" d="M70131 21140c146047,-28040 295814,-28040 441858,1 1096,210 1968,814 2599,1795 630,983 841,2070 630,3240 -5255,29040 -10511,58080 -15767,87121 -415,2298 -2489,3818 -4644,3405 -134689,-25832 -272804,-25832 -407492,0 -2155,413 -4229,-1107 -4645,-3405 -5257,-29041 -10511,-58081 -15766,-87121 -212,-1169 0,-2257 630,-3240 629,-981 1501,-1585 2597,-1796z"/>
 </g>
</svg>
