<?xml version="1.0" encoding="UTF-8"?>
<!DOCTYPE svg PUBLIC "-//W3C//DTD SVG 1.1//EN" "http://www.w3.org/Graphics/SVG/1.1/DTD/svg11.dtd">
<!-- Creator: CorelDRAW X8 -->
<svg xmlns="http://www.w3.org/2000/svg" xml:space="preserve" width="57px" height="70px" version="1.1" style="shape-rendering:geometricPrecision; text-rendering:geometricPrecision; image-rendering:optimizeQuality; fill-rule:evenodd; clip-rule:evenodd"
viewBox="0 0 57000 70000"
 xmlns:xlink="http://www.w3.org/1999/xlink">
 <defs>
  <style type="text/css">
   <![CDATA[
    .fil3 {fill:#598855}
    .fil2 {fill:#619858}
    .fil1 {fill:#6B4C3B}
    .fil0 {fill:#E2EFF5}
    .fil4 {fill:#FFD100}
   ]]>
  </style>
 </defs>
 <g id="Слой_x0020_1">
  <metadata id="CorelCorpID_0Corel-Layer"/>
  <g id="_1155970815184">
   <path class="fil0" d="M33682 42858c0,2417 4936,4376 11018,4376 6087,0 11019,-1959 11019,-4376 0,-2418 -4932,-4376 -11019,-4376 -6082,0 -11018,1958 -11018,4376z"/>
   <path class="fil1" d="M47252 41018c-226,-5158 -829,-19433 -604,-20143 10,-29 22,-63 39,-99 395,-885 -3,-1929 -888,-2326 -121,-54 -208,-155 -252,-312 -412,-1492 -1237,-12804 -1237,-12804 0,0 -261,10809 -1284,11296 -860,407 -1244,1430 -860,2301 224,509 359,962 359,1320 0,1830 -277,15783 -377,20809 -10,492 160,918 504,1269 344,351 767,529 1258,529l1580 0c500,0 929,-184 1274,-544 345,-360 509,-798 488,-1296z"/>
   <path class="fil2" d="M35366 5627c-2359,1363 -3947,3913 -3947,6833 0,1845 634,3542 1695,4885 -1080,1350 -1727,3061 -1727,4925 0,4355 3530,7885 7886,7885 356,0 708,-23 1052,-69 956,403 2032,630 3171,630 1344,0 2602,-316 3676,-865 691,198 1421,304 2176,304 4355,0 7886,-3530 7886,-7885 0,-1854 -640,-3559 -1711,-4905 1071,-1346 1711,-3051 1711,-4905 0,-4103 -3135,-7474 -7140,-7850 -1245,-2718 -3988,-4606 -7173,-4606 -3568,0 -6583,2371 -7555,5623z"/>
   <path class="fil3" d="M35366 5627c-2359,1363 -3947,3913 -3947,6833 0,1845 634,3542 1695,4885 -1080,1350 -1727,3061 -1727,4925 0,4355 3530,7885 7886,7885 356,0 708,-23 1052,-69 956,403 2032,630 3171,630 1344,0 2602,-316 3676,-865 691,198 1421,304 2176,304 4355,0 7886,-3530 7886,-7885 0,-1655 -510,-3190 -1381,-4458l-330 -447c-10,-13 37,-896 -303,-922 -369,-28 -1127,810 -1141,1064 -58,1084 856,3582 631,5677 -213,1993 -1527,3604 -3022,4004 -3713,992 -4233,413 -4233,413 0,0 -6939,1261 -10408,-316 -3470,-1577 -3155,-7570 -2524,-8201 631,-631 -1577,-4732 -315,-7886 1261,-3154 2523,-4415 2523,-4415 0,0 1547,-5007 6309,-5047 4761,-41 5993,4416 5993,4416 0,0 3785,946 5046,3154 1262,2208 0,8201 0,8201 0,0 754,-1558 2030,-987 714,-1186 1125,-2575 1125,-4060 0,-4103 -3135,-7474 -7140,-7850 -1245,-2718 -3988,-4606 -7173,-4606 -3568,0 -6583,2371 -7555,5623z"/>
   <circle class="fil4" cx="49090" cy="16804" r="1881"/>
   <circle class="fil4" cx="41716" cy="22534" r="1881"/>
   <circle class="fil4" cx="41580" cy="9891" r="1881"/>
   <path class="fil0" d="M2061 65620c0,2418 4936,4376 11019,4376 6086,0 11018,-1958 11018,-4376 0,-2417 -4932,-4376 -11018,-4376 -6083,0 -11019,1959 -11019,4376z"/>
   <path class="fil1" d="M15631 63781c-226,-5159 -829,-19433 -603,-20143 9,-30 22,-64 38,-100 396,-885 -3,-1929 -888,-2326 -121,-54 -208,-155 -251,-311 -413,-1493 -1237,-12805 -1237,-12805 0,0 -262,10810 -1284,11296 -861,408 -1245,1430 -861,2301 225,509 359,962 359,1320 0,1831 -276,15783 -377,20809 -10,492 160,918 504,1269 344,351 767,529 1259,529l1580 0c499,0 928,-183 1273,-544 345,-360 510,-797 488,-1295z"/>
   <path class="fil2" d="M3745 28389c-2359,1363 -3947,3913 -3947,6833 0,1845 634,3542 1696,4885 -1081,1350 -1728,3062 -1728,4925 0,4355 3531,7886 7886,7886 357,0 708,-24 1052,-70 956,403 2032,630 3171,630 1344,0 2602,-316 3676,-865 691,198 1421,305 2176,305 4355,0 7886,-3531 7886,-7886 0,-1854 -640,-3558 -1711,-4905 1071,-1346 1711,-3050 1711,-4905 0,-4103 -3134,-7474 -7139,-7850 -1245,-2718 -3989,-4606 -7174,-4606 -3568,0 -6583,2371 -7555,5623z"/>
   <path class="fil3" d="M3745 28389c-2359,1363 -3947,3913 -3947,6833 0,1845 634,3542 1696,4885 -1081,1350 -1728,3062 -1728,4925 0,4355 3531,7886 7886,7886 357,0 708,-24 1052,-70 956,403 2032,630 3171,630 1344,0 2602,-316 3676,-865 691,198 1421,305 2176,305 4355,0 7886,-3531 7886,-7886 0,-1654 -510,-3190 -1381,-4458l-330 -447c-9,-12 37,-896 -303,-922 -369,-28 -1127,811 -1140,1064 -59,1085 855,3583 630,5678 -213,1993 -1527,3604 -3022,4003 -3712,993 -4232,413 -4232,413 0,0 -6940,1262 -10409,-316 -3470,-1577 -3154,-7570 -2524,-8201 631,-631 -1577,-4731 -315,-7885 1262,-3154 2523,-4416 2523,-4416 0,0 1547,-5006 6309,-5047 4761,-41 5993,4416 5993,4416 0,0 3785,946 5047,3154 1261,2208 0,8201 0,8201 0,0 753,-1557 2029,-986 714,-1186 1125,-2576 1125,-4061 0,-4103 -3134,-7474 -7139,-7850 -1245,-2718 -3989,-4606 -7174,-4606 -3568,0 -6583,2371 -7555,5623z"/>
   <circle class="fil4" cx="17470" cy="39567" r="1881"/>
   <circle class="fil4" cx="10095" cy="45296" r="1881"/>
   <circle class="fil4" cx="9959" cy="32653" r="1881"/>
  </g>
 </g>
</svg>
