<?xml version="1.0" encoding="UTF-8"?>
<!DOCTYPE svg PUBLIC "-//W3C//DTD SVG 1.1//EN" "http://www.w3.org/Graphics/SVG/1.1/DTD/svg11.dtd">
<!-- Creator: CorelDRAW X8 -->
<svg xmlns="http://www.w3.org/2000/svg" xml:space="preserve" width="50px" height="90px" version="1.1" style="shape-rendering:geometricPrecision; text-rendering:geometricPrecision; image-rendering:optimizeQuality; fill-rule:evenodd; clip-rule:evenodd"
viewBox="0 0 50000 90000"
 xmlns:xlink="http://www.w3.org/1999/xlink">
 <defs>
  <style type="text/css">
   <![CDATA[
    .fil3 {fill:#598855}
    .fil2 {fill:#619858}
    .fil1 {fill:#6B4C3B}
    .fil0 {fill:#E2EFF5}
   ]]>
  </style>
 </defs>
 <g id="Слой_x0020_1">
  <metadata id="CorelCorpID_0Corel-Layer"/>
  <g id="_1155789806480">
   <path class="fil0" d="M20871 66655c0,2291 -4686,4152 -10466,4152 -5780,0 -10465,-1861 -10465,-4152 0,-2295 4685,-4156 10465,-4156 5780,0 10466,1861 10466,4156z"/>
   <path class="fil1" d="M8105 65932c152,-6268 652,-27549 474,-28383 -27,-129 -95,-317 -192,-547 -347,-819 2,-1764 798,-2161 110,-54 188,-172 225,-370 311,-1676 934,-14403 934,-14403 0,0 199,12304 985,12717 739,387 1083,1243 812,2031 -273,794 -446,1505 -446,2031 0,2143 226,22962 292,29107 6,466 -157,869 -485,1201 -328,331 -729,498 -1195,498l-521 0c-471,0 -875,-170 -1203,-506 -329,-337 -489,-745 -478,-1215z"/>
   <path class="fil2" d="M10614 54739c0,0 -5691,-1490 -8096,-9272 -2407,-7786 -2787,-27224 0,-35009 2788,-7782 9215,-13747 13065,-8446 3852,5302 6181,29708 3527,40140 -2654,10436 -6505,12093 -8496,12587z"/>
   <path class="fil3" d="M8596 1372c4693,487 7101,11019 8100,18634 994,7613 1781,24400 -4742,26384 -6460,1970 -9737,-2184 -9801,-2264 115,477 239,927 365,1341 2405,7782 8096,9272 8096,9272 1991,-494 5842,-2151 8496,-12587 2654,-10432 325,-34838 -3527,-40140 -1939,-2671 -4535,-2480 -6987,-640z"/>
   <path class="fil0" d="M48295 85832c0,2306 -4707,4173 -10507,4173 -5804,0 -10507,-1867 -10507,-4173 0,-2305 4703,-4173 10507,-4173 5800,0 10507,1868 10507,4173z"/>
   <path class="fil1" d="M35403 85080c216,-4919 791,-18531 576,-19208 -9,-29 -21,-60 -37,-95 -377,-844 3,-1840 847,-2218 115,-52 198,-148 240,-297 393,-1423 1179,-12210 1179,-12210 0,0 250,10308 1225,10772 820,388 1186,1363 820,2193 -214,486 -342,918 -342,1260 0,1745 264,15050 359,19843 10,468 -152,875 -480,1210 -328,334 -732,504 -1200,504l-1507 0c-476,0 -885,-175 -1214,-519 -329,-343 -486,-760 -466,-1235z"/>
   <path class="fil2" d="M38202 76016c0,0 -7186,-848 -10226,-5267 -3038,-4422 -3520,-13548 0,-17970 3518,-4423 9891,-7809 14750,-4798 4861,3009 9553,14960 6202,20883 -3352,5928 -8213,6868 -10726,7152z"/>
   <path class="fil3" d="M38202 76016c2513,-284 7374,-1224 10726,-7152 3351,-5923 -1341,-17874 -6202,-20883 -2030,-1259 -4329,-1396 -6570,-811 0,0 2873,493 5322,2131 2449,1638 8554,15483 2223,20138 -6327,4658 -15725,1310 -15725,1310 3040,4419 10226,5267 10226,5267z"/>
  </g>
 </g>
</svg>
