<?xml version="1.0" encoding="UTF-8"?>
<!DOCTYPE svg PUBLIC "-//W3C//DTD SVG 1.1//EN" "http://www.w3.org/Graphics/SVG/1.1/DTD/svg11.dtd">
<!-- Creator: CorelDRAW X8 -->
<svg xmlns="http://www.w3.org/2000/svg" xml:space="preserve" width="69px" height="98px" version="1.1" style="shape-rendering:geometricPrecision; text-rendering:geometricPrecision; image-rendering:optimizeQuality; fill-rule:evenodd; clip-rule:evenodd"
viewBox="0 0 69000 98000"
 xmlns:xlink="http://www.w3.org/1999/xlink">
 <defs>
  <style type="text/css">
   <![CDATA[
    .fil3 {fill:#598855}
    .fil2 {fill:#619858}
    .fil1 {fill:#6B4C3B}
    .fil0 {fill:#E2EFF5}
   ]]>
  </style>
 </defs>
 <g id="Слой_x0020_1">
  <metadata id="CorelCorpID_0Corel-Layer"/>
  <g id="_1156126932512">
   <path class="fil0" d="M48209 65737c0,2295 -4682,4155 -10466,4155 -5781,0 -10466,-1860 -10466,-4155 0,-2295 4685,-4156 10466,-4156 5784,0 10466,1861 10466,4156z"/>
   <path class="fil1" d="M35443 65014c151,-6267 651,-27549 473,-28383 -26,-128 -94,-315 -191,-544 -347,-819 2,-1765 799,-2161 109,-54 187,-172 224,-369 311,-1680 933,-14403 933,-14403 0,0 200,12300 986,12713 739,387 1084,1243 812,2032 -273,795 -446,1507 -446,2034 0,2141 225,22959 292,29103 5,466 -158,869 -486,1201 -328,331 -729,498 -1195,498l-521 0c-470,0 -874,-170 -1203,-506 -328,-337 -489,-745 -477,-1215z"/>
   <path class="fil2" d="M37951 53824c0,0 -5687,-1461 -8095,-9092 -2405,-7634 -2787,-26698 0,-34329 2788,-7634 9214,-13480 13065,-8282 3848,5195 6181,29131 3526,39361 -2654,10231 -6505,11855 -8496,12342z"/>
   <path class="fil3" d="M35934 1494c4692,473 7100,10805 8098,18269 996,7468 1783,23926 -4739,25875 -6461,1929 -9738,-2142 -9800,-2220 114,464 237,909 363,1314 2408,7631 8095,9092 8095,9092 1991,-487 5842,-2111 8496,-12342 2655,-10230 322,-34166 -3526,-39361 -1939,-2622 -4534,-2432 -6987,-627z"/>
   <path class="fil0" d="M69194 93705c0,2291 -4686,4152 -10466,4152 -5780,0 -10466,-1861 -10466,-4152 0,-2295 4686,-4156 10466,-4156 5780,0 10466,1861 10466,4156z"/>
   <path class="fil1" d="M56427 92982c152,-6267 652,-27549 475,-28383 -27,-128 -95,-317 -192,-547 -348,-819 1,-1764 797,-2160 110,-55 189,-173 225,-371 312,-1676 935,-14402 935,-14402 0,0 199,12303 984,12717 739,386 1084,1242 812,2031 -273,794 -445,1505 -445,2031 0,2143 225,22961 292,29106 5,466 -158,870 -486,1201 -328,331 -729,499 -1195,499l-521 0c-470,0 -874,-171 -1203,-507 -328,-337 -489,-745 -478,-1215z"/>
   <path class="fil2" d="M58936 81789c0,0 -5690,-1490 -8096,-9272 -2407,-7785 -2786,-27224 0,-35009 2788,-7782 9215,-13747 13066,-8445 3851,5301 6180,29707 3526,40139 -2654,10437 -6505,12094 -8496,12587z"/>
   <path class="fil3" d="M56919 28423c4693,486 7100,11019 8099,18634 995,7612 1781,24400 -4741,26383 -6460,1971 -9737,-2184 -9802,-2264 116,478 239,927 365,1341 2406,7782 8096,9272 8096,9272 1991,-493 5842,-2150 8496,-12587 2654,-10432 325,-34838 -3526,-40139 -1939,-2671 -4535,-2481 -6987,-640z"/>
   <path class="fil0" d="M22588 80771c0,2305 -4707,4173 -10507,4173 -5804,0 -10507,-1868 -10507,-4173 0,-2305 4703,-4173 10507,-4173 5800,0 10507,1868 10507,4173z"/>
   <path class="fil1" d="M9696 80019c216,-4919 791,-18531 576,-19208 -9,-28 -21,-60 -37,-95 -377,-844 3,-1839 847,-2218 115,-52 199,-148 240,-297 393,-1423 1179,-12210 1179,-12210 0,0 250,10308 1225,10772 820,388 1187,1363 820,2194 -214,485 -342,917 -342,1259 0,1745 264,15050 359,19843 10,468 -152,875 -480,1210 -328,334 -731,504 -1200,504l-1507 0c-476,0 -885,-175 -1214,-519 -329,-343 -486,-760 -466,-1235z"/>
   <path class="fil2" d="M12495 70955c0,0 -7186,-848 -10226,-5267 -3037,-4422 -3520,-13548 0,-17970 3519,-4422 9891,-7808 14751,-4798 4860,3009 9552,14960 6201,20884 -3352,5927 -8213,6867 -10726,7151z"/>
   <path class="fil3" d="M12495 70955c2513,-284 7374,-1224 10726,-7151 3351,-5924 -1341,-17875 -6201,-20884 -2031,-1259 -4330,-1396 -6571,-811 0,0 2873,493 5323,2131 2448,1638 8553,15483 2222,20138 -6327,4658 -15725,1310 -15725,1310 3040,4419 10226,5267 10226,5267z"/>
  </g>
 </g>
</svg>
