<?xml version="1.0" encoding="UTF-8"?>
<!DOCTYPE svg PUBLIC "-//W3C//DTD SVG 1.1//EN" "http://www.w3.org/Graphics/SVG/1.1/DTD/svg11.dtd">
<!-- Creator: CorelDRAW X8 -->
<svg xmlns="http://www.w3.org/2000/svg" xml:space="preserve" width="53px" height="75px" version="1.1" style="shape-rendering:geometricPrecision; text-rendering:geometricPrecision; image-rendering:optimizeQuality; fill-rule:evenodd; clip-rule:evenodd"
viewBox="0 0 53000 75000"
 xmlns:xlink="http://www.w3.org/1999/xlink">
 <defs>
  <style type="text/css">
   <![CDATA[
    .fil3 {fill:#598855}
    .fil2 {fill:#619858}
    .fil1 {fill:#6B4C3B}
    .fil0 {fill:#E2EFF5}
   ]]>
  </style>
 </defs>
 <g id="Слой_x0020_1">
  <metadata id="CorelCorpID_0Corel-Layer"/>
  <g id="_1155792083408">
   <path class="fil0" d="M30315 70726c0,2305 4706,4173 10506,4173 5804,0 10507,-1868 10507,-4173 0,-2306 -4703,-4173 -10507,-4173 -5800,0 -10506,1867 -10506,4173z"/>
   <path class="fil1" d="M43206 69973c-215,-4919 -790,-18530 -575,-19207 8,-29 21,-61 36,-95 377,-844 -3,-1840 -846,-2218 -116,-52 -199,-148 -240,-297 -394,-1423 -1180,-12210 -1180,-12210 0,0 -249,10307 -1224,10772 -821,388 -1187,1362 -821,2193 214,486 342,918 342,1259 0,1745 -263,15051 -359,19843 -9,469 152,876 480,1210 329,335 732,504 1201,504l1506 0c476,0 885,-175 1215,-518 329,-344 486,-760 465,-1236z"/>
   <path class="fil2" d="M40408 60910c0,0 7185,-848 10226,-5267 3037,-4423 3519,-13548 0,-17970 -3519,-4423 -9892,-7809 -14751,-4798 -4860,3009 -9553,14959 -6201,20883 3352,5927 8212,6867 10726,7152z"/>
   <path class="fil3" d="M40408 60910c-2514,-285 -7374,-1225 -10726,-7152 -3352,-5924 1341,-17874 6201,-20883 2031,-1259 4329,-1396 6570,-811 0,0 -2873,492 -5322,2130 -2449,1639 -8553,15484 -2223,20139 6327,4658 15726,1310 15726,1310 -3041,4419 -10226,5267 -10226,5267z"/>
   <path class="fil0" d="M1669 39097c0,2306 4707,4174 10507,4174 5804,0 10507,-1868 10507,-4174 0,-2305 -4703,-4172 -10507,-4172 -5800,0 -10507,1867 -10507,4172z"/>
   <path class="fil1" d="M14560 38345c-215,-4919 -790,-18530 -575,-19207 9,-29 21,-61 37,-95 377,-844 -3,-1840 -847,-2219 -115,-51 -199,-147 -240,-296 -393,-1423 -1179,-12211 -1179,-12211 0,0 -250,10308 -1225,10772 -820,389 -1186,1364 -820,2194 214,486 342,918 342,1260 0,1745 -264,15050 -359,19842 -9,469 152,876 480,1210 328,335 731,505 1200,505l1507 0c476,0 885,-175 1214,-519 329,-344 486,-760 465,-1236z"/>
   <path class="fil2" d="M11762 29282c0,0 7186,-848 10226,-5267 3038,-4423 3520,-13548 0,-17970 -3519,-4423 -9891,-7809 -14750,-4798 -4860,3009 -9553,14959 -6202,20883 3353,5927 8213,6868 10726,7152z"/>
   <path class="fil3" d="M11762 29282c-2513,-284 -7373,-1225 -10726,-7152 -3351,-5924 1342,-17874 6202,-20883 2031,-1259 4329,-1396 6570,-811 0,0 -2873,492 -5322,2130 -2449,1639 -8554,15484 -2223,20139 6327,4658 15725,1310 15725,1310 -3040,4419 -10226,5267 -10226,5267z"/>
  </g>
 </g>
</svg>
