<?xml version="1.0" encoding="UTF-8"?>
<!DOCTYPE svg PUBLIC "-//W3C//DTD SVG 1.1//EN" "http://www.w3.org/Graphics/SVG/1.1/DTD/svg11.dtd">
<!-- Creator: CorelDRAW X8 -->
<svg xmlns="http://www.w3.org/2000/svg" xml:space="preserve" width="57px" height="70px" version="1.1" style="shape-rendering:geometricPrecision; text-rendering:geometricPrecision; image-rendering:optimizeQuality; fill-rule:evenodd; clip-rule:evenodd"
viewBox="0 0 57000 70000"
 xmlns:xlink="http://www.w3.org/1999/xlink">
 <defs>
  <style type="text/css">
   <![CDATA[
    .fil3 {fill:#598855}
    .fil2 {fill:#619858}
    .fil1 {fill:#6B4C3B}
    .fil0 {fill:#E2EFF5}
    .fil4 {fill:#FFD100}
   ]]>
  </style>
 </defs>
 <g id="Слой_x0020_1">
  <metadata id="CorelCorpID_0Corel-Layer"/>
  <g id="_1155799485808">
   <path class="fil0" d="M23318 42858c0,2418 -4936,4376 -11018,4376 -6087,0 -11019,-1958 -11019,-4376 0,-2418 4932,-4376 11019,-4376 6082,0 11018,1958 11018,4376z"/>
   <path class="fil1" d="M9748 41018c226,-5158 829,-19432 604,-20142 -10,-30 -22,-64 -39,-100 -395,-885 3,-1929 888,-2326 121,-54 208,-155 252,-311 412,-1493 1237,-12805 1237,-12805 0,0 261,10810 1284,11296 860,408 1244,1430 860,2301 -224,509 -359,962 -359,1320 0,1830 277,15783 377,20809 10,492 -160,918 -504,1269 -344,351 -767,529 -1258,529l-1580 0c-500,0 -929,-184 -1274,-544 -345,-360 -509,-797 -488,-1296z"/>
   <path class="fil2" d="M21634 5627c2359,1363 3947,3913 3947,6833 0,1845 -634,3542 -1695,4885 1080,1350 1727,3062 1727,4925 0,4355 -3530,7886 -7886,7886 -356,0 -708,-24 -1052,-70 -956,403 -2032,630 -3171,630 -1344,0 -2602,-316 -3676,-865 -691,198 -1421,305 -2176,305 -4355,0 -7886,-3531 -7886,-7886 0,-1854 640,-3558 1711,-4905 -1071,-1346 -1711,-3051 -1711,-4905 0,-4103 3135,-7474 7140,-7850 1245,-2718 3988,-4606 7173,-4606 3568,0 6583,2371 7555,5623z"/>
   <path class="fil3" d="M21634 5627c2359,1363 3947,3913 3947,6833 0,1845 -634,3542 -1695,4885 1080,1350 1727,3062 1727,4925 0,4355 -3530,7886 -7886,7886 -356,0 -708,-24 -1052,-70 -956,403 -2032,630 -3171,630 -1344,0 -2602,-316 -3676,-865 -691,198 -1421,305 -2176,305 -4355,0 -7886,-3531 -7886,-7886 0,-1654 510,-3190 1381,-4458l330 -447c10,-12 -37,-896 303,-922 369,-28 1127,811 1141,1064 58,1085 -856,3583 -631,5678 213,1993 1527,3604 3022,4003 3713,993 4233,413 4233,413 0,0 6939,1262 10408,-316 3470,-1577 3155,-7570 2524,-8201 -631,-631 1577,-4731 315,-7885 -1261,-3155 -2523,-4416 -2523,-4416 0,0 -1547,-5006 -6309,-5047 -4761,-41 -5993,4416 -5993,4416 0,0 -3785,946 -5046,3154 -1262,2208 0,8201 0,8201 0,0 -754,-1557 -2030,-986 -714,-1186 -1125,-2576 -1125,-4061 0,-4103 3135,-7474 7140,-7850 1245,-2718 3988,-4606 7173,-4606 3568,0 6583,2371 7555,5623z"/>
   <circle class="fil4" cx="7910" cy="16804" r="1881"/>
   <circle class="fil4" cx="15284" cy="22534" r="1881"/>
   <circle class="fil4" cx="15420" cy="9891" r="1881"/>
   <path class="fil0" d="M54939 65620c0,2418 -4936,4376 -11019,4376 -6086,0 -11018,-1958 -11018,-4376 0,-2417 4932,-4376 11018,-4376 6083,0 11019,1959 11019,4376z"/>
   <path class="fil1" d="M41369 63781c226,-5159 829,-19433 603,-20143 -9,-30 -22,-63 -38,-100 -396,-885 3,-1929 888,-2326 121,-54 208,-155 251,-311 413,-1492 1237,-12805 1237,-12805 0,0 262,10810 1284,11297 861,407 1245,1429 861,2300 -225,509 -359,963 -359,1321 0,1830 276,15783 377,20809 10,491 -160,918 -504,1269 -344,350 -767,528 -1259,528l-1580 0c-499,0 -928,-183 -1273,-543 -345,-361 -510,-798 -488,-1296z"/>
   <path class="fil2" d="M53255 28390c2359,1363 3947,3912 3947,6833 0,1844 -634,3541 -1696,4885 1081,1349 1728,3061 1728,4925 0,4355 -3531,7885 -7886,7885 -357,0 -708,-23 -1052,-69 -956,402 -2032,629 -3171,629 -1344,0 -2602,-316 -3676,-864 -691,198 -1421,304 -2176,304 -4355,0 -7886,-3530 -7886,-7885 0,-1855 640,-3559 1711,-4905 -1071,-1347 -1711,-3051 -1711,-4905 0,-4104 3134,-7474 7139,-7850 1245,-2718 3989,-4606 7174,-4606 3568,0 6583,2371 7555,5623z"/>
   <path class="fil3" d="M53255 28390c2359,1363 3947,3912 3947,6833 0,1844 -634,3541 -1696,4885 1081,1349 1728,3061 1728,4925 0,4355 -3531,7885 -7886,7885 -357,0 -708,-23 -1052,-69 -956,402 -2032,629 -3171,629 -1344,0 -2602,-316 -3676,-864 -691,198 -1421,304 -2176,304 -4355,0 -7886,-3530 -7886,-7885 0,-1655 510,-3190 1381,-4458l330 -447c9,-13 -37,-897 303,-922 369,-29 1127,810 1140,1064 59,1084 -855,3582 -630,5677 213,1993 1527,3604 3022,4003 3712,993 4232,413 4232,413 0,0 6940,1262 10409,-315 3470,-1578 3154,-7571 2524,-8201 -631,-631 1577,-4732 315,-7886 -1262,-3154 -2523,-4416 -2523,-4416 0,0 -1547,-5006 -6309,-5047 -4761,-41 -5993,4416 -5993,4416 0,0 -3785,946 -5047,3154 -1261,2208 0,8202 0,8202 0,0 -753,-1558 -2029,-987 -714,-1186 -1125,-2575 -1125,-4060 0,-4104 3134,-7474 7139,-7850 1245,-2718 3989,-4606 7174,-4606 3568,0 6583,2371 7555,5623z"/>
   <circle class="fil4" cx="39530" cy="39567" r="1881"/>
   <circle class="fil4" cx="46905" cy="45296" r="1881"/>
   <circle class="fil4" cx="47041" cy="32654" r="1881"/>
  </g>
 </g>
</svg>
