<?xml version="1.0" encoding="utf-8"?>
<!-- Generator: Adobe Illustrator 23.0.2, SVG Export Plug-In . SVG Version: 6.00 Build 0)  -->
<svg version="1.1" id="Слой_1" xmlns="http://www.w3.org/2000/svg" xmlns:xlink="http://www.w3.org/1999/xlink" x="0px" y="0px"
	 viewBox="0 0 30 30" style="enable-background:new 0 0 30 30;" xml:space="preserve">
<style type="text/css">
	.st0{fill-rule:evenodd;clip-rule:evenodd;fill:url(#SVGID_1_);}
	.st1{fill-rule:evenodd;clip-rule:evenodd;fill:#EE2F53;}
</style>
<g id="gosuslugi-icon-btn">
	
		<linearGradient id="SVGID_1_" gradientUnits="userSpaceOnUse" x1="-50.4041" y1="-12.1791" x2="-50.5071" y2="-11.199" gradientTransform="matrix(25.7452 0 0 29.6937 1314.6772 362.5841)">
		<stop  offset="0.1854" style="stop-color:#0066B3"/>
		<stop  offset="0.7226" style="stop-color:#EE2F53"/>
	</linearGradient>
	<path class="st0" d="M28.7,10.1c-0.2-1.6-1.3-3.6-2.5-4.5c0,0-1.8-1.4-4-2.7S18,0.7,18,0.7c-0.7-0.3-1.6-0.5-2.6-0.5
		s-1.9,0.2-2.6,0.5c0,0-2,0.9-4.2,2.2s-4,2.7-4,2.7C4.1,5.9,3.6,6.4,3.2,7c-0.1,0.1-0.1,0.2,0,0.3c0.1,0.1,0.2,0.2,0.3,0.2H5
		c0.1,0,0.2,0,0.2-0.1C5.4,7.3,5.5,7.1,5.6,7c0,0,1.7-1.3,3.8-2.6s4-2.1,4.1-2.2C14,2.1,14.6,2,15.3,2s1.4,0.1,1.8,0.3
		c0,0,2,0.9,4.1,2.2C23.3,5.7,25,7,25.1,7c0.8,0.6,1.7,2.2,1.8,3.3c0,0.4,0.2,2.4,0.2,4.7s-0.2,4.3-0.2,4.7c-0.1,1.1-1,2.6-1.8,3.3
		c0,0-1.7,1.3-3.8,2.6c-2.1,1.3-4,2.1-4.1,2.2C16.7,27.9,16,28,15.3,28s-1.4-0.1-1.8-0.3c0,0-1.9-0.9-4.1-2.2
		c-2-1.2-3.7-2.5-3.8-2.5c-0.1-0.1-0.2-0.2-0.4-0.3c-0.1-0.1-0.1-0.1-0.2-0.1H3.5c-0.1,0-0.2,0.1-0.3,0.2s0,0.2,0,0.3
		c0.4,0.6,0.9,1.1,1.3,1.4c0,0,1.8,1.4,4,2.7c2.2,1.3,4.2,2.2,4.2,2.2c0.7,0.3,1.6,0.5,2.6,0.5s1.9-0.2,2.6-0.5c0,0,2-0.9,4.2-2.2
		c2.2-1.3,4-2.7,4-2.7c1.2-0.9,2.4-3,2.5-4.5c0,0,0.2-2.3,0.2-4.9C28.9,12.4,28.7,10.1,28.7,10.1z"/>
	<path class="st1" d="M12.9,15.9C13,15.9,13,15.9,12.9,15.9l0.1,3.7l0,0h-0.9l0,0v-2.8h-0.9c-0.1,0.9-0.3,2-0.5,2.8l0,0H9.6l0,0l0,0
		c0.3-1.1,0.6-2.4,0.6-3.6l0,0h2.7V15.9z M24.3,15.9C24.4,15.9,24.4,15.9,24.3,15.9v3.5l0,0c-0.4,0.2-1.1,0.3-1.7,0.3
		c-1.1,0-1.5-0.5-1.5-1.8v-2v-0.1H22c0,0,0,0,0,0.1v1.9c0,0.8,0.1,1,0.7,1c0.2,0,0.4,0,0.6-0.1v-2.8v-0.1h1V15.9z M5.7,15.9
		L5.7,15.9L5.7,15.9c-0.3,1.2-0.8,2.5-1.3,3.9C4.2,20.2,4,20.6,3.8,21l0,0h-1l0,0l0,0c0.1-0.2,0.2-0.3,0.3-0.5s0.2-0.5,0.4-0.8
		L2.2,16l0,0l0,0H3l0,0l0.9,2.5c0.4-1,0.7-1.9,0.8-2.5l0,0h1V15.9z M8.9,18.7l0.3,0.7v0.1c-0.3,0.1-0.9,0.2-1.3,0.2
		c-1.3,0-1.9-0.6-1.9-2s0.6-2,1.9-2c0.4,0,0.8,0.1,1.2,0.2l0,0l0,0c-0.1,0.3-0.3,0.5-0.4,0.7c0,0,0,0-0.1,0
		c-0.3-0.1-0.5-0.1-0.7-0.1C7.1,16.6,7,17,7,17.7c0,0.9,0.3,1.1,0.9,1.1C8.2,18.9,8.6,18.8,8.9,18.7C8.8,18.7,8.9,18.7,8.9,18.7
		L8.9,18.7z M17.3,15.9L17.3,15.9L17.3,15.9c-0.3,1.2-0.8,2.5-1.3,3.9c-0.2,0.5-0.4,0.9-0.6,1.2l0,0h-1l0,0l0,0
		c0.1-0.2,0.2-0.3,0.3-0.5s0.2-0.5,0.4-0.7l-1.3-3.7l0,0l0,0h0.9l0,0l0.9,2.5c0.4-1,0.7-1.9,0.8-2.5l0,0h0.9V15.9z M20.6,15.9
		L20.6,15.9L20.6,15.9c-0.1,0.3-0.2,0.6-0.3,0.8l0,0h-1.4v2.8l0,0H18l0,0v-3.6v-0.1h2.6V15.9z"/>
	<path class="st1" d="M7.1,10.2c1.3,0,1.8,0.5,1.8,2c0,1.4-0.5,2-1.8,2s-1.8-0.6-1.8-2C5.4,10.8,5.8,10.2,7.1,10.2z M7.1,13.4
		c0.6,0,0.8-0.2,0.8-1.2c0-1.1-0.2-1.2-0.8-1.2s-0.8,0.1-0.8,1.2C6.4,13.2,6.5,13.4,7.1,13.4z M12.4,13.2l0.3,0.7V14
		c-0.3,0.1-0.9,0.2-1.3,0.2c-1.3,0-1.9-0.6-1.9-2s0.6-2,1.9-2c0.4,0,0.8,0.1,1.2,0.2l0,0l0,0c-0.1,0.3-0.3,0.5-0.4,0.7
		c0,0,0,0-0.1,0C11.8,11,11.6,11,11.4,11c-0.8,0-0.9,0.4-0.9,1.1c0,0.9,0.3,1.1,0.9,1.1C11.7,13.3,12.1,13.3,12.4,13.2L12.4,13.2
		L12.4,13.2z M5,10.3C5,10.3,5,10.4,5,10.3C5.1,10.4,5.1,10.4,5,10.3c-0.1,0.3-0.2,0.6-0.3,0.8l0,0H3.3V14v0.1H2.4c0,0,0,0,0-0.1
		v-3.6v-0.1C2.4,10.3,5,10.3,5,10.3z"/>
</g>
</svg>
