<svg width="40" height="40" viewBox="0 0 40 40" fill="none" xmlns="http://www.w3.org/2000/svg">
<rect x="1" y="1" width="38" height="38" rx="19" stroke="#323C47" stroke-width="2"/>
<path fill-rule="evenodd" clip-rule="evenodd" d="M23.3846 15.75C23.3846 17.959 21.5699 19.875 19.75 19.875C17.9301 19.875 16.1154 17.959 16.1154 15.75C16.1154 13.541 17.1559 12 19.75 12C22.3441 12 23.3846 13.541 23.3846 15.75ZM19.75 27C16.7634 27.0017 13.7445 26.3296 13.5212 26C13.077 25.3444 13 24.7549 13 24.0053V23.5045C13 21.8452 14.3948 20.5 16.1154 20.5H16.2753C16.8106 20.4999 17.3369 20.6329 17.8034 20.8861C18.5594 21.2962 19.2079 21.5015 19.75 21.5015C20.2921 21.5015 20.9406 21.2967 21.6966 20.8861C22.1631 20.6329 22.6894 20.4999 23.2247 20.5H23.3846C25.1052 20.5 26.5 21.8452 26.5 23.5045V24.0053C26.5011 24.7274 26.4291 25.3444 25.9821 26C25.7597 26.3261 22.7052 26.9983 19.75 27Z" fill="#323C47"/>
</svg>
