<svg width="212" height="100" viewBox="0 0 212 100" fill="none" xmlns="http://www.w3.org/2000/svg">
<path d="M147.77 96.6664C141.98 99.5557 135.162 99.5059 129.415 96.5321L32.6918 46.4845C31.6236 45.9318 30.9732 44.8884 30.8734 43.7715C30.8181 43.1521 30.8734 37.2923 30.8734 37.2923L91.2213 9.60366C97.0694 6.52058 104.049 6.48422 109.929 9.50621C171.696 39.0409 204.471 54.7152 208.252 56.5291C208.619 56.7049 209.365 57.1188 210.491 57.7709C210.548 61.4192 210.526 63.484 210.424 63.9652C210.218 64.9423 209.584 65.819 208.623 66.2988L147.77 96.6664Z" fill="white"/>
<path fill-rule="evenodd" clip-rule="evenodd" d="M129.026 97.2848C135.013 100.383 142.116 100.435 148.148 97.4247L209.001 67.0571C210.171 66.4731 210.988 65.3964 211.253 64.1404C211.375 63.5631 211.398 61.5227 211.339 57.7576C211.334 57.4599 211.174 57.1865 210.916 57.0373C209.77 56.374 209.012 55.9534 208.619 55.7648C204.837 53.9507 172.063 38.2768 110.295 8.74153C104.191 5.60395 96.9187 5.64183 90.8261 8.85386L30.52 36.522C30.2215 36.6589 30.029 36.9559 30.0259 37.2843C29.9885 41.2548 29.9885 43.3899 30.0293 43.8468C30.1573 45.2804 31.0007 46.5637 32.3023 47.2372L129.026 97.2848ZM33.0813 45.7317C32.3001 45.3275 31.7946 44.5584 31.7176 43.696C31.6862 43.3446 31.6847 41.3468 31.716 37.8382L91.5748 10.3739C97.22 7.39919 103.908 7.36435 109.542 10.2599C171.329 39.8049 204.105 55.4796 207.886 57.2932C208.181 57.4348 208.774 57.761 209.651 58.2646C209.697 61.5051 209.673 63.4225 209.595 63.79C209.435 64.5455 208.947 65.1899 208.244 65.5404L147.391 95.908C141.844 98.6765 135.311 98.6287 129.804 95.7793L33.0813 45.7317Z" fill="#323C47"/>
<path d="M147.752 90.8096C141.948 93.7001 135.113 93.6502 129.352 90.6752L32.3871 40.6054C31.77 40.2867 31.2657 39.7863 30.9423 39.1716C30.0706 37.5147 30.7071 35.4647 32.3641 34.5929L91.0636 3.70999C96.9261 0.62561 103.923 0.589238 109.818 3.61251L208.792 54.378C209.435 54.7082 209.957 55.2356 210.279 55.8832C211.114 57.5592 210.432 59.5944 208.756 60.4291L147.752 90.8096Z" fill="white"/>
<path fill-rule="evenodd" clip-rule="evenodd" d="M209.134 61.1877L148.13 91.5682C142.084 94.5792 134.964 94.5272 128.963 91.4282L31.9983 41.3584C31.2269 40.9601 30.5965 40.3345 30.1923 39.5662C29.1026 37.495 29.8982 34.9326 31.9695 33.8429L90.669 2.95993C96.7758 -0.252966 104.065 -0.290853 110.204 2.85839L209.178 53.6239C209.983 54.0366 210.635 54.6959 211.038 55.5054C212.081 57.6003 211.229 60.1444 209.134 61.1877ZM129.741 89.9221C135.262 92.7732 141.812 92.821 147.374 90.0509L208.378 59.6704C209.635 59.0444 210.146 57.518 209.52 56.261C209.279 55.7753 208.888 55.3797 208.405 55.1321L109.431 4.36662C103.782 1.46932 97.0765 1.50418 91.4582 4.46004L32.7587 35.343C31.516 35.9968 31.0386 37.5343 31.6924 38.777C31.9349 39.238 32.3132 39.6133 32.776 39.8523L129.741 89.9221Z" fill="#323C47"/>
<path d="M108.057 85.4808L87.106 74.304L104.285 33.0217L110.196 30.0419C112.154 29.0548 114.468 29.0757 116.408 30.0979L124.624 34.4268C124.936 34.5915 125.19 34.8496 125.348 35.1652C125.769 36.0016 125.431 37.0205 124.595 37.441L116.34 41.5901L141.653 56.3005C142.214 56.6268 142.67 57.1073 142.966 57.6851C143.82 59.3512 143.162 61.3943 141.496 62.2484L108.057 79.39V85.4808Z" fill="#323C47"/>
<path fill-rule="evenodd" clip-rule="evenodd" d="M154.585 55.9982C154.585 60.913 162.554 64.8972 172.383 64.8972C182.213 64.8972 190.181 60.913 190.181 55.9982C190.181 51.0834 182.213 47.0991 172.383 47.0991C162.554 47.0991 154.585 51.0834 154.585 55.9982ZM168.993 53.8794V55.5744H182.554C183.49 55.5744 184.249 56.3333 184.249 57.2695C184.249 58.2056 183.49 58.9645 182.554 58.9645H165.603C164.667 58.9645 163.908 58.2056 163.908 57.2695V53.8794C163.908 52.4751 165.046 51.3368 166.45 51.3368C167.855 51.3368 168.993 52.4751 168.993 53.8794Z" fill="#323C47"/>
<path d="M49.4981 14.3431C54.293 11.9512 59.9365 11.9673 64.7176 14.3865L132.205 44.3553C132.205 44.3553 132.691 50.4813 131.846 52.1519C131.521 52.7932 131.001 53.3148 130.361 53.6413L84.7864 76.8865C79.4518 79.6074 73.135 79.6004 67.8064 76.8679C67.8064 76.8679 25.8543 55.3542 4.87825 44.5974C4.23172 44.2659 2.93865 43.6028 2.93865 43.6028C0.50106 42.2646 1.09067 34.8501 1.09067 34.8501L49.4981 14.3431Z" fill="#FFE371"/>
<path fill-rule="evenodd" clip-rule="evenodd" d="M65.0616 13.6118C60.0879 11.094 54.173 11.0732 49.1436 13.5728L0.76004 34.0696C0.469059 34.1929 0.270827 34.4678 0.245776 34.7828C-0.172387 40.0414 0.50114 43.2315 2.53077 44.3456C3.27312 44.7266 3.55868 44.8731 3.84426 45.0196C4.02279 45.1112 4.20133 45.2027 4.49149 45.3515L67.4196 77.6219C72.9904 80.4787 79.5944 80.486 85.1715 77.6414L130.746 54.3962C131.546 53.988 132.196 53.3361 132.602 52.5345C133.262 51.2292 133.387 48.5331 133.05 44.2882C133.025 43.9783 132.833 43.7068 132.549 43.5806L65.0616 13.6118ZM49.8764 15.1014C54.4315 12.8291 59.7929 12.8444 64.335 15.1426L131.398 44.9242C131.661 48.5592 131.536 50.887 131.089 51.7692C130.846 52.2502 130.456 52.6413 129.976 52.8862L84.4013 76.1314C79.3092 78.7286 73.2795 78.722 68.1931 76.1136L3.32535 42.8486C2.17086 42.2144 1.61022 39.7399 1.89807 35.4284L49.8287 15.1234L49.8764 15.1014Z" fill="#323C47"/>
<path d="M2.9723 31.6198L49.4981 8.41036C54.293 6.01844 59.9365 6.03453 64.7177 8.45374L130.351 41.6636C132.022 42.509 132.691 44.5485 131.846 46.2192C131.521 46.8604 131.001 47.382 130.361 47.7086L84.7865 70.9537C79.4519 73.6746 73.135 73.6677 67.8064 70.9351L2.93867 37.67C1.27265 36.8157 0.614669 34.7725 1.46903 33.1065C1.79883 32.4634 2.32555 31.9425 2.9723 31.6198Z" fill="#FFE371"/>
<path fill-rule="evenodd" clip-rule="evenodd" d="M49.1198 7.65196L2.59397 30.8614C1.78552 31.2647 1.12713 31.9158 0.714869 32.7197C-0.353078 34.8023 0.469398 37.3562 2.55192 38.4242L67.4197 71.6893C72.9905 74.5461 79.5945 74.5533 85.1715 71.7087L130.746 48.4636C131.546 48.0554 132.196 47.4034 132.602 46.6018C133.659 44.5135 132.822 41.9641 130.734 40.9074L65.1003 7.6975C60.0801 5.15733 54.1544 5.14044 49.1198 7.65196ZM2.22317 33.4932C2.47052 33.0109 2.86556 32.6202 3.35062 32.3782L49.8765 9.16876C54.4316 6.89644 59.7929 6.91172 64.335 9.20996L129.969 42.4199C131.222 43.0539 131.723 44.5835 131.089 45.8365C130.846 46.3175 130.456 46.7086 129.976 46.9536L84.4014 70.1987C79.3092 72.796 73.2795 72.7894 68.1931 70.181L3.3254 36.9159C2.07588 36.2751 1.5824 34.7427 2.22317 33.4932Z" fill="#323C47"/>
<path d="M34.5177 40.586C34.5177 40.586 47.3746 46.6162 49.6141 46.3207C51.8536 46.0252 60.0514 43.0967 59.2554 40.0548C58.4594 37.013 48.2582 35.4934 45.9099 33.9889C43.5616 32.4844 39.7752 26.8254 33.2466 26.8254C26.718 26.8254 20.0255 30.4643 22.4807 32.9953C24.936 35.5263 34.5177 40.586 34.5177 40.586Z" fill="#323C47"/>
<path d="M46.7044 28.834C46.2914 26.2865 49.5619 22.1034 55.6978 21.2303C61.8337 20.3571 81.1503 25.9312 65.1064 32.096C51.774 36.5076 47.1174 31.3816 46.7044 28.834Z" fill="#323C47"/>
<path d="M68.4382 47.2348L83.7509 55.1872L87.8023 53.136L72.4878 45.1958L68.4382 47.2348Z" fill="#323C47"/>
<path d="M78.4078 42.2345L97.0635 51.8997L101.112 49.8598L82.4835 40.2008L78.4078 42.2345Z" fill="#323C47"/>
<path d="M80.5206 22.9705L96.0676 16.5558C98.0592 15.3413 100.535 15.2358 102.623 16.2766L112.539 18.6963C112.539 18.6963 112.99 22.9705 111.706 23.731L97.3417 32.19C95.3269 33.3764 92.8429 33.441 90.7691 32.3609C90.7691 32.3609 84.682 29.2252 81.6384 27.6573C79.861 26.4711 80.5206 22.9705 80.5206 22.9705Z" fill="#323C47"/>
<path fill-rule="evenodd" clip-rule="evenodd" d="M113.382 18.6076C113.345 18.2517 113.088 17.9578 112.74 17.873L102.913 15.4751C100.604 14.3603 97.8873 14.4806 95.6849 15.7969L80.1973 22.187C79.9325 22.2963 79.7408 22.532 79.6877 22.8136C79.1918 25.4454 79.6451 27.346 81.1679 28.3623L81.2503 28.4108L90.381 33.1143C92.7106 34.3277 95.5051 34.2551 97.7718 32.9203L112.137 24.4613C113.396 23.7149 113.716 21.7786 113.382 18.6076ZM91.1607 31.6092L82.0731 26.9279C81.3165 26.3963 81.0212 25.317 81.2781 23.5748L96.3909 17.3393L96.5089 17.2794C98.2515 16.2167 100.418 16.1244 102.245 17.0351L102.422 17.1L111.752 19.3765C111.923 21.5351 111.691 22.7549 111.274 23.0019L107.685 25.1155L96.9117 31.4597C95.1487 32.4978 92.9752 32.5543 91.1607 31.6092Z" fill="#323C47"/>
<path d="M80.98 23.872C80.8431 23.8007 80.7283 23.6934 80.6479 23.5616C80.4042 23.1619 80.5306 22.6404 80.9303 22.3967L96.0676 13.1657C98.0592 11.9512 100.535 11.8457 102.623 12.8865L111.603 17.3633C111.896 17.5095 112.141 17.7377 112.307 18.0202C112.782 18.8268 112.513 19.8659 111.706 20.3409L97.3418 28.7998C95.3269 29.9863 92.8429 30.0509 90.7691 28.9708L80.98 23.872Z" fill="white"/>
<path fill-rule="evenodd" clip-rule="evenodd" d="M97.7718 29.5301C95.5051 30.8649 92.7106 30.9376 90.3776 29.7224L80.5885 24.6237C80.3147 24.4811 80.085 24.2664 79.9243 24.0028C79.4369 23.2036 79.6897 22.1605 80.489 21.6731L95.6264 12.4421C97.8669 11.0757 100.652 10.9571 103.001 12.128L111.981 16.6048C112.421 16.8242 112.788 17.1664 113.037 17.5901C113.75 18.8001 113.347 20.3587 112.137 21.0712L97.7718 29.5301ZM102.245 13.645C100.418 12.7343 98.2515 12.8266 96.5089 13.8893L81.3715 23.1203L91.1607 28.2191C92.9752 29.1642 95.1487 29.1077 96.9117 28.0695L111.276 19.6106C111.68 19.3731 111.814 18.8536 111.577 18.4502C111.493 18.309 111.371 18.1949 111.224 18.1218L102.245 13.645Z" fill="#323C47"/>
</svg>
