<svg width="205" height="100" viewBox="0 0 205 100" fill="none" xmlns="http://www.w3.org/2000/svg">
<path d="M140.36 96.1732C134.57 99.0623 127.753 99.0124 122.007 96.0389L25.2917 47.6905C24.2235 47.1378 23.5732 46.0945 23.4734 44.9777C23.4181 44.3584 23.4734 36.8042 23.4734 36.8042L83.8162 9.11786C89.6637 6.03505 96.6431 5.99869 102.522 9.02043C164.284 38.5526 197.056 54.2256 200.837 56.0393C201.204 56.2151 202.077 56.4737 203.204 57.1257C203.26 60.7737 203.111 62.9936 203.009 63.4748C202.803 64.4518 202.169 65.3284 201.208 65.8082L140.36 96.1732Z" fill="white"/>
<path fill-rule="evenodd" clip-rule="evenodd" d="M23.12 36.034L83.421 8.36825C89.5131 5.15649 96.7846 5.11861 102.91 8.26674L201.242 55.2921C201.331 55.3296 201.532 55.4099 201.717 55.4836C201.862 55.5414 201.997 55.5952 202.06 55.6212L202.379 55.7578C202.8 55.944 203.206 56.1479 203.628 56.3923C203.886 56.5415 204.046 56.8149 204.051 57.1125C204.1 60.2808 203.995 62.909 203.838 63.6501C203.573 64.906 202.756 65.9826 201.586 66.5665L140.738 96.9315C134.707 99.9415 127.604 99.8895 121.628 96.797L24.9022 48.4432C23.6006 47.7698 22.7574 46.4867 22.6293 45.0531C22.6117 44.8559 22.6017 44.2437 22.599 43.1997L22.626 36.798C22.6284 36.4691 22.821 36.1712 23.12 36.034ZM200.471 56.8035L102.135 9.7742C96.5016 6.87886 89.8144 6.91369 84.1696 9.88816L24.3161 37.3492L24.3074 38.8202C24.2909 41.5694 24.289 43.4195 24.3006 44.3167L24.3175 44.9023C24.3946 45.7647 24.9 46.5337 25.6706 46.9325L122.396 95.2863C127.902 98.1354 134.434 98.1832 139.981 95.415L200.829 65.0499C201.531 64.6995 202.02 64.0552 202.18 63.2997C202.278 62.8355 202.363 61.0915 202.368 58.8385L202.363 57.6306L202.101 57.4971C201.988 57.4419 201.874 57.3889 201.76 57.3373L201.411 57.1867C201.381 57.1744 201.306 57.1444 201.209 57.1059C201.03 57.0346 200.778 56.9345 200.613 56.8656L200.471 56.8035Z" fill="#323C47"/>
<path d="M140.342 90.317L201.341 59.9391C203.017 59.1045 203.698 57.0694 202.864 55.3936C202.541 54.746 202.02 54.2187 201.377 53.8885L102.411 3.12733C96.5172 0.104319 89.5205 0.140688 83.6585 3.22481L24.964 34.1051C23.3071 34.9768 22.6707 37.0266 23.5423 38.6834C23.8657 39.298 24.37 39.7985 24.987 40.1171L121.944 90.1826C127.704 93.1574 134.538 93.2073 140.342 90.317Z" fill="white"/>
<path fill-rule="evenodd" clip-rule="evenodd" d="M24.5694 33.3551L83.2639 2.47474C89.3702 -0.737885 96.6584 -0.775769 102.798 2.3732L201.763 53.1344C202.568 53.5471 203.219 54.2063 203.622 55.0157C204.666 57.1105 203.813 59.6544 201.718 60.6976L140.72 91.0755C134.674 94.0862 127.556 94.0342 121.555 90.9355L24.5982 40.87C23.8269 40.4717 23.1965 39.8462 22.7924 39.0779C21.7027 37.0069 22.4983 34.4447 24.5694 33.3551ZM200.99 54.6425L102.024 3.88131C96.376 0.984255 89.6709 1.01911 84.0531 3.97472L25.3586 34.855C24.1159 35.5088 23.6386 37.0461 24.2923 38.2888C24.5348 38.7497 24.9131 39.125 25.3758 39.364L122.332 89.4295C127.853 92.2804 134.402 92.3282 139.964 89.5583L200.963 59.1804C202.22 58.5545 202.731 57.0282 202.105 55.7713C201.863 55.2856 201.473 54.8901 200.99 54.6425Z" fill="#323C47"/>
<path d="M171.327 50.8474C173.433 50.8474 175.141 49.8988 175.141 48.7288C175.141 47.5587 173.433 46.6101 171.327 46.6101C169.221 46.6101 167.514 47.5587 167.514 48.7288C167.514 49.8988 169.221 50.8474 171.327 50.8474Z" fill="#323C47"/>
<path d="M178.954 55.0847C181.06 55.0847 182.768 54.1362 182.768 52.9661C182.768 51.796 181.06 50.8474 178.954 50.8474C176.848 50.8474 175.141 51.796 175.141 52.9661C175.141 54.1362 176.848 55.0847 178.954 55.0847Z" fill="#323C47"/>
<path d="M186.581 58.4746C188.688 58.4746 190.395 57.526 190.395 56.3559C190.395 55.1859 188.688 54.2373 186.581 54.2373C184.475 54.2373 182.768 55.1859 182.768 56.3559C182.768 57.526 184.475 58.4746 186.581 58.4746Z" fill="#323C47"/>
<path d="M75.0447 23.6262L92.1288 33.2491L51.9229 54.2651L43.1099 56.6582L32.2204 50.6036L37.3659 42.425L75.0447 23.6262Z" fill="#323C47"/>
<path d="M3.23729 36.9842C2.61869 36.6553 2.11722 36.1427 1.80186 35.5171C1.58674 35.0903 1.47034 34.6397 1.44408 34.1912C1.36745 32.8826 1.44408 28.336 1.44408 28.336L37.3941 13.7801C41.2384 11.8424 45.7744 11.8453 49.6161 13.7879L77.3066 23.9854C77.3066 23.9854 77.3676 29.5846 77.3066 30.2091C77.1981 31.319 76.5447 32.3524 75.4785 32.899L41.0857 50.5306C37.1382 52.5543 32.4503 52.5191 28.5336 50.4362L3.23729 36.9842Z" fill="#FFE371"/>
<path fill-rule="evenodd" clip-rule="evenodd" d="M1.12604 27.5504L37.0127 13.0233C41.0815 10.9723 45.8796 10.9675 49.9514 13.0078L49.9509 13.0076L77.5995 23.1901C77.8965 23.2995 78.1049 23.5637 78.1465 23.8719L78.154 23.9761C78.1904 27.3151 78.1948 29.3041 78.1646 30.0523L78.15 30.2914C78.0107 31.7165 77.1639 32.9873 75.8652 33.653L41.4724 51.2846C37.2781 53.4348 32.2973 53.3974 28.1358 51.1844L2.83941 37.7324C2.06616 37.3212 1.43932 36.6805 1.04512 35.8985C0.781771 35.376 0.63163 34.8135 0.598083 34.2406C0.55702 33.5394 0.547895 32.1956 0.570083 30.1963L0.596755 28.3216C0.602485 27.9817 0.810868 27.678 1.12604 27.5504ZM76.4644 24.5779L49.3233 14.5831L49.2337 14.5441C45.6321 12.7229 41.3796 12.7201 37.7122 14.5655L2.28222 28.911L2.27621 29.3268C2.24585 31.4656 2.24568 32.9641 2.2751 33.8094L2.2901 34.1415C2.31017 34.4843 2.39999 34.8208 2.55863 35.1356C2.79515 35.6048 3.17125 35.9892 3.6352 36.2359L28.9316 49.6879C32.6035 51.6406 36.9983 51.6736 40.6991 49.7763L75.0919 32.1448C75.8719 31.7449 76.3794 30.9834 76.4632 30.1265C76.4828 29.9257 76.4917 29.2102 76.4893 28.0064L76.4644 24.5779Z" fill="#323C47"/>
<path d="M3.2373 31.052L28.5337 44.504C32.4504 46.5868 37.1382 46.622 41.0858 44.5983L75.4786 26.9667C77.1445 26.1126 77.8027 24.0697 76.9487 22.4037C76.6218 21.7661 76.1012 21.2485 75.4618 20.9251L49.6162 7.85568C45.7744 5.91301 41.2384 5.9101 37.3941 7.84786L3.30307 25.032C1.6313 25.8747 0.959186 27.9131 1.80187 29.5848C2.11723 30.2105 2.6187 30.723 3.2373 31.052Z" fill="#FFE371"/>
<path fill-rule="evenodd" clip-rule="evenodd" d="M2.9216 24.2753L37.0127 7.09115C41.0972 5.03229 45.9167 5.03537 49.9986 7.09946L75.8442 20.1689C76.6435 20.5731 77.2942 21.2201 77.7028 22.0172C78.7704 24.0997 77.9476 26.6533 75.8652 27.7209L41.4723 45.3525C37.2781 47.5027 32.2972 47.4653 28.1357 45.2523L2.83939 31.8003C2.06614 31.3891 1.4393 30.7484 1.0451 29.9663C-0.00825506 27.8766 0.831883 25.3287 2.9216 24.2753ZM75.0794 21.6814L49.2337 8.61199C45.6321 6.79074 41.3795 6.78801 37.7756 8.60466L3.68451 25.7888C2.43068 26.4208 1.9266 27.9496 2.55861 29.2034C2.79513 29.6727 3.17124 30.0571 3.63518 30.3038L28.9315 43.7558C32.6034 45.7084 36.9983 45.7415 40.6991 43.8442L75.0919 26.2126C76.3414 25.5721 76.8351 24.0399 76.1945 22.7904C75.9493 22.3122 75.559 21.9239 75.0794 21.6814Z" fill="#323C47"/>
<path d="M103.954 57.0503L113.499 62.7387C115.463 63.9089 117.884 64.0108 119.939 63.0098L128.927 58.6315C129.769 58.2216 130.119 57.2071 129.709 56.3655C129.556 56.0515 129.31 55.7925 129.004 55.6237L118.429 49.7889L103.954 57.0503Z" fill="#323C47"/>
<path d="M88.701 68.8826L94.4116 72.3724C95.2104 72.8606 95.4622 73.9038 94.974 74.7025C94.806 74.9775 94.563 75.1989 94.2735 75.3407L91.845 76.5306L91.8067 81.8707L77.1486 74.1257L83.8373 68.4197L88.701 68.8826Z" fill="#323C47"/>
<path d="M84.2567 35.1604C86.1498 34.2392 88.3634 34.2497 90.2476 35.1888L125.712 47.0582C125.712 47.0582 125.786 53.0223 125.786 53.5642C125.786 54.1062 125.689 54.3412 125.526 54.6669C125.368 54.9843 125.114 55.244 124.801 55.4096L117.504 59.2622C115.525 60.307 113.158 60.308 111.178 59.2647L77.4306 41.482C76.9011 41.2031 76.5804 40.6835 76.5319 40.1286C76.5045 39.8155 76.5319 33.1057 76.5319 33.1057L84.2567 35.1604Z" fill="#FFE371"/>
<path fill-rule="evenodd" clip-rule="evenodd" d="M75.6795 39.9716L75.6844 33.1023C75.6866 32.5471 76.2132 32.144 76.7497 32.2867L84.1805 34.2628L84.3834 34.1778C86.3126 33.4037 88.48 33.4496 90.3794 34.3131L90.5661 34.4017L125.981 46.2546C126.288 46.3575 126.507 46.6255 126.551 46.9409L126.559 47.0476L126.634 53.5642C126.634 54.182 126.54 54.5332 126.285 55.0449C126.048 55.521 125.667 55.9107 125.196 56.159L117.899 60.0117C115.673 61.1871 113.01 61.1881 110.783 60.0145L77.0355 42.2318C76.2618 41.8241 75.7623 41.0569 75.6876 40.2024C75.6845 40.1664 75.6818 40.0898 75.6795 39.9716ZM84.0389 35.9794L77.3746 34.2068L77.3735 34.6364C77.3639 37.4044 77.3632 39.1729 77.3703 39.8041L77.3761 40.0548C77.4011 40.3412 77.5671 40.5961 77.8256 40.7323L111.573 58.515C113.305 59.4278 115.376 59.427 117.108 58.5128L124.405 54.6602C124.562 54.5774 124.689 54.4475 124.768 54.2888C124.913 53.9987 124.939 53.9002 124.939 53.5642L124.871 47.6695L89.9786 35.9925L89.8695 35.9473C88.2208 35.1256 86.2839 35.1163 84.6275 35.9224C84.4445 36.0115 84.2355 36.0317 84.0389 35.9794Z" fill="#323C47"/>
<path d="M88.1013 66.8733L95.3767 71.3726C97.355 72.596 99.8223 72.7198 101.913 71.7007L111.284 67.1332C112.125 66.7231 112.475 65.7085 112.065 64.867C111.919 64.5673 111.687 64.3173 111.4 64.1483L102.118 58.6947L88.1013 66.8733Z" fill="#323C47"/>
<path d="M66.4601 44.4824C68.3532 43.5612 70.5668 43.5717 72.451 44.5109L107.904 56.4423C107.904 56.4423 107.953 62.3106 107.953 62.8869C107.953 63.4632 107.881 63.6861 107.73 63.9889C107.572 64.3063 107.318 64.5661 107.004 64.7316L99.7071 68.5842C97.7281 69.629 95.361 69.63 93.3812 68.5868L59.634 50.8041C59.1312 50.5391 58.8166 50.0572 58.7446 49.5341C58.6981 49.1956 58.7446 42.5515 58.7446 42.5515L66.4601 44.4824Z" fill="#FFE371"/>
<path fill-rule="evenodd" clip-rule="evenodd" d="M57.8745 48.0378L57.8972 42.5455C57.9011 41.9966 58.4178 41.5961 58.9504 41.7294L66.3771 43.5881L66.5868 43.4998C68.5161 42.7256 70.6834 42.7715 72.5829 43.6351L72.7721 43.7246L108.174 55.6391C108.482 55.7428 108.701 56.0121 108.743 56.3282L108.751 56.4352L108.8 62.8002L108.797 63.0946C108.78 63.6225 108.694 63.9543 108.488 64.3669C108.251 64.843 107.87 65.2327 107.4 65.481L100.103 69.3336C97.8764 70.509 95.2134 70.5101 92.9862 69.3365L59.2389 51.5538C58.5047 51.1669 58.0159 50.4556 57.9051 49.6495C57.8869 49.517 57.8769 48.9963 57.8745 48.0378ZM66.2544 45.3045L59.5848 43.6347L59.5737 45.7392C59.5652 47.7612 59.5678 49.0061 59.5794 49.3374L59.5842 49.4186C59.6214 49.6889 59.7836 49.925 60.029 50.0543L93.7763 67.837C95.5086 68.7498 97.5798 68.749 99.3114 67.8348L106.609 63.9822C106.765 63.8994 106.892 63.7695 106.971 63.6108C107.082 63.3881 107.105 63.285 107.105 62.8869L107.06 57.0525L72.1807 45.314L72.073 45.2693C70.4243 44.4475 68.4874 44.4383 66.8309 45.2444C66.6518 45.3316 66.4477 45.3528 66.2544 45.3045Z" fill="#323C47"/>
<path d="M49.5109 52.957C51.404 52.0358 53.6176 52.0463 55.5018 52.9855L90.9413 64.9815C90.9413 64.9815 91.0588 70.2538 91.0588 70.8937C91.0588 71.5337 90.9774 72.0688 90.7807 72.4635C90.6225 72.7809 90.3687 73.0407 90.0551 73.2062L82.7579 77.0588C80.7789 78.1037 78.4118 78.1046 76.432 77.0614L42.6848 59.2787C41.8566 58.8423 41.7218 57.8486 41.6948 56.8778C41.6677 55.907 41.7876 50.979 41.7876 50.979L49.5109 52.957Z" fill="#FFE371"/>
<path fill-rule="evenodd" clip-rule="evenodd" d="M40.866 54.3775L40.9404 50.9584C40.9536 50.4137 41.47 50.0228 41.9978 50.158L49.4305 52.061L49.6377 51.9744C51.5669 51.2002 53.7343 51.2462 55.6337 52.1097L55.8212 52.1983L91.2131 64.1787C91.5169 64.2816 91.7336 64.5456 91.7797 64.8572L91.7886 64.9626C91.8672 68.4902 91.9062 70.4572 91.9062 70.8937L91.9021 71.1513C91.88 71.8239 91.7679 72.3826 91.5392 72.8415C91.3018 73.3176 90.9212 73.7073 90.4508 73.9556L83.1536 77.8082C80.9272 78.9836 78.2643 78.9847 76.037 77.8111L42.2897 60.0284C41.2194 59.4644 40.8914 58.4747 40.8477 56.9013C40.8367 56.5093 40.8429 55.6704 40.866 54.3775ZM42.6093 52.0636L42.5505 55.0168C42.5364 55.9384 42.5335 56.5522 42.5419 56.8542L42.5487 57.0372C42.5907 57.922 42.7514 58.3558 43.0799 58.5289L76.8271 76.3116C78.5595 77.2244 80.6306 77.2236 82.3622 76.3094L89.6594 72.4568C89.8162 72.374 89.9431 72.2441 90.0222 72.0854C90.1431 71.843 90.2113 71.4433 90.2113 70.8937C90.2113 70.8546 90.211 70.8019 90.2103 70.7354L90.1068 65.5932L55.2301 53.7882L55.1238 53.7439C53.4751 52.9221 51.5382 52.9129 49.8818 53.719C49.7012 53.8069 49.4953 53.8277 49.3007 53.7779L42.6093 52.0636Z" fill="#323C47"/>
<path d="M59.6824 41.0009L66.4601 37.7028C68.3532 36.7816 70.5668 36.7921 72.451 37.7312L106.969 54.9362C107.807 55.3538 108.147 56.3715 107.73 57.2093C107.572 57.5267 107.318 57.7864 107.004 57.952L99.707 61.8046C97.7281 62.8494 95.361 62.8504 93.3812 61.8071L59.6339 44.0244C58.8058 43.5881 58.4882 42.563 58.9246 41.7348C59.0927 41.4158 59.3582 41.1587 59.6824 41.0009Z" fill="#FFE371"/>
<path fill-rule="evenodd" clip-rule="evenodd" d="M59.3116 40.2388L66.0893 36.9407C68.219 35.9043 70.7093 35.9161 72.829 36.9727L107.347 54.1777C108.604 54.8041 109.115 56.3306 108.488 57.5872C108.251 58.0633 107.87 58.453 107.4 58.7014L100.103 62.554C97.8763 63.7294 95.2134 63.7304 92.9861 62.5568L59.2389 44.7741C57.9966 44.1195 57.5203 42.5819 58.1748 41.3397C58.427 40.8611 58.8252 40.4755 59.3116 40.2388ZM106.591 55.6946L72.0729 38.4896C70.4242 37.6679 68.4873 37.6587 66.8309 38.4647L60.0532 41.7629C59.8911 41.8418 59.7584 41.9703 59.6743 42.1298C59.4561 42.5439 59.6149 43.0564 60.029 43.2746L93.7763 61.0573C95.5086 61.9701 97.5798 61.9693 99.3114 61.0551L106.609 57.2025C106.765 57.1197 106.892 56.9898 106.971 56.8311C107.18 56.4122 107.01 55.9034 106.591 55.6946Z" fill="#323C47"/>
<path d="M42.7333 49.4754L49.511 46.1772C51.404 45.256 53.6176 45.2666 55.5018 46.2057L90.0198 63.4107C90.8576 63.8283 91.1983 64.846 90.7807 65.6837C90.6225 66.0011 90.3687 66.2609 90.0551 66.4265L82.7579 70.2791C80.7789 71.3239 78.4119 71.3249 76.4321 70.2816L42.6848 52.4989C41.8567 52.0625 41.5391 51.0375 41.9754 50.2093C42.1436 49.8903 42.409 49.6332 42.7333 49.4754Z" fill="#FFE371"/>
<path fill-rule="evenodd" clip-rule="evenodd" d="M42.3625 48.7134L49.1401 45.4153C51.2698 44.3789 53.7601 44.3908 55.8799 45.4473L90.3979 62.6523C91.6546 63.2787 92.1655 64.8052 91.5392 66.0618C91.3018 66.5379 90.9212 66.9276 90.4508 67.176L83.1536 71.0286C80.9272 72.204 78.2643 72.205 76.037 71.0314L42.2897 53.2487C41.0475 52.5941 40.5711 51.0565 41.2257 49.8143C41.4779 49.3357 41.8761 48.9501 42.3625 48.7134ZM89.6418 64.1692L55.1238 46.9642C53.4751 46.1425 51.5382 46.1333 49.8818 46.9393L43.1041 50.2375C42.942 50.3164 42.8092 50.4449 42.7252 50.6044C42.507 51.0185 42.6658 51.531 43.0799 51.7492L76.8271 69.5319C78.5595 70.4448 80.6306 70.4439 82.3622 69.5297L89.6594 65.6771C89.8162 65.5943 89.9431 65.4644 90.0222 65.3057C90.231 64.8869 90.0607 64.378 89.6418 64.1692Z" fill="#323C47"/>
<path d="M77.479 31.6788L84.2567 28.3806C86.1497 27.4594 88.3633 27.4699 90.2476 28.4091L124.766 45.6141C125.603 46.0317 125.944 47.0493 125.526 47.8871C125.368 48.2045 125.114 48.4643 124.801 48.6299L117.504 52.4825C115.525 53.5273 113.158 53.5282 111.178 52.485L77.4305 34.7023C76.6024 34.2659 76.2848 33.2408 76.7212 32.4127C76.8893 32.0937 77.1548 31.8366 77.479 31.6788Z" fill="#FFE371"/>
<path fill-rule="evenodd" clip-rule="evenodd" d="M77.1082 30.9168L83.8859 27.6186C86.0156 26.5823 88.5059 26.5941 90.6256 27.6507L125.144 44.8557C126.4 45.482 126.911 47.0085 126.285 48.2652C126.048 48.7413 125.667 49.131 125.197 49.3793L117.899 53.2319C115.673 54.4073 113.01 54.4084 110.783 53.2348L77.0355 35.4521C75.7933 34.7975 75.3169 33.2599 75.9715 32.0177C76.2236 31.5391 76.6218 31.1535 77.1082 30.9168ZM124.388 46.3726L89.8696 29.1676C88.2209 28.3458 86.284 28.3366 84.6275 29.1427L77.8499 32.4408C77.6877 32.5197 77.555 32.6483 77.4709 32.8078C77.2528 33.2219 77.4115 33.7344 77.8256 33.9526L111.573 51.7353C113.305 52.6481 115.376 52.6473 117.108 51.7331L124.405 47.8805C124.562 47.7977 124.689 47.6678 124.768 47.5091C124.977 47.0902 124.806 46.5814 124.388 46.3726Z" fill="#323C47"/>
<path d="M50.5899 79.972V74.214L65.4725 59.3719L84.7812 73.2321L84.6359 78.9498L67.2696 75.352L50.5899 79.972Z" fill="white"/>
<path fill-rule="evenodd" clip-rule="evenodd" d="M49.9914 73.6139L64.8741 58.7718C65.1676 58.4791 65.6299 58.4417 65.9667 58.6834L85.2754 72.5436C85.5034 72.7072 85.6356 72.9731 85.6284 73.2536L85.4831 78.9712C85.4696 79.4994 84.9814 79.8867 84.464 79.7795L67.2974 76.2229L50.8161 80.7887C50.308 80.9294 49.8052 80.578 49.7478 80.0691L49.7424 79.972V74.214C49.7424 73.9888 49.832 73.7729 49.9914 73.6139ZM83.922 73.6593L65.561 60.4788L51.4373 74.5652V78.8576L67.0434 74.5352C67.1407 74.5083 67.2419 74.499 67.342 74.5076L67.4415 74.5221L83.8144 77.9135L83.922 73.6593Z" fill="#323C47"/>
<path d="M50.5899 74.0398L65.4725 53.4397L84.6359 73.0175L67.2696 69.4197L50.5899 74.0398Z" fill="white"/>
<path fill-rule="evenodd" clip-rule="evenodd" d="M49.8518 73.6224L49.9029 73.5434L64.7856 52.9434C65.0933 52.5174 65.7105 52.4713 66.0781 52.8468L85.2415 72.4246C85.8269 73.0227 85.2834 74.017 84.464 73.8473L67.2975 70.2906L50.8161 74.8564C50.075 75.0617 49.4829 74.2612 49.8518 73.6224ZM82.0847 71.6228L65.5703 54.7516L52.6907 72.5779L67.0434 68.603C67.1408 68.576 67.2419 68.5667 67.342 68.5753L67.4416 68.5898L82.0847 71.6228Z" fill="#323C47"/>
<path d="M68.4604 69.672V75.3586H66.7654V69.672H68.4604Z" fill="#323C47"/>
<path d="M85.4095 73.0618V78.7484H83.7146V73.0618H85.4095Z" fill="#323C47"/>
</svg>
