<svg width="211" height="100" viewBox="0 0 211 100" fill="none" xmlns="http://www.w3.org/2000/svg">
<path d="M146.528 96.994C140.687 99.909 133.809 99.8586 128.011 96.8585L30.4315 46.3681C29.3538 45.8105 28.6977 44.7578 28.597 43.631C28.5412 43.0062 28.597 37.0946 28.597 37.0946L89.4789 9.16085C95.3787 6.05049 102.42 6.01381 108.352 9.06254C170.666 38.8586 203.73 54.6716 207.545 56.5015C207.915 56.6789 208.797 56.9398 209.933 57.5976C209.99 61.2782 209.839 63.518 209.737 64.0035C209.528 64.9892 208.889 65.8736 207.919 66.3577L146.528 96.994Z" fill="white"/>
<path fill-rule="evenodd" clip-rule="evenodd" d="M28.2404 36.3174L89.0801 8.40442C95.2267 5.16396 102.563 5.12575 108.743 8.30201L207.954 55.7476C208.043 55.7854 208.247 55.8664 208.434 55.9408C208.58 55.9991 208.716 56.0533 208.779 56.0796L209.101 56.2174C209.526 56.4052 209.935 56.611 210.361 56.8576C210.621 57.0081 210.783 57.2839 210.788 57.5842C210.838 60.7808 210.731 63.4325 210.573 64.1802C210.305 65.4473 209.482 66.5336 208.301 67.1227L146.91 97.759C140.824 100.796 133.658 100.743 127.618 97.6179L30.0385 47.1274C28.7253 46.4479 27.8745 45.1533 27.7453 43.707C27.7206 43.4305 27.7107 42.5444 27.7149 41.0146L27.7419 37.0864C27.7451 36.7552 27.9393 36.4555 28.2404 36.3174ZM207.176 57.2724L107.961 9.82297C102.278 6.90176 95.5306 6.93691 89.8354 9.93795L29.4464 37.6444L29.4267 40.575C29.4211 41.9129 29.4244 42.8187 29.4361 43.2724L29.4486 43.5549C29.5263 44.425 30.0362 45.2008 30.8243 45.6087L128.403 96.0991C133.959 98.9737 140.549 99.0219 146.146 96.2289L207.537 65.5926C208.246 65.2391 208.739 64.5889 208.9 63.8267C209.003 63.3397 209.092 61.456 209.09 59.0504L209.084 58.1069L208.82 57.9723C208.706 57.9166 208.592 57.8631 208.476 57.8111L208.124 57.6591C208.094 57.6467 208.018 57.6164 207.92 57.5775C207.74 57.5056 207.486 57.4046 207.32 57.3351L207.176 57.2724Z" fill="#323C47"/>
<path d="M146.51 91.0854L208.053 60.4361C209.744 59.5941 210.432 57.5408 209.59 55.85C209.265 55.1966 208.739 54.6645 208.09 54.3315L108.24 3.11672C102.293 0.0666986 95.2342 0.103392 89.3198 3.21507L30.1008 34.3713C28.4292 35.2508 27.787 37.3189 28.6665 38.9905C28.9927 39.6106 29.5015 40.1155 30.1241 40.437L127.947 90.9498C133.759 93.9512 140.654 94.0015 146.51 91.0854Z" fill="white"/>
<path fill-rule="evenodd" clip-rule="evenodd" d="M29.7027 33.6147L88.9217 2.45842C95.0825 -0.782904 102.436 -0.821127 108.63 2.35598L208.48 53.5707C209.292 53.9871 209.949 54.6522 210.356 55.4688C211.408 57.5824 210.548 60.149 208.435 61.2015L146.891 91.8508C140.791 94.8885 133.609 94.836 127.555 91.7096L29.7318 41.1967C28.9536 40.7949 28.3176 40.1638 27.9098 39.3887C26.8104 37.2991 27.6131 34.714 29.7027 33.6147ZM207.7 55.0923L107.85 3.87759C102.151 0.954654 95.386 0.989818 89.718 3.97184L30.499 35.1281C29.2453 35.7877 28.7637 37.3388 29.4233 38.5925C29.6679 39.0575 30.0495 39.4362 30.5165 39.6773L128.339 90.1902C133.909 93.0665 140.517 93.1147 146.129 90.3201L207.672 59.6708C208.94 59.0393 209.457 57.4993 208.825 56.2312C208.581 55.7412 208.187 55.3421 207.7 55.0923Z" fill="#323C47"/>
<path d="M139.397 48.7761L161.302 60.234L167.137 57.3471L145.229 45.8934L139.397 48.7761Z" fill="#323C47"/>
<path d="M149.524 43.8173L155.385 40.9476L183.916 55.8379L178.058 58.6851L149.524 43.8173Z" fill="#323C47"/>
<path d="M125.933 52.4263L133.244 56.761C134.163 57.306 134.463 58.4873 133.914 59.3995C133.725 59.7133 133.45 59.9671 133.121 60.1314L120.568 66.3975L121.751 67.2285C122.625 67.8423 122.833 69.043 122.214 69.9104C122.027 70.1724 121.777 70.3839 121.487 70.5255L105.252 78.4515C105.252 79.3802 104.793 80.077 103.875 80.542C102.957 81.007 102.069 81.2452 101.209 81.2565V82.6943L83.7417 73.8413L88.1786 61.3122L125.933 52.4263Z" fill="#323C47"/>
<path d="M2.27174 46.6477C1.87059 46.4465 1.54378 46.1237 1.33835 45.7255C0.802187 44.6865 1.13863 38.3383 1.13863 38.3383L52.611 17.0423C55.0236 15.8045 57.8843 15.7915 60.3082 17.0072L127.083 45.7255C127.083 45.7255 127.168 51.7589 127.083 52.2095C126.967 52.8246 126.58 53.3825 125.981 53.695L76.0758 79.7131C73.6541 80.9757 70.7708 80.9984 68.3294 79.7741L2.27174 46.6477Z" fill="#FFE371"/>
<path fill-rule="evenodd" clip-rule="evenodd" d="M0.785618 36.706L52.1365 15.156C54.8351 13.7514 58.0324 13.7298 60.7484 15.0956L127.452 44.2C127.793 44.3488 128.029 44.6653 128.081 45.0305L128.092 45.1695C128.146 49.0832 128.151 51.1427 128.093 51.7997L128.074 51.9552C127.895 52.9164 127.296 53.7509 126.422 54.2132L76.5581 80.5868C73.8359 82.0266 70.5949 82.0524 67.8505 80.6563L1.84776 47.0773C1.24654 46.7714 0.756737 46.2805 0.448837 45.6752C-0.00746249 44.7781 -0.0949407 42.5096 0.0922411 38.4712L0.133312 37.6399C0.154854 37.2275 0.408565 36.8643 0.785618 36.706ZM125.981 45.8926L59.8926 17.0585L59.5576 16.8974C57.5 15.9567 55.1208 16.0145 53.0279 17.0999L2.21686 38.4272L2.17005 39.5751C2.07012 42.4042 2.13763 44.1785 2.31264 44.6444L2.33416 44.694C2.43679 44.8958 2.60006 45.0594 2.80047 45.1614L68.8033 78.7403C70.9377 79.8262 73.4585 79.8061 75.5758 78.6863L125.439 52.3127C125.732 52.1581 125.93 51.8814 125.99 51.5591C126.009 51.4582 126.018 50.7561 126.014 49.5429L125.981 45.8926Z" fill="#323C47"/>
<path d="M2.17877 39.5851L68.2887 72.7115C70.7321 73.9358 73.6176 73.9131 76.0413 72.6505L125.986 46.6324C127.025 46.091 127.427 44.8126 126.884 43.7772C126.678 43.3847 126.353 43.0665 125.956 42.8675L60.2612 9.94457C57.8354 8.72888 54.9724 8.74192 52.5578 9.97966L2.16137 35.8137C1.11849 36.3483 0.708062 37.6239 1.24465 38.6629C1.45025 39.061 1.77731 39.3839 2.17877 39.5851Z" fill="#FFE371"/>
<path fill-rule="evenodd" clip-rule="evenodd" d="M1.72725 35.2893L52.082 9.10237C54.7961 7.69089 58.0143 7.67602 60.7411 9.06236L126.382 42.4351C126.977 42.7377 127.463 43.2215 127.772 43.8183C128.586 45.3927 127.984 47.3364 126.426 48.1596L76.523 74.5332C73.7986 75.973 70.555 75.9989 67.8085 74.6027L1.75334 41.0237C1.15164 40.7178 0.661454 40.2269 0.35331 39.6216C-0.4509 38.0418 0.164234 36.1022 1.72725 35.2893ZM125.428 44.3509L59.7877 10.9782C57.6669 9.89994 55.1638 9.91151 53.0529 11.0093L2.6981 37.1963C2.1771 37.4672 1.97205 38.1138 2.24012 38.6404C2.34284 38.8422 2.50623 39.0058 2.7068 39.1078L68.762 72.6867C70.8982 73.7726 73.421 73.7525 75.5399 72.6327L125.443 46.2591C125.962 45.9847 126.163 45.3368 125.892 44.812C125.789 44.613 125.627 44.4518 125.428 44.3509Z" fill="#323C47"/>
<path d="M16.1429 37.1599L23.1634 33.2565L50.4467 47.5249L43.4512 51.4173L16.1429 37.1599Z" fill="#323C47"/>
<path d="M74.6613 50.4083L74.7539 55.9709C74.7735 57.1508 75.4515 58.2194 76.5077 58.7355L91.6749 66.1457V72.6362L93.5157 73.6291C95.9077 74.9193 98.776 74.955 101.199 73.7247L111.352 68.5697C112.707 67.8815 113.581 66.5055 113.631 64.9807L114.01 53.5157L74.6613 50.4083Z" fill="white"/>
<path fill-rule="evenodd" clip-rule="evenodd" d="M73.6526 50.4488C73.6422 49.8402 74.1691 49.355 74.7887 49.4027L114.681 52.4742C115.243 52.5175 115.67 52.9858 115.652 53.5373L115.268 64.8704C115.204 66.7545 114.097 68.4547 112.379 69.305L102.086 74.4008C99.3225 75.7689 96.051 75.7292 93.3229 74.2944L91.4566 73.3129C91.1147 73.1331 90.9014 72.7837 90.9014 72.4036L90.9007 66.6324L76.1173 59.591C74.7575 58.9433 73.8615 57.6349 73.7563 56.1685L73.7465 55.9474L73.6526 50.4488ZM113.53 54.4729L75.7966 51.5675L75.8724 55.9321C75.8857 56.7096 76.3439 57.4138 77.0578 57.7539L92.4347 65.0788C92.7974 65.2515 93.0276 65.6119 93.0276 66.0069L93.0269 71.8048L94.3387 72.495C96.3721 73.5644 98.7937 73.6373 100.884 72.705L101.154 72.5777L111.447 67.4819C112.478 66.9717 113.143 65.9516 113.181 64.8211L113.53 54.4729Z" fill="#323C47"/>
<path d="M76.2805 45.77L82.1016 42.4483C86.9614 39.6753 92.8288 39.6068 97.747 42.2658L112.889 50.4523C113.907 51.0028 114.304 52.3087 113.776 53.369C113.57 53.7816 113.242 54.1142 112.84 54.3175L100.366 60.6351C97.9923 61.8371 95.2114 61.7936 92.8737 60.5177L76.3315 51.4896C74.8071 50.6576 74.2191 48.6965 75.018 47.1092C75.303 46.5431 75.7422 46.0772 76.2805 45.77Z" fill="white"/>
<path fill-rule="evenodd" clip-rule="evenodd" d="M75.8413 44.8103L81.743 41.5385C86.978 38.6364 93.2984 38.5648 98.5964 41.3475L113.948 49.411C115.497 50.2244 116.1 52.1537 115.296 53.7203C114.983 54.3299 114.485 54.8213 113.874 55.1217L101.227 61.3443C98.5196 62.6763 95.3478 62.6281 92.6814 61.2143L75.9101 52.3218C73.8495 51.2292 73.0546 48.6536 74.1346 46.5691C74.5198 45.8255 75.1136 45.2137 75.8413 44.8103ZM112.996 51.321L97.6446 43.2576C92.97 40.8022 87.3931 40.8654 82.774 43.4261L76.8723 46.6978C76.5084 46.8995 76.2116 47.2055 76.0189 47.5772C75.4789 48.6195 75.8764 49.9073 76.9067 50.4536L93.678 59.3461C95.7518 60.4457 98.2188 60.4832 100.324 59.4472L112.972 53.2246C113.175 53.1245 113.341 52.9607 113.446 52.7575C113.714 52.2353 113.513 51.5922 112.996 51.321Z" fill="#323C47"/>
<path d="M82.2538 48.3039L86.8708 45.9367C88.3264 45.1903 90.0739 45.172 91.5464 45.8877L93.8311 46.9982L85.1744 51.4173L82.2723 50.0024C81.7772 49.7611 81.5813 49.1831 81.8347 48.7115C81.9278 48.5383 82.074 48.3961 82.2538 48.3039Z" fill="#323C47"/>
</svg>
