<?xml version="1.0" encoding="UTF-8"?>
<svg xmlns="http://www.w3.org/2000/svg" xmlns:xlink="http://www.w3.org/1999/xlink" viewBox="0 0 48 48" width="48px" height="48px">
<g id="surface117780332">
<path style=" stroke:none;fill-rule:nonzero;fill:rgb(16.078432%,71.372551%,96.470588%);fill-opacity:1;" d="M 24 0.667969 C 11.113281 0.667969 0.667969 11.113281 0.667969 24 C 0.667969 36.886719 11.113281 47.332031 24 47.332031 C 36.886719 47.332031 47.332031 36.886719 47.332031 24 C 47.332031 11.113281 36.886719 0.667969 24 0.667969 Z M 24 0.667969 "/>
<path style=" stroke:none;fill-rule:nonzero;fill:rgb(100%,100%,100%);fill-opacity:1;" d="M 35.609375 13.5 L 31.238281 35.8125 C 31.238281 35.8125 31.050781 36.832031 29.785156 36.832031 C 29.113281 36.832031 28.765625 36.515625 28.765625 36.515625 L 19.300781 28.660156 L 14.667969 26.324219 L 8.726562 24.742188 C 8.726562 24.742188 7.667969 24.4375 7.667969 23.5625 C 7.667969 22.832031 8.753906 22.484375 8.753906 22.484375 L 33.625 12.605469 C 33.621094 12.605469 34.382812 12.332031 34.9375 12.332031 C 35.277344 12.332031 35.667969 12.480469 35.667969 12.917969 C 35.667969 13.207031 35.609375 13.5 35.609375 13.5 Z M 35.609375 13.5 "/>
<path style=" stroke:none;fill-rule:nonzero;fill:rgb(69.01961%,74.509805%,77.254903%);fill-opacity:1;" d="M 22.832031 31.589844 L 18.835938 35.527344 C 18.835938 35.527344 18.664062 35.660156 18.429688 35.664062 C 18.351562 35.667969 18.261719 35.65625 18.175781 35.617188 L 19.300781 28.65625 Z M 22.832031 31.589844 "/>
<path style=" stroke:none;fill-rule:nonzero;fill:rgb(81.176472%,84.705883%,86.274511%);fill-opacity:1;" d="M 30.878906 17.230469 C 30.683594 16.972656 30.320312 16.925781 30.0625 17.121094 L 14.667969 26.332031 C 14.667969 26.332031 17.125 33.207031 17.5 34.398438 C 17.875 35.589844 18.175781 35.617188 18.175781 35.617188 L 19.300781 28.65625 L 30.769531 18.046875 C 31.027344 17.851562 31.074219 17.484375 30.878906 17.230469 Z M 30.878906 17.230469 "/>
</g>
</svg>
