<?xml version="1.0" encoding="UTF-8"?>
<!DOCTYPE svg PUBLIC "-//W3C//DTD SVG 1.1//EN" "http://www.w3.org/Graphics/SVG/1.1/DTD/svg11.dtd">
<!-- Creator: CorelDRAW X8 -->
<svg xmlns="http://www.w3.org/2000/svg" xml:space="preserve" width="88px" height="110px" version="1.1" style="shape-rendering:geometricPrecision; text-rendering:geometricPrecision; image-rendering:optimizeQuality; fill-rule:evenodd; clip-rule:evenodd"
viewBox="0 0 88000 110000"
 xmlns:xlink="http://www.w3.org/1999/xlink">
 <defs>
  <style type="text/css">
   <![CDATA[
    .fil5 {fill:#333333}
    .fil8 {fill:gray}
    .fil7 {fill:#B3B3B3}
    .fil9 {fill:#E6E6E6}
    .fil4 {fill:#4D4D4D;fill-rule:nonzero}
    .fil3 {fill:#5873FF;fill-rule:nonzero}
    .fil1 {fill:#999999;fill-rule:nonzero}
    .fil10 {fill:#B3B3B3;fill-rule:nonzero}
    .fil0 {fill:#CCCCCC;fill-rule:nonzero}
    .fil2 {fill:#E6E6E6;fill-rule:nonzero}
    .fil6 {fill:#FFD101;fill-rule:nonzero}
   ]]>
  </style>
 </defs>
 <g id="Слой_x0020_1">
  <metadata id="CorelCorpID_0Corel-Layer"/>
  <polygon class="fil0" points="62221,92335 80281,92335 80281,44192 62221,44192 "/>
  <polygon class="fil0" points="7771,92335 25831,92335 25831,44192 7771,44192 "/>
  <polygon class="fil0" points="32721,77860 56445,77860 56445,32319 32721,32319 "/>
  <path class="fil1" d="M88000 63080l0 45346c0,838 -679,1517 -1517,1517l-84966 0c-838,0 -1517,-679 -1517,-1517l0 -45346c0,-838 679,-1517 1517,-1517l3035 0c838,0 1517,679 1517,1517l0 4511c0,837 679,1517 1517,1517l4552 0c838,0 1517,-680 1517,-1517l0 -4511c0,-838 680,-1517 1517,-1517l3035 0c838,0 1517,679 1517,1517l0 4511c0,837 679,1517 1518,1517l4551 0c838,0 1517,-680 1517,-1517l0 -4511c0,-838 680,-1517 1518,-1517l3034 0c838,0 1517,679 1517,1517l0 4511c0,837 680,1517 1518,1517l4551 0c838,0 1518,-680 1518,-1517l0 -4511c0,-838 679,-1517 1517,-1517l3034 0c838,0 1518,679 1518,1517l0 4511c0,837 679,1517 1517,1517l4551 0c838,0 1518,-680 1518,-1517l0 -4511c0,-838 679,-1517 1517,-1517l3034 0c838,0 1518,679 1518,1517l0 4511c0,837 679,1517 1517,1517l4551 0c839,0 1518,-680 1518,-1517l0 -4511c0,-838 679,-1517 1517,-1517l3035 0c837,0 1517,679 1517,1517l0 4511c0,837 679,1517 1517,1517l4552 0c838,0 1517,-680 1517,-1517l0 -4511c0,-838 679,-1517 1517,-1517l3035 0c838,0 1517,679 1517,1517z"/>
  <path class="fil2" d="M42125 54248l0 -5774c0,-1357 1100,-2458 2458,-2458 1357,0 2458,1101 2458,2458l0 5774 -4916 0z"/>
  <path class="fil3" d="M5985 45583l16109 0 5523 0c703,0 1170,-583 877,-1094l-10816 -18846c-6,-9 -11,-19 -17,-28l0 0c-6,-9 -12,-18 -18,-26l0 0c-363,-528 -1321,-528 -1684,0l0 0c-6,8 -12,17 -18,26l0 0c-6,9 -11,19 -17,28l-556 970 0 0 -10260 17876c-293,511 175,1094 877,1094z"/>
  <path class="fil2" d="M14343 58272l0 -5774c0,-1358 1100,-2458 2458,-2458 1357,0 2458,1100 2458,2458l0 5774 -4916 0z"/>
  <path class="fil3" d="M60435 45583l16109 0 5523 0c703,0 1170,-583 877,-1094l-10816 -18846c-6,-9 -11,-19 -17,-28l0 0c-6,-9 -12,-18 -18,-26l0 0c-363,-528 -1321,-528 -1684,0l0 0c-7,8 -12,17 -18,26l0 0c-6,9 -11,19 -17,28l-556 970 0 0 -10259 17876c-294,511 174,1094 876,1094z"/>
  <path class="fil2" d="M68793 58272l0 -5774c0,-1358 1101,-2458 2458,-2458 1357,0 2458,1100 2458,2458l0 5774 -4916 0z"/>
  <path class="fil4" d="M56923 109943l-26572 0c-1200,-3002 -1884,-6452 -1884,-10124 0,-11580 6792,-20967 15170,-20967 8378,0 15170,9387 15170,20967 0,3672 -684,7122 -1884,10124z"/>
  <ellipse class="fil5" cx="44000" cy="97856" rx="12138" ry="8364"/>
  <path class="fil3" d="M31621 36032l19305 0 6618 0c844,0 1402,-699 1051,-1312l-12962 -22584c-6,-12 -13,-23 -20,-33l0 0c-7,-12 -14,-22 -21,-32l0 -1c-436,-632 -1583,-632 -2019,0l0 1c-7,10 -14,20 -21,32l0 0c-7,10 -13,21 -20,33l-667 1162 0 0 -12295 21422c-351,613 209,1312 1051,1312z"/>
  <polygon class="fil3" points="15390,28011 18322,28011 18322,15361 15390,15361 "/>
  <path class="fil6" d="M29135 22236c-4583,4748 -9167,-4748 -13750,0l0 -6783c4583,-4749 9167,4749 13750,0l0 6783z"/>
  <rect class="fil7" x="7288" y="75381" width="11308" height="6297" rx="43580" ry="40568"/>
  <rect class="fil8" x="10723" y="87260" width="11308" height="6297" rx="43580" ry="40568"/>
  <rect class="fil8" x="3710" y="98995" width="11308" height="6297" rx="43580" ry="40568"/>
  <path class="fil9" d="M45284 97314l6011 -3077c0,0 200,2967 -1195,4126 -1545,1283 -3782,428 -4816,-1049zm-3294 0l-6011 -3077c0,0 -200,2967 1195,4126 1545,1283 3781,428 4816,-1049z"/>
  <polygon class="fil3" points="43165,13986 46097,13986 46097,1336 43165,1336 "/>
  <polygon class="fil3" points="69840,27736 72772,27736 72772,15086 69840,15086 "/>
  <path class="fil6" d="M83542 21961c-4584,4748 -9167,-4748 -13750,0l0 -6783c4583,-4748 9166,4749 13750,0l0 6783z"/>
  <rect class="fil7" x="72981" y="93122" width="11308" height="6297" rx="43580" ry="40568"/>
  <rect class="fil8" x="66111" y="81244" width="11308" height="6297" rx="43580" ry="40568"/>
  <path class="fil5" d="M35568 100640l-4928 2169c-296,130 -510,332 -658,618l-1551 3010 -521 -3380c-87,-562 167,-1092 659,-1377l2817 -1631c308,-178 634,-227 981,-147l3201 738z"/>
  <path class="fil5" d="M38999 103216l-4929 2169c-295,130 -509,332 -657,618l-1551 3010 -522 -3380c-86,-562 167,-1092 660,-1377l2817 -1631c308,-178 634,-227 981,-147l3201 738z"/>
  <path class="fil5" d="M51734 100640l4929 2169c296,130 510,332 658,618l1550 3010 522 -3380c87,-562 -167,-1092 -659,-1377l-2817 -1631c-308,-178 -634,-227 -981,-147l-3202 738z"/>
  <path class="fil5" d="M49158 103216l4929 2169c295,130 510,332 657,618l1551 3010 522 -3380c87,-562 -167,-1092 -659,-1377l-2817 -1631c-308,-178 -634,-227 -982,-147l-3201 738z"/>
  <path class="fil10" d="M62207 94771l0 15172 -6069 0 0 -15172c0,-6704 -5434,-12138 -12138,-12138 -6704,0 -12138,5434 -12138,12138l0 15172 -6069 0 0 -15172c0,-10056 8151,-18207 18207,-18207 10056,0 18207,8151 18207,18207z"/>
  <path class="fil6" d="M56833 8211c-4584,4748 -9167,-4748 -13750,0l0 -6783c4583,-4749 9166,4748 13750,0l0 6783z"/>
 </g>
</svg>
