<svg id="Слой_1" data-name="Слой 1" xmlns="http://www.w3.org/2000/svg" width="30.72" height="40" viewBox="0 0 30.72 40"><defs><style>.cls-1{fill:#a4d1dd;}</style></defs><title>locked</title><path class="cls-1" d="M3.81,40H28.19a3.17,3.17,0,0,0,3.17-3.17V19.36a3.17,3.17,0,0,0-3.17-3.17h-.08V12a12,12,0,1,0-24,0v4.18H3.81A3.17,3.17,0,0,0,.64,19.36V36.83A3.16,3.16,0,0,0,3.81,40ZM17.44,28.56v1.17a.52.52,0,0,1-.16.37l-1.07,1.07a.09.09,0,0,0,0,.12l.8.8a.12.12,0,0,1,0,.17l-.89.89a.08.08,0,0,0,0,.11l.75.76a.36.36,0,0,1,.12.27v.3l-1,1a.23.23,0,0,1-.32,0l-.9-.78a.69.69,0,0,1-.24-.52V28.51a2.95,2.95,0,1,1,3,0ZM9.35,12a6.75,6.75,0,1,1,13.5,0v4.17H9.35Zm0,0" transform="translate(-0.64)"/></svg>