<svg id="Слой_1" data-name="Слой 1" xmlns="http://www.w3.org/2000/svg" width="30.72" height="40" viewBox="0 0 30.72 40"><defs><style>.cls-1{fill:#5771ff;}</style></defs><title>opened</title><path class="cls-1" d="M28.19,16.19H9.35V12A6.74,6.74,0,0,1,19.81,6.38a7.62,7.62,0,0,1,.64.48,6.52,6.52,0,0,1,.9.92l.27.35a13.39,13.39,0,0,1,1.1,2.38,2.88,2.88,0,0,0,1.17,1.34,2.55,2.55,0,0,0,2.89-.29,2.47,2.47,0,0,0,.76-1.78c0-.26,0-.51-.05-.77a8.11,8.11,0,0,0-.92-2.81q-.13-.25-.3-.51a11.25,11.25,0,0,0-.75-1.06A12,12,0,0,0,16.1,0,12.29,12.29,0,0,0,6,5.62,12.28,12.28,0,0,0,4.09,12v4.18H3.81A3.17,3.17,0,0,0,.64,19.36V36.83A3.16,3.16,0,0,0,3.81,40H28.19a3.17,3.17,0,0,0,3.17-3.17V19.36A3.17,3.17,0,0,0,28.19,16.19ZM17.44,28.56v1.17a.52.52,0,0,1-.16.37l-1.07,1.07a.09.09,0,0,0,0,.12l.8.8a.12.12,0,0,1,0,.17l-.89.89a.08.08,0,0,0,0,.11l.75.76a.36.36,0,0,1,.12.27v.3l-1,1a.23.23,0,0,1-.32,0l-.9-.78a.69.69,0,0,1-.24-.52V28.51a2.95,2.95,0,1,1,3,0Z" transform="translate(-0.64 0)"/><path class="cls-1" d="M9.35,12" transform="translate(-0.64 0)"/></svg>