<?xml version="1.0" encoding="UTF-8"?>
<!DOCTYPE svg PUBLIC "-//W3C//DTD SVG 1.1//EN" "http://www.w3.org/Graphics/SVG/1.1/DTD/svg11.dtd">
<!-- Creator: CorelDRAW X8 -->
<svg xmlns="http://www.w3.org/2000/svg" xml:space="preserve" width="88px" height="110px" version="1.1" style="shape-rendering:geometricPrecision; text-rendering:geometricPrecision; image-rendering:optimizeQuality; fill-rule:evenodd; clip-rule:evenodd"
viewBox="0 0 88000 110000"
 xmlns:xlink="http://www.w3.org/1999/xlink">
 <defs>
  <style type="text/css">
   <![CDATA[
    .fil5 {fill:#5873FF}
    .fil4 {fill:#B3B3B3}
    .fil3 {fill:#BDBDBD}
    .fil2 {fill:#CCCCCC}
    .fil1 {fill:#D9D9D9}
    .fil0 {fill:#E6E6E6}
    .fil7 {fill:#FFD101}
    .fil6 {fill:white;fill-rule:nonzero}
   ]]>
  </style>
 </defs>
 <g id="Слой_x0020_1">
  <metadata id="CorelCorpID_0Corel-Layer"/>
  <g id="_1156137551264">
   <path class="fil0" d="M81261 109504l-74520 0c-1563,3 -2861,-1208 -2966,-2769l-2774 -41714 44483 -4448 41517 4448 -2781 41714c-104,1558 -1397,2768 -2959,2769l0 0zm0 0z"/>
   <polygon class="fil1" points="2943,94216 2286,81246 85713,81246 85055,94216 "/>
   <polygon class="fil2" points="1317,69766 1002,65022 45485,60573 87002,65022 86685,69766 "/>
   <path class="fil2" d="M74276 103118l-60549 0c-1270,3 -2325,-1168 -2409,-2677l-2254 -40331 36142 -4301 33733 4301 -2259 40331c-85,1506 -1136,2676 -2404,2677l0 0zm0 0z"/>
   <polygon class="fil3" points="10970,94216 10418,81246 77581,81246 77028,94216 "/>
   <polygon class="fil4" points="9609,69706 9064,59946 45206,55645 78939,59946 78393,69706 "/>
   <path class="fil0" d="M26209 39814c-5279,0 -7118,2284 -10380,5932 -2195,2446 -919,5501 -1483,8896 -163,964 -2965,1957 -2965,2965l-2966 7414 -7414 0 0 -8896c-2,-4326 1715,-8476 4775,-11536 3060,-3059 7210,-4777 11535,-4775l8898 0zm0 0z"/>
   <path class="fil0" d="M87001 56125l0 8896 -7413 0 -2966 -7414c0,-1008 -1319,-2001 -1483,-2965 -563,-3395 -771,-6450 -2965,-8896 -3262,-3648 -5101,-5932 -10380,-5932l8897 0c4327,-2 8476,1716 11536,4775 3059,3060 4777,7210 4774,11536zm0 0z"/>
   <path class="fil0" d="M79588 57607l0 7414 -71173 0 0 -7414c1,-993 85,-1985 252,-2965l35334 -4448 35335 4448c167,980 250,1972 252,2965l0 0zm0 0z"/>
   <path class="fil2" d="M75065 45746l-31064 1482 -31063 -1482c3372,-3783 8203,-5941 13271,-5932l35585 0c5068,-9 9899,2149 13271,5932zm0 0z"/>
   <path class="fil4" d="M79336 60078l-70669 0c-148,-5859 -1040,-8420 4271,-14332l62127 0c5262,5859 4271,8896 4271,14332l0 0z"/>
   <circle class="fil5" cx="44001" cy="65022" r="15154"/>
   <path class="fil6" d="M43217 67701l-402 -3251 100 -100c2476,-94 3713,-856 3713,-2288 0,-575 -207,-1037 -622,-1385 -415,-348 -977,-522 -1686,-522 -1191,0 -2281,529 -3271,1586l-1505 -1606c1311,-1485 2923,-2227 4836,-2227 1419,0 2556,371 3412,1113 857,743 1285,1743 1285,3001 0,1191 -368,2111 -1104,2759 -736,649 -1713,1081 -2930,1295l-201 1625 -1625 0zm-583 4436l0 -2750 2690 0 0 2750 -2690 0z"/>
   <path class="fil7" d="M44915 1185l2115 6553c136,420 511,692 952,691l6885 -13c440,-1 815,271 951,689 136,420 -7,859 -364,1118l-5578 4036c-357,259 -501,700 -363,1119l2140 6544c137,419 -6,859 -363,1118 -356,259 -818,259 -1175,-1l-5562 -4058c-356,-260 -820,-260 -1176,0l-5563 4058c-356,260 -818,260 -1175,1 -356,-259 -499,-699 -362,-1118l2140 -6544c138,-419 -6,-860 -363,-1119l-5578 -4036c-357,-259 -501,-698 -364,-1118 136,-418 511,-690 951,-689l6885 13c441,1 816,-271 952,-691l2115 -6553c135,-419 510,-691 950,-691 440,0 815,272 950,691z"/>
   <path class="fil7" d="M17705 12520l1511 4683c97,300 365,494 680,494l4921 -10c314,0 582,194 679,493 97,300 -5,614 -260,799l-3986 2884c-255,185 -358,500 -260,799l1530 4676c97,300 -4,614 -259,799 -255,185 -585,185 -840,-1l-3975 -2899c-254,-186 -586,-186 -840,0l-3975 2899c-254,186 -585,186 -839,1 -255,-185 -357,-499 -259,-799l1529 -4676c98,-299 -4,-614 -260,-799l-3986 -2884c-255,-185 -357,-499 -260,-799 97,-299 365,-493 680,-493l4920 10c315,0 583,-194 680,-494l1511 -4683c97,-299 364,-494 679,-494 315,0 582,195 679,494z"/>
   <path class="fil7" d="M71583 12520l1511 4683c97,300 365,494 680,494l4920 -10c315,0 582,194 680,493 97,300 -5,614 -260,799l-3986 2884c-256,185 -358,500 -260,799l1529 4676c98,300 -4,614 -259,799 -254,185 -585,185 -839,-1l-3975 -2899c-255,-186 -586,-186 -841,0l-3974 2899c-254,186 -585,186 -840,1 -255,-185 -356,-499 -259,-799l1530 -4676c98,-299 -5,-614 -260,-799l-3986 -2884c-255,-185 -358,-499 -260,-799 97,-299 365,-493 679,-493l4921 10c315,0 583,-194 680,-494l1511 -4683c97,-299 364,-494 679,-494 315,0 582,195 679,494z"/>
  </g>
 </g>
</svg>
