<?xml version="1.0"?>
<svg xmlns="http://www.w3.org/2000/svg" height="512px" viewBox="0 -48 511.99985 511" width="512px"><g><path d="m510.660156 235.929688-51.699218-202.855469c-2.851563-11.1875-9.894532-20.597657-19.828126-26.496094-9.933593-5.898437-21.566406-7.574219-32.753906-4.722656l-336.558594 85.769531c-15.558593 3.980469-27.390624 16.222656-31.21875 31.296875h-2.417968c-19.953125 0-36.183594 16.234375-36.183594 36.1875v223.449219c0 19.949218 16.230469 36.183594 36.183594 36.183594h361.410156c19.953125 0 36.183594-16.230469 36.183594-36.183594v-78.425782l45.652344-11.628906c23.09375-5.882812 37.105468-29.460937 31.230468-52.574218zm-435.890625-128.925782 336.550781-85.769531c12.414063-3.164063 25.09375 4.363281 28.261719 16.777344l3.996094 15.6875-27.121094 6.910156c-5.355469 1.363281-8.585937 6.808594-7.222656 12.160156 1.363281 5.351563 6.8125 8.582031 12.160156 7.222657l27.113281-6.910157 11.40625 44.730469-38.71875 9.863281c-.273437-.234375-.558593-.464843-.839843-.691406-6.390625-5.199219-14.527344-8.0625-22.761719-8.0625h-6.21875c-.277344-.003906-.554688-.007813-.832031-.007813h-121.898438l77.710938-19.800781c5.355469-1.363281 8.585937-6.808593 7.222656-12.160156s-6.800781-8.582031-12.160156-7.222656l-153.773438 39.183593h-127.800781c2.976562-5.773437 8.332031-10.222656 14.925781-11.910156zm339.007813 271.554688c0 8.921875-7.257813 16.183594-16.183594 16.183594h-361.410156c-8.921875 0-16.183594-7.261719-16.183594-16.183594v-223.449219c0-8.925781 7.261719-16.183594 16.183594-16.183594h355.132812.128906 6.148438c8.796875 0 16.1875 7.378907 16.1875 16.183594v223.449219zm60.714844-109.4375-40.710938 10.375v-124.390625c0-2.160157-.203125-4.324219-.589844-6.449219-.195312-1.085938-.441406-2.15625-.734375-3.210938l32.398438-8.253906 26.421875 103.671875c3.160156 12.421875-4.371094 25.097657-16.785156 28.257813zm0 0" data-original="#000000" class="active-path" data-old_color="#448be1" fill="#448be1"/><path d="m271.273438 238.0625h.003906.003906 14.050781c5.519531 0 10-4.476562 10-10s-4.476562-10-10-10h-4.054687v-13.433594h4.054687c5.523438 0 10-4.476562 10-10v-10.207031c0-3.121094-1.460937-6.066406-3.945312-7.957031l-29.714844-22.609375c-3.578125-2.722657-8.535156-2.722657-12.109375 0l-29.71875 22.609375c-2.484375 1.890625-3.945312 4.835937-3.945312 7.957031v10.207031c0 5.519532 4.476562 10 10 10h4.390624v13.433594h-4.390624c-5.519532 0-10 4.476562-10 10 0 5.519531 4.476562 10 10 10zm-15.660157-63.683594 13.472657 10.25h-26.941407zm-5.324219 30.25h10.988282v13.433594h-10.988282zm0 0" data-original="#000000" class="active-path" data-old_color="#448be1" fill="#448be1"/><path d="m389.597656 172.699219h-60.339844c-5.519531 0-10 4.476562-10 10 0 5.523437 4.480469 10 10 10h60.339844c5.523438 0 10-4.476563 10-10 0-5.523438-4.476562-10-10-10zm0 0" data-original="#000000" class="active-path" data-old_color="#448be1" fill="#448be1"/><path d="m363.195312 225.023438c5.523438 0 10-4.476563 10-10 0-5.523438-4.476562-10-10-10h-33.9375c-5.523437 0-10 4.476562-10 10 0 5.523437 4.476563 10 10 10zm0 0" data-original="#000000" class="active-path" data-old_color="#448be1" fill="#448be1"/><path d="m60.835938 292.234375h39.300781c9.269531 0 16.804687-7.539063 16.804687-16.804687v-37.132813c0-9.265625-7.535156-16.804687-16.804687-16.804687h-39.300781c-9.269532 0-16.808594 7.539062-16.808594 16.804687v37.132813c0 9.265624 7.539062 16.804687 16.808594 16.804687zm3.191406-20v-5.371094h32.914062v5.371094zm32.914062-30.742187v5.371093h-32.914062v-5.371093zm0 0" data-original="#000000" class="active-path" data-old_color="#448be1" fill="#448be1"/><path d="m109.367188 310.773438h-54.894532c-5.523437 0-10 4.476562-10 10 0 5.519531 4.476563 10 10 10h54.894532c5.523437 0 10-4.480469 10-10 0-5.523438-4.476563-10-10-10zm0 0" data-original="#000000" class="active-path" data-old_color="#448be1" fill="#448be1"/><path d="m199.023438 310.773438h-54.894532c-5.523437 0-10 4.476562-10 10 0 5.519531 4.476563 10 10 10h54.894532c5.523437 0 10-4.480469 10-10 0-5.523438-4.476563-10-10-10zm0 0" data-original="#000000" class="active-path" data-old_color="#448be1" fill="#448be1"/><path d="m298.683594 320.773438c0-5.523438-4.480469-10-10-10h-54.894532c-5.523437 0-10 4.476562-10 10 0 5.519531 4.476563 10 10 10h54.894532c5.519531 0 10-4.480469 10-10zm0 0" data-original="#000000" class="active-path" data-old_color="#448be1" fill="#448be1"/><path d="m378.339844 310.773438h-54.894532c-5.523437 0-10 4.476562-10 10 0 5.519531 4.476563 10 10 10h54.894532c5.523437 0 10-4.480469 10-10 0-5.523438-4.476563-10-10-10zm0 0" data-original="#000000" class="active-path" data-old_color="#448be1" fill="#448be1"/><path d="m378.339844 351.808594h-89.65625c-5.523438 0-10 4.476562-10 10 0 5.519531 4.476562 10 10 10h89.65625c5.523437 0 10-4.480469 10-10 0-5.523438-4.476563-10-10-10zm0 0" data-original="#000000" class="active-path" data-old_color="#448be1" fill="#448be1"/><path d="m376.394531 88.035156c3.53125 2.351563 8.261719 2.1875 11.636719-.378906 3.179688-2.421875 4.601562-6.667969 3.5625-10.519531-1.117188-4.132813-4.835938-7.160157-9.117188-7.394531-4.246093-.230469-8.273437 2.363281-9.832031 6.3125-1.695312 4.296874-.136719 9.433593 3.75 11.980468zm0 0" data-original="#000000" class="active-path" data-old_color="#448be1" fill="#448be1"/></g> </svg>
