<svg width="512" height="512" viewBox="0 0 512 512" fill="none" xmlns="http://www.w3.org/2000/svg">
<path d="M368 241H300.531C295.848 227.134 284.866 216.152 271 211.469V112C271 103.716 264.284 97 256 97C247.716 97 241 103.716 241 112V211.469C222.42 217.745 209 235.329 209 256C209 281.916 230.084 303 256 303C276.671 303 294.255 289.58 300.531 271H368C376.284 271 383 264.284 383 256C383 247.716 376.284 241 368 241ZM256 273C246.626 273 239 265.374 239 256C239 246.626 246.626 239 256 239C265.374 239 273 246.626 273 256C273 265.374 265.374 273 256 273Z" fill="#F21818"/>
<path d="M437.02 74.981C388.667 26.629 324.38 0 256 0C187.62 0 123.333 26.629 74.981 74.98C26.629 123.333 0 187.62 0 256C0 324.38 26.629 388.667 74.98 437.019C123.333 485.371 187.62 512 256 512C324.38 512 388.667 485.371 437.019 437.02C485.371 388.667 512 324.38 512 256C512 187.62 485.371 123.333 437.02 74.981ZM426.057 404.845L413.684 392.472C407.827 386.614 398.329 386.614 392.471 392.472C386.613 398.33 386.613 407.827 392.471 413.685L404.844 426.058C367.377 458.946 320.748 478.26 270.999 481.498V464C270.999 455.716 264.283 449 255.999 449C247.715 449 240.999 455.716 240.999 464V481.498C191.25 478.26 144.622 458.945 107.154 426.058L119.527 413.685C125.385 407.827 125.385 398.33 119.527 392.472C113.67 386.614 104.172 386.614 98.314 392.472L85.941 404.845C53.055 367.377 33.74 320.749 30.502 271H48C56.284 271 63 264.284 63 256C63 247.716 56.284 241 48 241H30.502C33.741 191.251 53.055 144.623 85.943 107.155L98.316 119.528C101.245 122.457 105.084 123.922 108.922 123.922C112.76 123.922 116.6 122.458 119.528 119.528C125.386 113.67 125.386 104.173 119.528 98.315L107.155 85.942C144.623 53.055 191.251 33.74 241 30.502V48C241 56.284 247.716 63 256 63C264.284 63 271 56.284 271 48V30.502C320.749 33.74 367.377 53.055 404.845 85.942L392.472 98.315C386.614 104.173 386.614 113.67 392.472 119.528C395.401 122.457 399.24 123.922 403.078 123.922C406.916 123.922 410.756 122.458 413.684 119.528L426.057 107.155C458.944 144.622 478.259 191.251 481.498 241H464C455.716 241 449 247.716 449 256C449 264.284 455.716 271 464 271H481.498C478.259 320.749 458.945 367.377 426.057 404.845Z" fill="#F21818"/>
</svg>
