<?xml version="1.0"?>
<svg xmlns="http://www.w3.org/2000/svg" height="512px" viewBox="0 -46 512.00026 512" width="512px" class=""><g><path d="m174.683594 139.363281-76.285156 155.714844c-5.703126 11.644531 12.425781 20.542969 18.136718 8.882813l68.242188-139.304688 114.699218 234.136719h-229.398437l10.78125-22c5.703125-11.644531-12.425781-20.542969-18.136719-8.886719l-15.261718 31.15625h-37.730469c-12.964844 0-12.984375 20.191406 0 20.191406h492.539062c12.964844 0 12.984375-20.191406 0-20.191406h-37.382812l-128.0625-184.570312c-3.90625-5.632813-12.664063-5.664063-16.589844 0l-51.90625 74.808593-73.453125-149.9375v-37.863281h104.25c7.417969 0 12.433594-8.3125 8.886719-14.886719-4.941407-9.171875-5.195313-20.253906-.675781-29.640625 2.234374-3.585937 2.261718-8.101562.285156-11.792968-4.699219-9.273438-4.6875-20.332032.035156-29.585938 3.941406-6.675781-.5-15.59375-8.53125-15.59375h-114.347656c-5.574219 0-10.09375 4.519531-10.09375 10.097656zm20.191406-119.167969h90.035156c-2 10.199219-.976562 20.882813 3.074219 30.59375-4.042969 9.703126-5.054687 20.355469-3.070313 30.519532h-90.039062zm83.601562 289.824219c.183594-.21875.359376-.441406.527344-.683593l49.523438-71.375 111.597656 160.832031h-118.15625zm0 0" data-original="#000000" class="active-path" data-old_color="#448be1" fill="#448be1"/><path d="m91.84375 326.757812c-5.40625-1.089843-10.78125 2.539063-11.875 7.925782-1.089844 5.386718 2.546875 10.796875 7.929688 11.871094 5.386718 1.078124 10.792968-2.539063 11.871093-7.925782 1.085938-5.414062-2.542969-10.765625-7.925781-11.871094zm0 0" data-original="#000000" class="active-path" data-old_color="#448be1" fill="#448be1"/></g> </svg>
