<?xml version="1.0"?>
<svg xmlns="http://www.w3.org/2000/svg" xmlns:xlink="http://www.w3.org/1999/xlink" version="1.1" id="Layer_1" x="0px" y="0px" viewBox="0 0 512 512" style="enable-background:new 0 0 512 512;" xml:space="preserve" width="512px" height="512px" class=""><g><g>
	<g>
		<path d="M496.424,404.211h-8.53V246.613c6.035-7.447,10.622-16.078,13.357-25.182c6.228-20.733,0.202-43.157-15.727-58.523    l-44.382-42.81v-9.232c0-5.632-4.566-10.199-10.199-10.199c-5.633,0-10.199,4.567-10.199,10.199v9.467l-44.138,42.576    c-0.663,0.64-1.298,1.306-1.932,1.976l-14.651-14.132v-8.611c0-5.632-4.566-10.199-10.199-10.199    c-5.633,0-10.199,4.567-10.199,10.199v8.445L321.674,167.9L278.001,57.695V28.769c0-5.632-4.566-10.199-10.199-10.199h-1.603    v-8.37C266.199,4.567,261.633,0,255.999,0C250.366,0,245.8,4.567,245.8,10.199v8.37h-1.603c-5.633,0-10.199,4.567-10.199,10.199    v28.926L190.325,167.9l-17.951-17.315v-8.445c0-5.632-4.566-10.199-10.199-10.199c-5.633,0-10.199,4.567-10.199,10.199v8.611    l-14.646,14.128c-0.632-0.669-1.273-1.332-1.935-1.97l-44.139-42.576v-9.468c0-5.632-4.566-10.199-10.199-10.199    c-5.633,0-10.199,4.567-10.199,10.199v9.232l-44.382,42.81c-15.929,15.365-21.956,37.79-15.727,58.523    c2.735,9.104,7.322,17.734,13.357,25.182v157.598h-8.53c-5.633,0-10.199,4.567-10.199,10.199v87.391    c0,5.632,4.566,10.199,10.199,10.199h480.849c5.633,0,10.199-4.567,10.199-10.199V414.41    C506.624,408.778,502.057,404.211,496.424,404.211z M390.767,177.59l40.298-38.871l40.298,38.871    c10.406,10.039,14.374,24.588,10.353,37.973c-1.805,6.007-4.731,11.735-8.557,16.792h-50.907    c-0.794-14.441-7.068-28.396-18.054-38.993l-14.848-14.323C389.811,178.545,390.28,178.059,390.767,177.59z M467.497,252.753    v151.458h-60.929V277.066c5.841-7.208,10.306-15.53,13.069-24.314H467.497z M349.738,169.171l40.298,38.871    c10.407,10.039,14.374,24.588,10.353,37.972c-1.805,6.009-4.731,11.736-8.558,16.793h-84.188    c-3.826-5.057-6.753-10.785-8.557-16.792c-4.021-13.384-0.053-27.935,10.353-37.973L349.738,169.171z M386.17,283.206v121.005    h-72.864V283.206H386.17z M254.396,38.968h3.207v10.476h-3.207V38.968z M251.126,69.842h9.746l44.927,113.37l-10.521,10.149    c-0.252,0.244-0.495,0.494-0.741,0.74h-77.075c-0.247-0.247-0.49-0.497-0.742-0.74l-10.521-10.149L251.126,69.842z M230.875,214.5    h50.249c-4.624,11.801-5.324,24.898-1.574,37.384c2.735,9.104,7.322,17.734,13.357,25.182v127.144h-73.816V277.066    c6.035-7.447,10.621-16.078,13.357-25.182C236.199,239.399,235.499,226.302,230.875,214.5z M162.261,169.171l40.298,38.871    c10.407,10.039,14.374,24.588,10.353,37.973c-1.805,6.007-4.731,11.735-8.557,16.792h-84.188    c-3.826-5.057-6.753-10.784-8.558-16.792c-4.021-13.384-0.053-27.935,10.353-37.973L162.261,169.171z M198.693,283.206v121.005    h-72.864V283.206H198.693z M40.636,177.59l40.298-38.871l40.298,38.871c0.487,0.469,0.959,0.953,1.421,1.446l-14.851,14.326    c-10.986,10.597-17.26,24.552-18.054,38.993H38.84c-3.826-5.057-6.753-10.785-8.557-16.792    C26.262,202.178,30.23,187.629,40.636,177.59z M105.43,277.066v127.144H44.502V252.753H92.36    C95.123,261.535,99.589,269.858,105.43,277.066z M103.943,491.602H83.809v-15.47c0-5.55,4.516-10.067,10.067-10.067    s10.067,4.516,10.067,10.067V491.602z M212.025,491.602h-20.132v-15.47c0-5.55,4.515-10.067,10.066-10.067    s10.067,4.516,10.067,10.067V491.602z M320.107,491.602h-20.132v-15.47c0-5.55,4.515-10.067,10.067-10.067    c5.55,0,10.066,4.516,10.066,10.067V491.602z M428.19,491.602h-20.133v-15.47c0-5.55,4.516-10.067,10.067-10.067    c5.55,0,10.067,4.516,10.067,10.067V491.602z M486.225,491.602h-37.638v-15.47c0-16.799-13.666-30.465-30.465-30.465    c-16.799,0-30.465,13.666-30.465,30.465v15.47h-47.153v-15.47c0-16.799-13.666-30.465-30.464-30.465s-30.465,13.666-30.465,30.465    v15.47h-47.153v-15.47c0-16.799-13.666-30.465-30.465-30.465c-16.798,0-30.464,13.666-30.464,30.465v15.47H124.34v-15.47    c0-16.799-13.666-30.465-30.465-30.465c-16.799,0-30.465,13.666-30.465,30.465v15.47H25.774v-66.992h460.451V491.602z" data-original="#000000" class="active-path" data-old_color="#448be1" fill="#448be1"/>
	</g>
</g><g>
	<g>
		<path d="M255.999,282.452c-14.421,0-26.153,11.732-26.153,26.153v42.688c0,5.632,4.566,10.199,10.199,10.199h31.907    c5.633,0,10.199-4.567,10.199-10.199v-42.688C282.152,294.184,270.42,282.452,255.999,282.452z M261.754,341.092h-11.509v-32.489    c0-3.172,2.581-5.754,5.754-5.754s5.754,2.581,5.754,5.754V341.092z" data-original="#000000" class="active-path" data-old_color="#448be1" fill="#448be1"/>
	</g>
</g><g>
	<g>
		<path d="M63.464,263.515c-5.633,0-10.199,4.567-10.199,10.199v3.666c0,5.632,4.566,10.199,10.199,10.199    c5.633,0,10.199-4.567,10.199-10.199v-3.666C73.663,268.082,69.097,263.515,63.464,263.515z" data-original="#000000" class="active-path" data-old_color="#448be1" fill="#448be1"/>
	</g>
</g><g>
	<g>
		<path d="M63.464,296.134c-5.633,0-10.199,4.567-10.199,10.199v66.459c0,5.632,4.566,10.199,10.199,10.199    c5.633,0,10.199-4.567,10.199-10.199v-66.459C73.663,300.7,69.097,296.134,63.464,296.134z" data-original="#000000" class="active-path" data-old_color="#448be1" fill="#448be1"/>
	</g>
</g></g> </svg>
