<svg width="433" height="173" viewBox="0 0 433 173" fill="none" xmlns="http://www.w3.org/2000/svg">
<path d="M35.75 79.41L66.82 38.98H98.28L59.41 85.39L101.92 137H68.9L35.75 94.49V137H10.27V38.98H35.75V79.41Z" fill="white"/>
<path d="M161.65 55.35H171.3L161.15 67.65L172.65 81H162.3L154.15 70.75V81H145.1V55.35H154.15V65.65L161.65 55.35ZM196.263 68.25C196.263 67.45 196.113 66.7 195.813 66C195.546 65.2667 195.146 64.6333 194.613 64.1C194.08 63.5667 193.446 63.15 192.713 62.85C192.013 62.5167 191.246 62.35 190.413 62.35C189.613 62.35 188.863 62.5 188.163 62.8C187.463 63.1 186.846 63.5167 186.313 64.05C185.813 64.5833 185.396 65.2167 185.063 65.95C184.763 66.65 184.613 67.4 184.613 68.2C184.613 69 184.763 69.75 185.063 70.45C185.363 71.15 185.78 71.7667 186.313 72.3C186.846 72.8 187.463 73.2167 188.163 73.55C188.896 73.85 189.663 74 190.463 74C191.263 74 192.013 73.85 192.713 73.55C193.413 73.25 194.013 72.8333 194.513 72.3C195.046 71.7667 195.463 71.15 195.763 70.45C196.096 69.75 196.263 69.0167 196.263 68.25ZM184.863 93.8H175.813V55.35H184.863V58.2C186.796 55.7667 189.43 54.55 192.763 54.55C194.596 54.55 196.296 54.9167 197.863 55.65C199.463 56.35 200.846 57.3167 202.013 58.55C203.18 59.7833 204.08 61.2333 204.713 62.9C205.38 64.5667 205.713 66.35 205.713 68.25C205.713 70.15 205.38 71.9167 204.713 73.55C204.08 75.1833 203.18 76.6167 202.013 77.85C200.88 79.0833 199.53 80.05 197.963 80.75C196.396 81.45 194.696 81.8 192.863 81.8C189.663 81.8 186.996 80.7 184.863 78.5V93.8ZM219.921 55.35V69.7L230.671 55.35H239.721V81H230.671V66.7L219.871 81H210.871V55.35H219.921ZM245.48 55C246.313 54.8333 247.13 54.7 247.93 54.6C248.763 54.4667 249.647 54.4 250.58 54.4C252.213 54.4 253.73 54.5833 255.13 54.95C256.53 55.3167 257.73 55.8333 258.73 56.5C259.763 57.1667 260.563 57.95 261.13 58.85C261.697 59.75 261.98 60.7167 261.98 61.75C261.98 62.8833 261.63 63.9167 260.93 64.85C260.263 65.75 259.18 66.5833 257.68 67.35C259.48 67.9167 260.78 68.7 261.58 69.7C262.413 70.6667 262.83 71.9 262.83 73.4C262.83 74.6333 262.53 75.7833 261.93 76.85C261.363 77.8833 260.53 78.7833 259.43 79.55C258.363 80.2833 257.08 80.8667 255.58 81.3C254.08 81.7333 252.43 81.95 250.63 81.95C249.763 81.95 248.88 81.9 247.98 81.8C247.08 81.7 246.247 81.5333 245.48 81.3V74C245.947 74.1667 246.48 74.3 247.08 74.4C247.713 74.4667 248.313 74.5 248.88 74.5C250.08 74.5 251.097 74.3333 251.93 74C252.797 73.6333 253.23 73.2 253.23 72.7C253.23 72.1333 252.747 71.65 251.78 71.25C250.813 70.8167 249.547 70.6 247.98 70.6H247.58V65.3C249.38 65.2667 250.68 65.1 251.48 64.8C252.313 64.5 252.73 64.0667 252.73 63.5C252.73 62.9667 252.447 62.5667 251.88 62.3C251.313 62.0333 250.547 61.9 249.58 61.9C248.88 61.9 248.163 61.9667 247.43 62.1C246.697 62.2 246.047 62.3333 245.48 62.5V55ZM277.05 55.35V69.7L287.8 55.35H296.85V81H287.8V66.7L277 81H268V55.35H277.05ZM322.409 63.65C320.842 62.5833 319.259 62.05 317.659 62.05C316.792 62.05 315.976 62.2 315.209 62.5C314.476 62.8 313.826 63.2333 313.259 63.8C312.692 64.3333 312.242 64.9833 311.909 65.75C311.609 66.4833 311.459 67.3167 311.459 68.25C311.459 69.15 311.609 69.9833 311.909 70.75C312.242 71.4833 312.676 72.1333 313.209 72.7C313.776 73.2333 314.442 73.65 315.209 73.95C315.976 74.25 316.792 74.4 317.659 74.4C319.359 74.4 320.942 73.8167 322.409 72.65V80.35C320.176 81.3167 318.059 81.8 316.059 81.8C314.192 81.8 312.409 81.4833 310.709 80.85C309.042 80.2167 307.559 79.3167 306.259 78.15C304.992 76.95 303.976 75.5333 303.209 73.9C302.442 72.2333 302.059 70.3833 302.059 68.35C302.059 66.3167 302.426 64.4667 303.159 62.8C303.892 61.1 304.892 59.65 306.159 58.45C307.426 57.2167 308.926 56.2667 310.659 55.6C312.426 54.9 314.309 54.55 316.309 54.55C318.509 54.55 320.542 55.0167 322.409 55.95V63.65ZM345.821 64.2V55.35H354.871V81H345.821V71.65H336.621V81H327.571V55.35H336.621V64.2H345.821ZM397.517 55.35V81H388.467V55.35H397.517ZM370.017 74.5H373.517C375.317 74.5 376.217 73.65 376.217 71.95C376.217 70.3167 375.317 69.5 373.517 69.5H370.017V74.5ZM370.017 55.35V62.95H375.317C378.383 62.95 380.717 63.6667 382.317 65.1C383.917 66.5 384.717 68.55 384.717 71.25C384.717 72.7167 384.5 74.05 384.067 75.25C383.633 76.4167 382.983 77.4333 382.117 78.3C381.283 79.1667 380.25 79.8333 379.017 80.3C377.783 80.7667 376.35 81 374.717 81H360.967V55.35H370.017ZM422.444 64.45C422.144 63.1833 421.527 62.1667 420.594 61.4C419.66 60.6333 418.527 60.25 417.194 60.25C415.794 60.25 414.644 60.6167 413.744 61.35C412.877 62.0833 412.327 63.1167 412.094 64.45H422.444ZM411.844 69.7C411.844 73.6 413.677 75.55 417.344 75.55C419.31 75.55 420.794 74.75 421.794 73.15H430.544C428.777 79.0167 424.36 81.95 417.294 81.95C415.127 81.95 413.144 81.6333 411.344 81C409.544 80.3333 407.994 79.4 406.694 78.2C405.427 77 404.444 75.5667 403.744 73.9C403.044 72.2333 402.694 70.3667 402.694 68.3C402.694 66.1667 403.027 64.25 403.694 62.55C404.36 60.8167 405.31 59.35 406.544 58.15C407.777 56.95 409.26 56.0333 410.994 55.4C412.76 54.7333 414.744 54.4 416.944 54.4C419.11 54.4 421.06 54.7333 422.794 55.4C424.527 56.0333 425.994 56.9667 427.194 58.2C428.394 59.4333 429.31 60.95 429.944 62.75C430.577 64.5167 430.894 66.5167 430.894 68.75V69.7H411.844Z" fill="white"/>
<path d="M155.755 100.045H162.51L155.405 108.655L163.455 118H156.21L150.505 110.825V118H144.17V100.045H150.505V107.255L155.755 100.045ZM171.654 108.935C171.654 109.542 171.759 110.102 171.969 110.615C172.202 111.105 172.494 111.537 172.844 111.91C173.217 112.283 173.649 112.575 174.139 112.785C174.652 112.995 175.189 113.1 175.749 113.1C176.309 113.1 176.834 112.995 177.324 112.785C177.837 112.575 178.269 112.283 178.619 111.91C178.992 111.537 179.284 111.105 179.494 110.615C179.727 110.102 179.844 109.553 179.844 108.97C179.844 108.41 179.727 107.885 179.494 107.395C179.284 106.882 178.992 106.438 178.619 106.065C178.269 105.692 177.837 105.4 177.324 105.19C176.834 104.98 176.309 104.875 175.749 104.875C175.189 104.875 174.652 104.98 174.139 105.19C173.649 105.4 173.217 105.692 172.844 106.065C172.494 106.438 172.202 106.87 171.969 107.36C171.759 107.85 171.654 108.375 171.654 108.935ZM164.969 108.865C164.969 107.535 165.237 106.298 165.774 105.155C166.311 103.988 167.057 102.985 168.014 102.145C168.971 101.282 170.102 100.605 171.409 100.115C172.739 99.625 174.186 99.38 175.749 99.38C177.289 99.38 178.712 99.625 180.019 100.115C181.349 100.582 182.492 101.247 183.449 102.11C184.429 102.95 185.187 103.965 185.724 105.155C186.261 106.322 186.529 107.617 186.529 109.04C186.529 110.463 186.249 111.77 185.689 112.96C185.152 114.127 184.406 115.142 183.449 116.005C182.492 116.845 181.337 117.498 179.984 117.965C178.654 118.432 177.207 118.665 175.644 118.665C174.104 118.665 172.681 118.432 171.374 117.965C170.067 117.498 168.936 116.833 167.979 115.97C167.046 115.107 166.311 114.08 165.774 112.89C165.237 111.677 164.969 110.335 164.969 108.865ZM199.591 118L195.706 107.43L193.956 118H188.601L192.031 100.045H197.246L200.956 109.74L204.666 100.045H209.881L213.311 118H207.921L206.206 107.43L202.321 118H199.591ZM225.499 118L221.614 107.43L219.864 118H214.509L217.939 100.045H223.154L226.864 109.74L230.574 100.045H235.789L239.219 118H233.829L232.114 107.43L228.229 118H225.499ZM248.502 115.55L239.822 100.045H247.172L251.967 109.25L256.622 100.045H263.902L249.482 126.96H242.377L248.502 115.55ZM278.864 106.24V100.045H285.199V118H278.864V111.455H272.424V118H266.089V100.045H272.424V106.24H278.864ZM295.871 100.045V110.09L303.396 100.045H309.731V118H303.396V107.99L295.836 118H289.536V100.045H295.871ZM325.662 100.045H332.417L325.312 108.655L333.362 118H326.117L320.412 110.825V118H314.077V100.045H320.412V107.255L325.662 100.045ZM341.456 108.97C341.456 109.553 341.561 110.102 341.771 110.615C341.981 111.105 342.261 111.537 342.611 111.91C342.985 112.283 343.416 112.575 343.906 112.785C344.42 112.995 344.968 113.1 345.551 113.1C346.111 113.1 346.636 112.995 347.126 112.785C347.64 112.575 348.071 112.283 348.421 111.91C348.795 111.537 349.086 111.105 349.296 110.615C349.53 110.125 349.646 109.6 349.646 109.04C349.646 108.48 349.53 107.955 349.296 107.465C349.086 106.952 348.795 106.508 348.421 106.135C348.071 105.762 347.64 105.47 347.126 105.26C346.636 105.05 346.111 104.945 345.551 104.945C344.968 104.945 344.42 105.05 343.906 105.26C343.416 105.47 342.985 105.762 342.611 106.135C342.261 106.508 341.981 106.94 341.771 107.43C341.561 107.897 341.456 108.41 341.456 108.97ZM349.436 100.045H355.806V118H349.436V116.005C348.083 117.708 346.251 118.56 343.941 118.56C342.635 118.56 341.433 118.327 340.336 117.86C339.24 117.37 338.283 116.693 337.466 115.83C336.65 114.967 336.008 113.952 335.541 112.785C335.098 111.618 334.876 110.347 334.876 108.97C334.876 107.687 335.098 106.473 335.541 105.33C335.985 104.163 336.603 103.148 337.396 102.285C338.19 101.422 339.135 100.745 340.231 100.255C341.328 99.7417 342.541 99.485 343.871 99.485C346.111 99.485 347.966 100.267 349.436 101.83V100.045ZM381.362 112.715V121.675H375.027V118H360.117V100.045H366.452V112.715H372.892V100.045H379.227V112.715H381.362ZM391.301 100.045V110.09L398.826 100.045H405.161V118H398.826V107.99L391.266 118H384.966V100.045H391.301ZM415.842 100.045V110.09L423.367 100.045H429.702V118H423.367V107.99L415.807 118H409.507V100.045H415.842Z" fill="white"/>
<path d="M143.5 39H108.5L70 85.5L112 137H146.5L104 85.7614L143.5 39Z" fill="#F21818"/>
</svg>
