<svg width="512" height="512" viewBox="0 0 512 512" fill="none" xmlns="http://www.w3.org/2000/svg">
<g clip-path="url(#clip0)">
<path d="M490.684 356.973L451.008 317.301C422.629 288.918 376.453 288.918 348.07 317.301L321.363 344.004C311.016 354.359 294.734 355.09 283.496 345.711C241.102 310.332 201.668 270.898 166.289 228.504C156.91 217.266 157.645 200.984 167.996 190.637L194.699 163.93C223.078 135.551 223.078 89.3711 194.699 60.9922L155.027 21.3164C141.281 7.57031 123 0 103.559 0C84.1173 0 65.8399 7.57031 52.0899 21.3164C22.4415 50.9688 4.16413 90.3086 0.628971 132.094C-2.90618 173.875 8.50397 215.727 32.754 249.938C95.8712 338.977 173.02 416.129 262.063 479.246C292.195 500.605 328.25 512.004 364.969 512C369.938 512 374.926 511.789 379.906 511.371C421.691 507.836 461.031 489.559 490.68 459.91C504.43 446.164 512 427.883 512 408.441C512 389 504.43 370.719 490.684 356.973V356.973ZM273.629 462.93C186.434 401.121 110.879 325.566 49.0704 238.371C4.42585 175.387 11.6446 90.0508 66.2344 35.4609C76.2032 25.4922 89.461 20 103.559 20C117.66 20 130.914 25.4922 140.887 35.4609L180.559 75.1328C190.531 85.1055 196.02 98.3594 196.02 112.461C196.02 126.562 190.527 139.816 180.559 149.789L178.91 151.438L113.734 86.2617C109.828 82.3594 103.496 82.3594 99.5899 86.2617C95.6876 90.168 95.6876 96.5 99.5899 100.406L164.766 165.582L153.852 176.492C136.137 194.211 134.879 222.082 150.934 241.32C187.078 284.637 227.367 324.922 270.68 361.066C289.922 377.121 317.789 375.867 335.508 358.148L346.422 347.238L459.637 460.453C405.422 501.266 330.438 503.195 273.629 462.93V462.93ZM476.539 445.766C475.977 446.328 475.406 446.879 474.84 447.43C474.648 447.203 474.453 446.98 474.238 446.766L360.563 333.09L362.215 331.441C372.184 321.473 385.438 315.98 399.539 315.98C413.641 315.98 426.895 321.473 436.867 331.441L476.539 371.117C486.512 381.086 492 394.344 492 408.441C492 422.543 486.508 435.797 476.539 445.766V445.766Z" fill="white"/>
<path d="M79.3047 55.9805C76.6758 55.9805 74.0977 57.0391 72.2383 58.9102C70.375 60.7695 69.3047 63.3516 69.3047 65.9805C69.3047 68.6094 70.375 71.1914 72.2383 73.0508C74.0977 74.9102 76.6758 75.9805 79.3047 75.9805C81.9453 75.9805 84.5156 74.9102 86.375 73.0508C88.2383 71.1914 89.3047 68.6094 89.3047 65.9805C89.3047 63.3516 88.2383 60.7695 86.375 58.9102C84.5156 57.0391 81.9375 55.9805 79.3047 55.9805Z" fill="white"/>
<path d="M218.309 367.914C197.824 349.687 177.941 330.297 159.219 310.281C155.445 306.246 149.117 306.035 145.086 309.809C141.051 313.582 140.84 319.91 144.613 323.941C163.754 344.406 184.074 364.227 205.016 382.859C206.918 384.555 209.293 385.387 211.656 385.387C214.414 385.387 217.156 384.254 219.133 382.035C222.805 377.906 222.434 371.586 218.309 367.914V367.914Z" fill="white"/>
<path d="M133.23 281.27C129.637 277.078 123.32 276.594 119.129 280.191C114.941 283.789 114.457 290.102 118.055 294.293L118.219 294.484C120.195 296.789 122.996 297.977 125.816 297.977C128.117 297.977 130.434 297.184 132.316 295.566C136.512 291.973 136.996 285.66 133.402 281.465L133.23 281.27Z" fill="white"/>
</g>
<defs>
<clipPath id="clip0">
<rect width="512" height="512" fill="white"/>
</clipPath>
</defs>
</svg>
