<svg width="512" height="512" viewBox="0 0 512 512" fill="none" xmlns="http://www.w3.org/2000/svg">
<path d="M511.373 268.183L468.373 152.516C466.917 148.599 463.179 146 459 146H345V84C345 78.478 340.523 74 335 74H130C124.477 74 120 78.478 120 84C120 89.522 124.477 94 130 94H325V370H136.387C128.573 355.713 113.4 346 96 346C78.6 346 63.427 355.713 55.613 370H20V326H255C260.523 326 265 321.522 265 316C265 310.478 260.523 306 255 306H20V94H50C55.523 94 60 89.522 60 84C60 78.478 55.523 74 50 74H10C4.477 74 0 78.478 0 84V380C0 385.522 4.477 390 10 390H50.051C50.022 390.664 50 391.329 50 392C50 417.364 70.636 438 96 438C121.364 438 142 417.364 142 392C142 391.329 141.978 390.664 141.949 390H335H380.051C380.022 390.664 380 391.329 380 392C380 417.364 400.636 438 426 438C451.364 438 472 417.364 472 392C472 391.329 471.978 390.664 471.949 390H502C507.523 390 512 385.522 512 380V271.667C512 270.478 511.788 269.298 511.373 268.183ZM96 418C81.664 418 70 406.337 70 392C70 389.801 70.277 387.666 70.793 385.625C71.721 384.264 72.32 382.662 72.48 380.932C76.645 372.116 85.62 366 96 366C110.336 366 122 377.663 122 392C122 406.337 110.336 418 96 418ZM487.614 261.667H386.834C385.823 261.667 385.001 260.845 385.001 259.833V207.833C385.001 206.822 385.823 206 386.834 206H466.92L487.614 261.667ZM426 418C411.664 418 400 406.337 400 392C400 377.663 411.664 366 426 366C440.336 366 452 377.663 452 392C452 406.337 440.336 418 426 418ZM466.387 370C458.573 355.713 443.4 346 426 346C408.6 346 393.427 355.713 385.613 370H345V166H452.049L459.484 186H386.834C374.794 186 365 195.794 365 207.833V259.833C365 271.872 374.794 281.667 386.833 281.667H492V296.667H481C475.477 296.667 471 301.145 471 306.667C471 312.189 475.477 316.667 481 316.667H492V370H466.387Z" fill="white"/>
<path d="M90 94C92.63 94 95.21 92.93 97.07 91.069C98.93 89.21 100 86.63 100 84C100 81.37 98.93 78.79 97.07 76.93C95.21 75.07 92.63 74 90 74C87.37 74 84.79 75.069 82.93 76.93C81.07 78.79 80 81.37 80 84C80 86.63 81.07 89.21 82.93 91.069C84.79 92.93 87.37 94 90 94Z" fill="white"/>
<path d="M302.07 323.069C303.93 321.21 305 318.63 305 316C305 313.37 303.93 310.79 302.07 308.93C300.21 307.07 297.63 306 295 306C292.37 306 289.79 307.069 287.93 308.93C286.07 310.79 285 313.37 285 316C285 318.63 286.07 321.21 287.93 323.069C289.79 324.929 292.37 326 295 326C297.63 326 300.21 324.93 302.07 323.069Z" fill="white"/>
<path d="M375 296.667C369.477 296.667 365 301.145 365 306.667V311C365 316.522 369.477 321 375 321C380.523 321 385 316.522 385 311V306.667C385 301.145 380.523 296.667 375 296.667Z" fill="white"/>
</svg>
