<svg width="39" height="39" viewBox="0 0 39 39" fill="none" xmlns="http://www.w3.org/2000/svg">
<circle cx="19.5" cy="19.5" r="19.5" fill="#E00368"/>
<path d="M19.5 10.0729C22.5705 10.0729 22.9347 10.0844 24.1479 10.14C27.2644 10.2818 28.7201 11.7605 28.862 14.854C28.9175 16.0663 28.9281 16.4305 28.9281 19.501C28.9281 22.5724 28.9166 22.9356 28.862 24.1479C28.7192 27.2385 27.2673 28.7201 24.1479 28.862C22.9347 28.9175 22.5724 28.929 19.5 28.929C16.4295 28.929 16.0653 28.9175 14.853 28.862C11.7289 28.7192 10.2808 27.2338 10.139 24.147C10.0834 22.9347 10.0719 22.5715 10.0719 19.5C10.0719 16.4295 10.0844 16.0663 10.139 14.853C10.2818 11.7605 11.7337 10.2808 14.853 10.139C16.0663 10.0844 16.4295 10.0729 19.5 10.0729ZM19.5 8C16.3768 8 15.9858 8.01342 14.7591 8.069C10.5827 8.26067 8.26162 10.5779 8.06996 14.7582C8.01342 15.9858 8 16.3768 8 19.5C8 22.6232 8.01342 23.0152 8.069 24.2418C8.26067 28.4182 10.5779 30.7393 14.7582 30.931C15.9858 30.9866 16.3768 31 19.5 31C22.6232 31 23.0152 30.9866 24.2418 30.931C28.4144 30.7393 30.7412 28.4221 30.93 24.2418C30.9866 23.0152 31 22.6232 31 19.5C31 16.3768 30.9866 15.9858 30.931 14.7591C30.7432 10.5865 28.423 8.26163 24.2428 8.06996C23.0152 8.01342 22.6232 8 19.5 8V8ZM19.5 13.5947C16.2388 13.5947 13.5947 16.2388 13.5947 19.5C13.5947 22.7612 16.2388 25.4062 19.5 25.4062C22.7612 25.4062 25.4053 22.7622 25.4053 19.5C25.4053 16.2388 22.7612 13.5948 19.5 13.5947ZM19.5 23.3333C17.383 23.3333 15.6667 21.6179 15.6667 19.5C15.6667 17.383 17.383 15.6667 19.5 15.6667C21.617 15.6667 23.3333 17.383 23.3333 19.5C23.3333 21.6179 21.617 23.3333 19.5 23.3333ZM25.6391 11.9819C24.8762 11.9819 24.2581 12.6 24.2581 13.3619C24.2581 14.1237 24.8762 14.7419 25.6391 14.7419C26.401 14.7419 27.0181 14.1237 27.0181 13.3619C27.0181 12.6 26.401 11.9819 25.6391 11.9819Z" fill="#FEC107"/>
</svg>
