<svg width="47" height="46" viewBox="0 0 47 46" fill="none" xmlns="http://www.w3.org/2000/svg">
<path d="M19.1925 6.23212C24.6084 4.78092 25.2562 4.62909 27.4225 4.15372C32.9866 2.93095 36.2531 4.85119 37.9654 10.2407C38.6364 12.3527 38.8271 12.9901 40.2783 18.406C41.73 23.8237 41.8813 24.4697 42.3579 26.6339C43.5668 32.1528 41.7061 35.4523 36.271 37.1768C34.1572 37.8482 33.5237 38.0397 28.1044 39.4918C22.6885 40.943 22.0407 41.0949 19.8761 41.5698C14.298 42.7945 11.0418 40.8588 9.33273 35.4811C8.66172 33.3691 8.46978 32.7339 7.01812 27.3162C5.56693 21.9003 5.41724 21.2538 4.94018 19.0879C3.73043 13.5656 5.59201 10.2695 11.0271 8.54503C13.1413 7.87526 13.7765 7.68332 19.1925 6.23212ZM18.2128 2.57585C12.7039 4.05196 12.0205 4.26042 9.88314 4.93822C2.60709 7.25017 -0.391794 12.4345 1.24583 19.8985C1.7263 22.0906 1.88743 22.7866 3.36354 28.2955C4.83965 33.8044 5.04857 34.4894 5.72637 36.6268C8.03832 43.9029 13.2226 46.9018 20.6866 45.2641C22.8783 44.782 23.5743 44.6208 29.0832 43.1447C34.5921 41.6686 35.2771 41.4597 37.4145 40.7819C44.6838 38.4718 47.6928 33.2847 46.0501 25.8221C45.5701 23.6317 45.4085 22.934 43.9324 17.4251C42.4563 11.9162 42.2479 11.2328 41.5701 9.09544C39.2667 1.82434 34.0755 -1.17994 26.6115 0.457678C24.4194 0.938154 23.7217 1.09974 18.2128 2.57585V2.57585ZM20.857 12.4442C15.1047 13.9856 11.6906 19.8989 13.2319 25.6513C14.7733 31.4036 20.6871 34.8194 26.4394 33.278C32.1917 31.7367 35.6058 25.8233 34.064 20.0693C32.5227 14.317 26.6093 10.9029 20.857 12.4442ZM25.4597 29.6218C21.7257 30.6223 17.8875 28.4077 16.8865 24.672C15.886 20.938 18.1022 17.0993 21.8363 16.0988C25.5703 15.0983 29.4089 17.3145 30.4095 21.0486C31.4105 24.7843 29.1937 28.6212 25.4597 29.6218ZM30.9232 6.69785C29.5777 7.05838 28.7796 8.44081 29.1396 9.78465C29.4997 11.1285 30.8822 11.9266 32.2277 11.5661C33.5715 11.206 34.368 9.82405 34.0079 8.48021C33.6478 7.13636 32.2671 6.33776 30.9232 6.69785Z" fill="white"/>
</svg>
