<?xml version="1.0" encoding="utf-8"?>
<!-- Generator: Adobe Illustrator 17.1.0, SVG Export Plug-In . SVG Version: 6.00 Build 0)  -->
<!DOCTYPE svg PUBLIC "-//W3C//DTD SVG 1.1//EN" "http://www.w3.org/Graphics/SVG/1.1/DTD/svg11.dtd">
<svg version="1.1" id="Layer_1" xmlns="http://www.w3.org/2000/svg" xmlns:xlink="http://www.w3.org/1999/xlink" x="0px" y="0px"
	 viewBox="0 0 1000 1000" enable-background="new 0 0 1000 1000" xml:space="preserve">
<g>
	<g>
		<defs>
			<circle id="SVGID_1_" cx="222.4" cy="125.2" r="37.3"/>
		</defs>
		<clipPath id="SVGID_2_">
			<use xlink:href="#SVGID_1_"  overflow="visible"/>
		</clipPath>
		
			<linearGradient id="SVGID_3_" gradientUnits="userSpaceOnUse" x1="0" y1="946.9863" x2="1" y2="946.9863" gradientTransform="matrix(383.6236 1109.3981 -1109.3981 383.6236 1050748.375 -363330.5625)">
			<stop  offset="0" style="stop-color:#441066"/>
			<stop  offset="1" style="stop-color:#A9008D"/>
		</linearGradient>
		<polygon clip-path="url(#SVGID_2_)" fill="url(#SVGID_3_)" points="251.9,64.5 283,154.7 192.8,187.4 161.7,95.6 		"/>
	</g>
</g>
<g>
	<g>
		<defs>
			<circle id="SVGID_4_" cx="407.5" cy="125.2" r="37.3"/>
		</defs>
		<clipPath id="SVGID_5_">
			<use xlink:href="#SVGID_4_"  overflow="visible"/>
		</clipPath>
		
			<linearGradient id="SVGID_6_" gradientUnits="userSpaceOnUse" x1="-7.889850e-005" y1="946.986" x2="0.9999" y2="946.986" gradientTransform="matrix(383.6236 1109.3981 -1109.3981 383.6236 1050913.375 -363387.625)">
			<stop  offset="0" style="stop-color:#441066"/>
			<stop  offset="1" style="stop-color:#A9008D"/>
		</linearGradient>
		<polygon clip-path="url(#SVGID_5_)" fill="url(#SVGID_6_)" points="437,64.5 468.1,154.7 377.9,187.4 346.8,95.6 		"/>
	</g>
</g>
<g>
	<g>
		<defs>
			<circle id="SVGID_7_" cx="592.5" cy="125.2" r="37.3"/>
		</defs>
		<clipPath id="SVGID_8_">
			<use xlink:href="#SVGID_7_"  overflow="visible"/>
		</clipPath>
		
			<linearGradient id="SVGID_9_" gradientUnits="userSpaceOnUse" x1="0" y1="946.9862" x2="1" y2="946.9862" gradientTransform="matrix(383.6236 1109.3981 -1109.3981 383.6236 1051078.375 -363444.7188)">
			<stop  offset="0" style="stop-color:#441066"/>
			<stop  offset="1" style="stop-color:#A9008D"/>
		</linearGradient>
		<polygon clip-path="url(#SVGID_8_)" fill="url(#SVGID_9_)" points="622.1,64.5 653.2,154.7 563,187.4 530.3,95.6 		"/>
	</g>
</g>
<g>
	<g>
		<defs>
			<circle id="SVGID_10_" cx="777.6" cy="125.2" r="37.3"/>
		</defs>
		<clipPath id="SVGID_11_">
			<use xlink:href="#SVGID_10_"  overflow="visible"/>
		</clipPath>
		
			<linearGradient id="SVGID_12_" gradientUnits="userSpaceOnUse" x1="0" y1="946.9862" x2="1" y2="946.9862" gradientTransform="matrix(383.6221 1109.395 -1109.395 383.6221 1051240.5 -363500.2813)">
			<stop  offset="0" style="stop-color:#441066"/>
			<stop  offset="1" style="stop-color:#A9008D"/>
		</linearGradient>
		<polygon clip-path="url(#SVGID_11_)" fill="url(#SVGID_12_)" points="807.2,64.5 838.3,154.7 746.5,187.4 715.4,95.6 		"/>
	</g>
</g>
<g>
	<g>
		<defs>
			<circle id="SVGID_13_" cx="961.1" cy="125.2" r="37.3"/>
		</defs>
		<clipPath id="SVGID_14_">
			<use xlink:href="#SVGID_13_"  overflow="visible"/>
		</clipPath>
		
			<linearGradient id="SVGID_15_" gradientUnits="userSpaceOnUse" x1="0" y1="946.986" x2="1" y2="946.986" gradientTransform="matrix(383.6236 1109.3981 -1109.3981 383.6236 1051408.5 -363558.8438)">
			<stop  offset="0" style="stop-color:#441066"/>
			<stop  offset="1" style="stop-color:#A9008D"/>
		</linearGradient>
		<polygon clip-path="url(#SVGID_14_)" fill="url(#SVGID_15_)" points="990.7,64.5 1023.3,154.7 931.6,187.4 900.5,95.6 		"/>
	</g>
</g>
<g>
	<g>
		<defs>
			<path id="SVGID_16_" d="M185.1,313.4c0,20.2,17.1,37.3,37.3,37.3s37.3-17.1,37.3-37.3S242.6,276,222.4,276
				S185.1,291.6,185.1,313.4"/>
		</defs>
		<clipPath id="SVGID_17_">
			<use xlink:href="#SVGID_16_"  overflow="visible"/>
		</clipPath>
		
			<linearGradient id="SVGID_18_" gradientUnits="userSpaceOnUse" x1="0" y1="946.9861" x2="1" y2="946.9861" gradientTransform="matrix(383.6158 1109.3763 -1109.3763 383.6158 1050669.875 -363303.1875)">
			<stop  offset="0" style="stop-color:#441066"/>
			<stop  offset="1" style="stop-color:#A9008D"/>
		</linearGradient>
		<polygon clip-path="url(#SVGID_17_)" fill="url(#SVGID_18_)" points="251.9,251.2 283,342.9 192.8,374 161.7,283.8 		"/>
	</g>
</g>
<g>
	<g>
		<defs>
			<path id="SVGID_19_" d="M370.1,313.4c0,20.2,17.1,37.3,37.3,37.3c20.2,0,37.3-17.1,37.3-37.3S427.7,276,407.5,276
				C385.7,274.5,370.1,291.6,370.1,313.4"/>
		</defs>
		<clipPath id="SVGID_20_">
			<use xlink:href="#SVGID_19_"  overflow="visible"/>
		</clipPath>
		
			<linearGradient id="SVGID_21_" gradientUnits="userSpaceOnUse" x1="0" y1="946.9859" x2="1" y2="946.9859" gradientTransform="matrix(383.6158 1109.3779 -1109.3779 383.6158 1050836.5 -363360.25)">
			<stop  offset="0" style="stop-color:#441066"/>
			<stop  offset="1" style="stop-color:#A9008D"/>
		</linearGradient>
		<polygon clip-path="url(#SVGID_20_)" fill="url(#SVGID_21_)" points="437,251.2 468.1,342.9 377.9,374 346.8,283.8 		"/>
	</g>
</g>
<g>
	<g>
		<defs>
			<path id="SVGID_22_" d="M553.7,313.4c0,20.2,17.1,37.3,37.3,37.3c20.2,0,37.3-17.1,37.3-37.3S611.2,276,591,276
				C570.8,274.5,553.7,291.6,553.7,313.4"/>
		</defs>
		<clipPath id="SVGID_23_">
			<use xlink:href="#SVGID_22_"  overflow="visible"/>
		</clipPath>
		
			<linearGradient id="SVGID_24_" gradientUnits="userSpaceOnUse" x1="0" y1="946.9863" x2="1" y2="946.9863" gradientTransform="matrix(383.6158 1109.3763 -1109.3763 383.6158 1051000 -363417.3125)">
			<stop  offset="0" style="stop-color:#441066"/>
			<stop  offset="1" style="stop-color:#A9008D"/>
		</linearGradient>
		<polygon clip-path="url(#SVGID_23_)" fill="url(#SVGID_24_)" points="622.1,251.2 653.2,342.9 563,374 530.3,283.8 		"/>
	</g>
</g>
<g>
	<g>
		<defs>
			<path id="SVGID_25_" d="M738.7,313.4c0,20.2,17.1,37.3,37.3,37.3c20.2,0,37.3-17.1,37.3-37.3S796.3,276,776,276
				C755.8,276,738.7,291.6,738.7,313.4"/>
		</defs>
		<clipPath id="SVGID_26_">
			<use xlink:href="#SVGID_25_"  overflow="visible"/>
		</clipPath>
		
			<linearGradient id="SVGID_27_" gradientUnits="userSpaceOnUse" x1="0" y1="946.9861" x2="1" y2="946.9861" gradientTransform="matrix(383.6158 1109.3733 -1109.3733 383.6158 1051162.125 -363474.4375)">
			<stop  offset="0" style="stop-color:#441066"/>
			<stop  offset="1" style="stop-color:#A9008D"/>
		</linearGradient>
		<polygon clip-path="url(#SVGID_26_)" fill="url(#SVGID_27_)" points="807.2,251.2 838.3,342.9 746.5,374 715.4,283.8 		"/>
	</g>
</g>
<g>
	<g>
		<defs>
			<path id="SVGID_28_" d="M923.8,313.4c0,20.2,17.1,37.3,37.3,37.3c20.2,0,37.3-17.1,37.3-37.3S981.3,276,961.1,276
				C940.9,276,923.8,291.6,923.8,313.4"/>
		</defs>
		<clipPath id="SVGID_29_">
			<use xlink:href="#SVGID_28_"  overflow="visible"/>
		</clipPath>
		
			<linearGradient id="SVGID_30_" gradientUnits="userSpaceOnUse" x1="0" y1="946.9861" x2="1" y2="946.9861" gradientTransform="matrix(383.6158 1109.3763 -1109.3763 383.6158 1051330.125 -363531.4688)">
			<stop  offset="0" style="stop-color:#441066"/>
			<stop  offset="1" style="stop-color:#A9008D"/>
		</linearGradient>
		<polygon clip-path="url(#SVGID_29_)" fill="url(#SVGID_30_)" points="990.7,251.2 1023.3,342.9 931.6,374 900.5,283.8 		"/>
	</g>
</g>
<g>
	<g>
		<defs>
			<path id="SVGID_31_" d="M185.1,500c0,20.2,17.1,37.3,37.3,37.3s37.3-17.1,37.3-37.3s-17.1-37.3-37.3-37.3S185.1,479.8,185.1,500"
				/>
		</defs>
		<clipPath id="SVGID_32_">
			<use xlink:href="#SVGID_31_"  overflow="visible"/>
		</clipPath>
		
			<linearGradient id="SVGID_33_" gradientUnits="userSpaceOnUse" x1="0" y1="946.9862" x2="1" y2="946.9862" gradientTransform="matrix(383.6236 1109.3981 -1109.3981 383.6236 1050632.625 -363290.5625)">
			<stop  offset="0" style="stop-color:#441066"/>
			<stop  offset="1" style="stop-color:#A9008D"/>
		</linearGradient>
		<polygon clip-path="url(#SVGID_32_)" fill="url(#SVGID_33_)" points="251.9,439.3 283,529.5 192.8,560.7 161.7,470.5 		"/>
	</g>
</g>
<g>
	<g>
		<defs>
			<path id="SVGID_34_" d="M370.1,500c0,20.2,17.1,37.3,37.3,37.3c20.2,0,37.3-17.1,37.3-37.3s-17.1-37.3-37.3-37.3
				C385.7,462.7,370.1,479.8,370.1,500"/>
		</defs>
		<clipPath id="SVGID_35_">
			<use xlink:href="#SVGID_34_"  overflow="visible"/>
		</clipPath>
		
			<linearGradient id="SVGID_36_" gradientUnits="userSpaceOnUse" x1="0" y1="946.9859" x2="1" y2="946.9859" gradientTransform="matrix(383.6236 1109.3981 -1109.3981 383.6236 1050797.625 -363347.625)">
			<stop  offset="0" style="stop-color:#441066"/>
			<stop  offset="1" style="stop-color:#A9008D"/>
		</linearGradient>
		<polygon clip-path="url(#SVGID_35_)" fill="url(#SVGID_36_)" points="437,439.3 468.1,529.5 377.9,560.7 346.8,470.5 		"/>
	</g>
</g>
<g>
	<g>
		<defs>
			<path id="SVGID_37_" d="M553.7,500c0,20.2,17.1,37.3,37.3,37.3c20.2,0,37.3-17.1,37.3-37.3s-17.1-37.3-37.3-37.3
				S553.7,479.8,553.7,500"/>
		</defs>
		<clipPath id="SVGID_38_">
			<use xlink:href="#SVGID_37_"  overflow="visible"/>
		</clipPath>
		
			<linearGradient id="SVGID_39_" gradientUnits="userSpaceOnUse" x1="0" y1="946.9863" x2="1" y2="946.9863" gradientTransform="matrix(383.6236 1109.3981 -1109.3981 383.6236 1050962.75 -363404.7188)">
			<stop  offset="0" style="stop-color:#441066"/>
			<stop  offset="1" style="stop-color:#A9008D"/>
		</linearGradient>
		<polygon clip-path="url(#SVGID_38_)" fill="url(#SVGID_39_)" points="622.1,439.3 653.2,529.5 563,560.7 530.3,470.5 		"/>
	</g>
</g>
<g>
	<g>
		<defs>
			<path id="SVGID_40_" d="M738.7,500c0,20.2,17.1,37.3,37.3,37.3c20.2,0,37.3-17.1,37.3-37.3s-17.1-37.3-37.3-37.3
				C755.8,462.7,738.7,479.8,738.7,500"/>
		</defs>
		<clipPath id="SVGID_41_">
			<use xlink:href="#SVGID_40_"  overflow="visible"/>
		</clipPath>
		
			<linearGradient id="SVGID_42_" gradientUnits="userSpaceOnUse" x1="0" y1="946.9861" x2="1" y2="946.9861" gradientTransform="matrix(383.6221 1109.395 -1109.395 383.6221 1051124.875 -363460.3125)">
			<stop  offset="0" style="stop-color:#441066"/>
			<stop  offset="1" style="stop-color:#A9008D"/>
		</linearGradient>
		<polygon clip-path="url(#SVGID_41_)" fill="url(#SVGID_42_)" points="807.2,439.3 838.3,529.5 746.5,560.7 715.4,470.5 		"/>
	</g>
</g>
<g>
	<g>
		<defs>
			<path id="SVGID_43_" d="M923.8,500c0,20.2,17.1,37.3,37.3,37.3c20.2,0,37.3-17.1,37.3-37.3s-17.1-37.3-37.3-37.3
				C940.9,462.7,923.8,479.8,923.8,500"/>
		</defs>
		<clipPath id="SVGID_44_">
			<use xlink:href="#SVGID_43_"  overflow="visible"/>
		</clipPath>
		
			<linearGradient id="SVGID_45_" gradientUnits="userSpaceOnUse" x1="0" y1="946.9859" x2="1" y2="946.9859" gradientTransform="matrix(383.6236 1109.3981 -1109.3981 383.6236 1051292.875 -363518.875)">
			<stop  offset="0" style="stop-color:#441066"/>
			<stop  offset="1" style="stop-color:#A9008D"/>
		</linearGradient>
		<polygon clip-path="url(#SVGID_44_)" fill="url(#SVGID_45_)" points="990.7,439.3 1023.3,529.5 931.6,560.7 900.5,470.5 		"/>
	</g>
</g>
</svg>
