<svg width="39" height="39" viewBox="0 0 39 39" fill="none" xmlns="http://www.w3.org/2000/svg">
<circle cx="19.5" cy="19.5" r="19.5" fill="#E00368"/>
<path d="M32.8462 26.4498C32.8111 26.3766 32.7783 26.3159 32.7479 26.2672C32.2448 25.3909 31.2833 24.3154 29.864 23.0402L29.834 23.011L29.819 22.9966L29.8038 22.982L29.7886 22.982C29.1445 22.3882 28.7366 21.9889 28.5657 21.7845C28.2532 21.3951 28.1832 21.001 28.354 20.6016C28.4747 20.2999 28.928 19.6627 29.7129 18.6891C30.1258 18.1732 30.4528 17.7596 30.6943 17.4481C32.4358 15.2092 33.1908 13.7784 32.9592 13.1554L32.8693 13.0098C32.8088 12.9221 32.6528 12.842 32.4014 12.7688C32.1495 12.6959 31.8275 12.6838 31.4348 12.7324L27.0864 12.7615C27.0159 12.7373 26.9154 12.7396 26.7843 12.7688C26.6534 12.7981 26.5879 12.8128 26.5879 12.8128L26.5123 12.8493L26.4522 12.8933C26.4018 12.9223 26.3465 12.9734 26.286 13.0464C26.2259 13.1192 26.1756 13.2046 26.1354 13.3019C25.662 14.4797 25.1237 15.5748 24.5196 16.5871C24.1471 17.1907 23.8051 17.7138 23.4927 18.1567C23.1807 18.5995 22.919 18.9257 22.7078 19.1349C22.4962 19.3442 22.3053 19.5119 22.1339 19.6385C21.9627 19.7653 21.832 19.8188 21.7415 19.7992C21.6508 19.7796 21.5654 19.7602 21.4845 19.7408C21.3437 19.6531 21.2304 19.5339 21.145 19.383C21.0592 19.2322 21.0015 19.0423 20.9713 18.8135C20.9412 18.5846 20.9235 18.3877 20.9184 18.2222C20.9137 18.0569 20.9159 17.823 20.9261 17.5213C20.9365 17.2194 20.9412 17.0151 20.9412 16.908C20.9412 16.5381 20.9487 16.1366 20.9637 15.7034C20.9789 15.2703 20.9912 14.9271 21.0015 14.6742C21.0118 14.4211 21.0166 14.1534 21.0166 13.8711C21.0166 13.5888 20.9988 13.3674 20.9637 13.2067C20.929 13.0462 20.8757 12.8904 20.8055 12.7394C20.7349 12.5886 20.6316 12.4719 20.496 12.389C20.3601 12.3063 20.1912 12.2406 19.9902 12.1918C19.4567 12.0751 18.7772 12.0119 17.9517 12.0021C16.0795 11.9826 14.8765 12.0996 14.343 12.3526C14.1316 12.4596 13.9403 12.6057 13.7693 12.7905C13.5881 13.0047 13.5628 13.1216 13.6936 13.1409C14.2977 13.2284 14.7253 13.4377 14.977 13.7686L15.0677 13.944C15.1382 14.0705 15.2087 14.2945 15.2792 14.6157C15.3496 14.9368 15.395 15.2921 15.415 15.6813C15.4652 16.392 15.4652 17.0004 15.415 17.5064C15.3646 18.0127 15.317 18.4069 15.2715 18.6892C15.2261 18.9715 15.1582 19.2002 15.0677 19.3754C14.977 19.5506 14.9166 19.6577 14.8864 19.6965C14.8562 19.7354 14.831 19.7599 14.811 19.7695C14.6802 19.818 14.5441 19.8427 14.4033 19.8427C14.2622 19.8427 14.0912 19.7745 13.8899 19.6381C13.6887 19.5018 13.4799 19.3145 13.2634 19.076C13.0469 18.8374 12.8028 18.504 12.5309 18.0758C12.2593 17.6475 11.9774 17.1414 11.6855 16.5574L11.4439 16.1338C11.293 15.8614 11.0867 15.4646 10.825 14.9439C10.5631 14.4231 10.3316 13.9192 10.1304 13.4325C10.0499 13.2281 9.9291 13.0725 9.76807 12.9654L9.69249 12.9215C9.64225 12.8826 9.5616 12.8413 9.45097 12.7974C9.34017 12.7534 9.22457 12.7219 9.10367 12.7025L4.96653 12.7316C4.54376 12.7316 4.25692 12.8242 4.10588 13.0092L4.04543 13.0967C4.01523 13.1454 4 13.2233 4 13.3304C4 13.4375 4.0302 13.5689 4.09064 13.7245C4.69459 15.0972 5.35137 16.4209 6.06098 17.6961C6.77059 18.9712 7.38723 19.9984 7.91053 20.7766C8.43393 21.5554 8.96744 22.2905 9.51104 22.9814C10.0546 23.6726 10.4145 24.1155 10.5905 24.3101C10.7668 24.505 10.9053 24.6508 11.0059 24.7481L11.3834 25.0985C11.625 25.3321 11.9798 25.612 12.4479 25.938C12.916 26.2642 13.4344 26.5854 14.0031 26.902C14.5719 27.2181 15.2337 27.476 15.9887 27.6755C16.7437 27.8752 17.4784 27.9554 18.1932 27.9167L19.9296 27.9167C20.2818 27.8873 20.5486 27.7802 20.7299 27.5954L20.79 27.5222C20.8304 27.4641 20.8682 27.3739 20.9031 27.2524C20.9384 27.1307 20.956 26.9967 20.956 26.8509C20.9457 26.4324 20.9786 26.0553 21.0539 25.7195C21.1292 25.3838 21.215 25.1307 21.3109 24.9602C21.4068 24.7899 21.515 24.6462 21.6354 24.5297C21.7561 24.413 21.8421 24.3423 21.8925 24.3179C21.9427 24.2934 21.9827 24.2768 22.0129 24.2668C22.2545 24.189 22.5388 24.2644 22.8663 24.4933C23.1935 24.7221 23.5004 25.0045 23.7874 25.3402C24.0743 25.6762 24.419 26.0532 24.8216 26.4716C25.2244 26.8903 25.5766 27.2015 25.8785 27.4062L26.1804 27.5814C26.382 27.6983 26.6437 27.8054 26.9659 27.9027C27.2875 28 27.5692 28.0243 27.8112 27.9757L31.6764 27.9174C32.0587 27.9174 32.3562 27.8562 32.5672 27.7347C32.7786 27.6131 32.9042 27.479 32.9447 27.3332C32.9851 27.1873 32.9873 27.0217 32.9524 26.8365C32.9166 26.6519 32.8813 26.5227 32.8462 26.4498Z" fill="#FEC107"/>
</svg>
