<svg width="59" height="36" viewBox="0 0 59 36" fill="none" xmlns="http://www.w3.org/2000/svg">
<path d="M57.7672 25.1906C57.6697 25.0747 57.5824 24.9802 57.5052 24.9065C56.1917 23.5575 53.9724 22.0643 50.8481 20.4261L50.781 20.3874L50.7475 20.3685L50.7136 20.3491L50.6867 20.3563C49.2614 19.5856 48.3476 19.0555 47.9469 18.766C47.2061 18.2087 46.8913 17.528 46.999 16.7239C47.0656 16.1203 47.5567 14.7518 48.4699 12.6173C48.9483 11.4876 49.3249 10.584 49.6 9.9055C51.5878 5.02676 52.2264 2.07844 51.5151 1.0596L51.2857 0.83846C51.1364 0.7083 50.8221 0.636864 50.3429 0.623314C49.8627 0.610316 49.2884 0.740778 48.6188 1.0146L40.9566 3.12407C40.8205 3.11367 40.644 3.16533 40.4269 3.2803C40.21 3.39519 40.1016 3.45274 40.1016 3.45274L39.9857 3.55476L39.901 3.66274C39.8262 3.73916 39.7533 3.85789 39.682 4.01874C39.6112 4.17898 39.5638 4.35745 39.5401 4.55272C39.2759 6.90982 38.8571 9.14772 38.2819 11.2668C37.9174 12.5362 37.5674 13.6454 37.2308 14.5954C36.895 15.5449 36.5913 16.2595 36.3199 16.7381C36.048 17.2173 35.7924 17.6113 35.5512 17.9218C35.3105 18.2323 35.1058 18.3911 34.9365 18.3984C34.7669 18.4059 34.6067 18.4111 34.4545 18.4141C34.1634 18.322 33.9056 18.1597 33.6816 17.9268C33.4569 17.6942 33.2628 17.3776 33.0985 16.9776C32.9344 16.5772 32.8075 16.229 32.7182 15.9316C32.6296 15.6344 32.52 15.2098 32.3916 14.6585C32.2636 14.1068 32.1727 13.7347 32.1208 13.5407C31.9412 12.8707 31.7596 12.14 31.5758 11.3484C31.3925 10.5567 31.2477 9.92931 31.1432 9.46651C31.0385 9.00328 30.9169 8.51606 30.7799 8.00479C30.6429 7.49352 30.5041 7.10097 30.3642 6.82656C30.225 6.55233 30.0554 6.29539 29.8582 6.05508C29.6604 5.81524 29.4213 5.65276 29.1418 5.56685C28.8618 5.48126 28.5317 5.44223 28.1532 5.44895C27.1546 5.48988 25.9246 5.69686 24.4624 6.06959C21.148 6.91997 19.0811 7.70072 18.2621 8.41146C17.9409 8.70512 17.6741 9.06022 17.4619 9.47585C17.2459 9.94957 17.258 10.1733 17.4983 10.1462C18.6071 10.0189 19.4636 10.1958 20.0685 10.6761L20.3137 10.9508C20.4996 11.1465 20.7327 11.5189 21.013 12.0672C21.2931 12.6156 21.5457 13.2375 21.7698 13.9329C22.2034 15.1963 22.4987 16.2982 22.6556 17.2385C22.8123 18.1793 22.9195 18.9156 22.9763 19.4484C23.0331 19.9811 23.0243 20.4276 22.9494 20.7876C22.8744 21.1478 22.8198 21.3703 22.7853 21.455C22.7508 21.5397 22.7183 21.596 22.6877 21.6228C22.4802 21.7725 22.252 21.8816 22.0034 21.9483C21.7544 22.015 21.4194 21.9723 20.9979 21.8206C20.5765 21.6689 20.1169 21.4285 19.619 21.0989C19.1212 20.7692 18.5284 20.2808 17.8406 19.6338C17.1532 18.9867 16.41 18.2034 15.6113 17.2837L14.9793 16.6309C14.5806 16.2088 14.0239 15.5878 13.3092 14.7687C12.5942 13.9492 11.941 13.1462 11.3496 12.3599C11.1084 12.0277 10.8196 11.803 10.4833 11.6853L10.3286 11.6414C10.221 11.5948 10.0586 11.5582 9.84199 11.5309C9.62508 11.5037 9.40571 11.5014 9.18289 11.5234L1.89363 13.533C1.14732 13.733 0.68589 14.0364 0.509024 14.4428L0.444778 14.6299C0.415121 14.7325 0.426007 14.8806 0.478 15.0747C0.529969 15.2686 0.647058 15.4924 0.829288 15.7456C2.56155 17.9459 4.36338 20.0327 6.23488 22.0065C8.10637 23.9803 9.6934 25.5489 10.9949 26.7109C12.2968 27.8738 13.5953 28.9527 14.8902 29.9469C16.1853 30.9415 17.0354 31.5735 17.4406 31.8427C17.8464 32.1124 18.1616 32.3109 18.3864 32.4395L19.223 32.8955C19.7628 33.2044 20.5249 33.5434 21.5094 33.9125C22.4942 34.2818 23.5651 34.6183 24.7227 34.9227C25.8803 35.2261 27.1736 35.3803 28.6033 35.3845C30.0329 35.3891 31.369 35.1866 32.6119 34.7785L35.6773 33.9572C36.2847 33.7373 36.7037 33.4172 36.9341 32.9967L37.0047 32.8357C37.0478 32.7114 37.0708 32.53 37.0734 32.2936C37.0768 32.0565 37.0427 31.8054 36.972 31.5414C36.7507 30.7883 36.6258 30.0897 36.5958 29.4459C36.5657 28.8023 36.5943 28.3034 36.681 27.9493C36.7676 27.5955 36.8889 27.2841 37.0449 27.0161C37.2013 26.7476 37.3188 26.5788 37.396 26.5108C37.4726 26.4428 37.5352 26.3937 37.5837 26.3614C37.9724 26.1061 38.5109 26.1082 39.2001 26.3679C39.8887 26.6275 40.5675 26.9939 41.2372 27.466C41.9067 27.9388 42.6981 28.4585 43.6119 29.026C44.5261 29.5937 45.2989 29.9907 45.9312 30.2186L46.5491 30.3932C46.9617 30.5095 47.4757 30.5797 48.0917 30.6036C48.7066 30.6276 49.2158 30.5384 49.6193 30.3359L56.4143 28.402C57.0892 28.2212 57.5846 27.9696 57.8982 27.6498C58.2124 27.3294 58.3691 27.0273 58.3699 26.744C58.3704 26.4606 58.2938 26.1597 58.1424 25.8409C57.9895 25.5234 57.8646 25.3062 57.7672 25.1906Z" fill="white"/>
</svg>
