<?xml version="1.0" encoding="iso-8859-1"?>
<!-- Generator: Adobe Illustrator 21.0.0, SVG Export Plug-In . SVG Version: 6.00 Build 0)  -->
<svg xmlns="http://www.w3.org/2000/svg" xmlns:xlink="http://www.w3.org/1999/xlink" version="1.1" id="Capa_1" x="0px" y="0px" viewBox="0 0 512 512" style="enable-background:new 0 0 512 512;" xml:space="preserve" width="512" height="512">
<g>
	<path style="fill:#FF2C5C;" d="M512,403.831H110.496V4c0-2.209,1.791-4,4-4H508c2.209,0,4,1.791,4,4V403.831z"/>
	<path style="fill:#E62753;" d="M481.095,0v403.831H512V4c0-2.209-1.791-4-4-4H481.095z"/>
	<path style="fill:#50536E;" d="M512,82.414H110.496V4c0-2.209,1.791-4,4-4H508c2.209,0,4,1.791,4,4V82.414z"/>
	<path style="fill:#484B63;" d="M512,82.414h-30.905V0H508c2.209,0,4,1.791,4,4V82.414z"/>
	<g>
		<circle style="fill:#FF2C5C;" cx="157.885" cy="40.692" r="15.453"/>
		<circle style="fill:#FFD659;" cx="219.696" cy="40.692" r="15.453"/>
		<circle style="fill:#4FC6F5;" cx="281.506" cy="40.692" r="15.453"/>
	</g>
	<path style="fill:#D8D5ED;" d="M508,512H4c-2.209,0-4-1.791-4-4V134.833c0-2.209,1.791-4,4-4h504c2.209,0,4,1.791,4,4V508   C512,510.209,510.209,512,508,512z"/>
	<path style="fill:#BEBADE;" d="M481.095,130.833V512H508c2.209,0,4-1.791,4-4V134.833c0-2.209-1.791-4-4-4H481.095z"/>
	<path style="fill:#50536E;" d="M512,213.247H0v-78.414c0-2.209,1.791-4,4-4h504c2.209,0,4,1.791,4,4V213.247z"/>
	<path style="fill:#484B63;" d="M512,213.247h-30.905v-82.414H508c2.209,0,4,1.791,4,4V213.247z"/>
	<g>
		<circle style="fill:#FF2C5C;" cx="47.388" cy="171.525" r="15.453"/>
		<circle style="fill:#FFD659;" cx="109.199" cy="171.525" r="15.453"/>
		<circle style="fill:#4FC6F5;" cx="171.01" cy="171.525" r="15.453"/>
	</g>
	<path style="fill:#4FC6F5;" d="M227.176,428.585H53.864c-2.209,0-4-1.791-4-4V280.118c0-2.209,1.791-4,4-4h173.312   c2.209,0,4,1.791,4,4v144.467C231.176,426.794,229.385,428.585,227.176,428.585z"/>
	<path style="fill:#FFBD54;" d="M49.864,396.39l54.315-47.665c1.425-1.251,3.535-1.321,5.041-0.169l104.588,80.03H53.864   c-2.209,0-4-1.791-4-4V396.39z"/>
	<circle style="fill:#FFD659;" cx="182.035" cy="317.595" r="19.487"/>
	<path style="fill:#FFA954;" d="M176.405,399.965l54.771-47.613v72.233c0,2.209-1.791,4-4,4h-13.369L176.405,399.965z"/>
	<g>
		<path style="fill:#50536E;" d="M284.538,346.943h168.913c4.143,0,7.5-3.357,7.5-7.5s-3.357-7.5-7.5-7.5H284.538    c-4.143,0-7.5,3.357-7.5,7.5S280.396,346.943,284.538,346.943z"/>
		<path style="fill:#50536E;" d="M284.538,303.114h84.456c4.143,0,7.5-3.357,7.5-7.5s-3.357-7.5-7.5-7.5h-84.456    c-4.143,0-7.5,3.357-7.5,7.5S280.396,303.114,284.538,303.114z"/>
		<path style="fill:#50536E;" d="M453.451,369.029H284.538c-4.143,0-7.5,3.357-7.5,7.5s3.357,7.5,7.5,7.5h168.913    c4.143,0,7.5-3.357,7.5-7.5S457.594,369.029,453.451,369.029z"/>
		<path style="fill:#50536E;" d="M453.451,406.116H284.538c-4.143,0-7.5,3.357-7.5,7.5s3.357,7.5,7.5,7.5h168.913    c4.143,0,7.5-3.357,7.5-7.5S457.594,406.116,453.451,406.116z"/>
		<path style="fill:#50536E;" d="M453.451,462.666H56.117c-4.143,0-7.5,3.357-7.5,7.5s3.357,7.5,7.5,7.5h397.334    c4.143,0,7.5-3.357,7.5-7.5S457.594,462.666,453.451,462.666z"/>
	</g>
</g>















</svg>
